<?xml version="1.0" standalone="no"?>
<!DOCTYPE svg PUBLIC "-//W3C//DTD SVG 1.1//EN" "http://www.w3.org/Graphics/SVG/1.1/DTD/svg11.dtd" >
<svg xmlns="http://www.w3.org/2000/svg" xmlns:xlink="http://www.w3.org/1999/xlink" version="1.1">
<metadata></metadata>
<defs>
<font id="simonettablack" horiz-adv-x="1476" >
<font-face units-per-em="2048" ascent="1638" descent="-410" />
<missing-glyph horiz-adv-x="456" />
<glyph unicode="&#xfb01;" horiz-adv-x="1204" d="M12 745l6 156h181l4 103q2 103 45.5 196.5t111 160.5t150.5 117t166 74.5t155 24.5q79 0 122.5 -39.5t43.5 -112.5q0 -52 -18.5 -86.5t-56.5 -72.5q-36 19 -106.5 31t-115.5 12q-53 0 -84.5 -7t-59.5 -31t-41 -73t-17 -129l-9 -168q324 3 607 25q-58 -355 -58 -574 q0 -97 37.5 -143.5t102.5 -46.5l-7 -162h-22q-281 0 -451 -41q58 352 58 547q0 98 -30 145.5t-101 53.5q-27 1 -144 8q-1 -32 -6 -138.5t-6 -148t-2 -124t2 -153t10 -149.5h-16q-163 0 -334 -41q31 204 43 358q19 184 23 410q-46 0 -111 10z" />
<glyph unicode="&#xfb02;" horiz-adv-x="1259" d="M12 745l6 156h183l2 103q2 103 45.5 196.5t111 160.5t150.5 117t166 74.5t155 24.5q82 0 125 -43q113 14 205 43q-33 -264 -49 -531.5t-17 -364.5t-1 -304q0 -86 36 -150.5t103 -64.5l-6 -162h-23q-278 0 -446 -41q43 332 55 739l-332 15q-9 -140 -12 -340 q0 -236 10 -373h-16q-163 0 -334 -41q31 204 43 358q21 199 21 410q-44 0 -109 10zM489 901h332q4 316 4 393q-88 15 -125 15q-53 0 -84.5 -7t-59.5 -31t-41 -73t-17 -129z" />
<glyph unicode="&#xfb03;" horiz-adv-x="1753" d="M12 741l4 156h185l2 25q10 103 55.5 196.5t112 160.5t146.5 117t161 74.5t153 24.5q47 0 92.5 -19.5t75.5 -50.5q92 72 199 112t197 40q79 0 123.5 -39.5t44.5 -112.5q0 -12 -1.5 -22.5t-2.5 -19t-5 -19t-6 -16t-8.5 -15.5t-8.5 -14t-10.5 -14t-10.5 -12.5t-11.5 -13.5 t-11.5 -13q-36 18 -107.5 30.5t-115.5 12.5q-42 0 -68.5 -4t-53 -18t-41 -40t-25 -70t-13.5 -108l-8 -168q323 3 606 25q-57 -349 -57 -574q0 -96 37.5 -143t101.5 -47l-6 -162h-23q-280 0 -450 -41q1 9 10 68.5t11 74t9 67t9 74t7 66t6.5 72.5t3 65t1.5 70 q0 96 -27.5 131.5t-103.5 40.5l-141 8q-2 -54 -8 -175t-7.5 -176.5t0.5 -152t10 -192.5h-16q-148 0 -319 -41q38 347 51 741l-277 11q-13 -215 -15 -351.5t9 -359.5h-16q-161 0 -332 -41q55 328 64 764q-85 6 -109 10zM492 901h272l4 103q0 108 61 227q-78 16 -129 16 q-69 0 -108 -20t-63.5 -77t-32.5 -163z" />
<glyph unicode="&#xfb04;" horiz-adv-x="1822" d="M12 745l6 156h183l2 21q10 103 55.5 196.5t112 160.5t146.5 117t161 74.5t153 24.5q47 0 92.5 -19.5t75.5 -50.5q92 72 199 112t197 40q82 0 125 -43q111 14 204 43q-33 -264 -49 -531.5t-17 -364.5t-1 -304q0 -55 13.5 -101t46 -78t79.5 -32l-6 -166h-23 q-278 0 -446 -41q43 326 55 723q-50 2 -136 5t-135.5 5t-55.5 4q-13 -205 -15 -331q-3 -184 10 -365h-16q-148 0 -319 -41q13 141 24 301q19 238 27 440l-279 11q-9 -137 -12 -338q0 -236 8 -373h-16q-161 0 -332 -41q54 321 64 768q-89 7 -111 10zM492 901h274q0 68 2 103 q0 108 61 227q-78 16 -129 16q-69 0 -108 -20t-63.5 -77t-32.5 -163zM1055 901h329q1 56 2 143t2 146.5t1 103.5q-88 15 -125 15q-42 0 -68.5 -4t-53 -18t-41 -40t-25 -70t-13.5 -108z" />
<glyph horiz-adv-x="0" />
<glyph unicode="&#xd;" horiz-adv-x="477" />
<glyph unicode=" "  horiz-adv-x="456" />
<glyph unicode="&#x09;" horiz-adv-x="456" />
<glyph unicode="&#xa0;" horiz-adv-x="456" />
<glyph unicode="!" horiz-adv-x="624" d="M129 162q0 87 51 131.5t123 44.5q71 0 122.5 -45t51.5 -131q0 -82 -50 -134.5t-124 -52.5t-124 52.5t-50 134.5zM178 1391q5 0 65.5 -2.5t102.5 -2.5q43 0 101.5 2.5t66.5 2.5q-43 -288 -74 -598q-15 -146 -24 -269h-201l-6 269q-13 352 -31 598z" />
<glyph unicode="&#x22;" horiz-adv-x="839" d="M113 1483h305l-90 -539h-162zM485 1483h303l-88 -539h-163z" />
<glyph unicode="#" horiz-adv-x="1566" d="M41 338l6 205h330l51 295q-97 -2 -291 -17l6 205h318l65 365h236l-66 -365h260l66 365h235l-65 -365h297l-8 -172h-90q-138 0 -230 -2l-53 -309h285l-7 -172h-88q-131 0 -221 -2l-65 -369h-236l66 367l-262 -5l-64 -362h-235l61 354q-277 -14 -301 -16zM612 543h260 l54 307l-260 -4z" />
<glyph unicode="$" horiz-adv-x="1236" d="M66 16l14 449h231l4 -33q23 -244 281 -244q83 0 132.5 31.5t49.5 87.5q0 54 -46 97.5t-140 91.5l-195 104q-54 29 -96 56.5t-84 66t-69.5 79.5t-44.5 94.5t-17 113.5q0 58 11.5 110t42.5 105t79 92.5t126.5 68.5t180.5 39v152h254l-10 -150q202 -15 350 -53l-28 -448 h-232l-4 26q-6 39 -12.5 65t-23.5 64.5t-41 62t-66.5 41t-98.5 17.5q-76 0 -120.5 -32t-44.5 -91q0 -57 46.5 -102.5t135.5 -91.5l174 -92q57 -30 101 -57t90 -66.5t76 -81.5t49.5 -98t19.5 -119q0 -66 -23.5 -127.5t-72 -117t-132 -96.5t-192.5 -59v-213h-254l12 203 q-240 9 -413 55z" />
<glyph unicode="%" horiz-adv-x="1615" d="M82 950q0 104 43 194.5t125.5 148t187.5 57.5q99 0 170 -41q91 -31 215 -31q223 0 367 68l76 102l129 -109l-1006 -1380l-129 109l827 1136q-128 -71 -311 -71h-41q15 -62 15 -113q0 -170 -105 -290t-248 -120q-85 0 -148 27t-98.5 75.5t-52 107t-16.5 130.5zM317 979 q0 -73 28.5 -116.5t70.5 -43.5q44 0 71 43t27 117t-27.5 118t-70.5 44q-42 0 -70.5 -44.5t-28.5 -117.5zM874 340q0 104 44 195t127 147.5t186 56.5q153 0 232 -91t79 -238q0 -170 -105.5 -290t-246.5 -120q-85 0 -148 27t-99 75.5t-52.5 107.5t-16.5 130zM1110 369 q0 -74 27 -117t71 -43q42 0 70.5 43.5t28.5 116.5t-28.5 117t-70.5 44q-43 0 -70.5 -43.5t-27.5 -117.5z" />
<glyph unicode="&#x26;" horiz-adv-x="1550" d="M78 342q0 72 21 135t61 114.5t81.5 89.5t100.5 81q-55 132 -55 242q0 190 108.5 309t290.5 119q133 0 215 -80t82 -203q0 -36 -9.5 -71t-22 -62t-39.5 -58.5t-45 -50.5t-57 -50t-58 -44.5t-64 -45.5q-16 -11 -24 -17q38 -64 97.5 -140.5t110.5 -124.5q24 42 61 111.5 t57.5 107.5t55 87t64.5 74t73 43t93 18q87 0 134.5 -47.5t47.5 -112.5q0 -83 -67 -158q-53 31 -93 31q-27 0 -50.5 -9t-40 -21t-39 -41t-38 -52.5t-47 -72.5t-55.5 -85q137 -120 238.5 -153t214.5 8l65 -127q-138 -127 -297 -127q-216 0 -395 162q-162 -162 -367 -162 q-181 0 -295 103t-114 280zM371 401q0 -89 47.5 -147.5t134.5 -58.5q85 0 147 59q-150 150 -256 326q-73 -76 -73 -179zM549 1069q0 -66 31 -151q122 97 122 202q0 92 -61 92q-41 0 -66.5 -42.5t-25.5 -100.5z" />
<glyph unicode="'" horiz-adv-x="466" d="M113 1483h303l-88 -539h-164z" />
<glyph unicode="(" horiz-adv-x="780" d="M59 526q0 295 181.5 558.5t468.5 400.5l84 -127q-453 -325 -453 -832q0 -125 17.5 -225.5t60.5 -202t119.5 -200t191.5 -201.5l-88 -129q-287 177 -434.5 412t-147.5 546z" />
<glyph unicode=")" horiz-adv-x="780" d="M-14 -305q452 330 452 831q0 125 -17.5 226t-61 203t-120 200.5t-190.5 200.5l88 129q286 -177 434 -413t148 -546q0 -295 -181 -558t-468 -400z" />
<glyph unicode="*" horiz-adv-x="937" d="M45 895l272 121l-266 121q65 88 101 166l233 -168l-20 290q55 -6 100 -6q53 0 94 6l-39 -295q46 29 141.5 95t106.5 73q42 -95 88 -165l-268 -117q51 -24 144.5 -70.5t113.5 -56.5q-11 -13 -32 -45t-44.5 -71t-28.5 -46l-229 176q2 -79 16 -295q-9 0 -47 1t-47 1 q-8 0 -48 -1t-48 -1l43 291l-248 -170z" />
<glyph unicode="+" horiz-adv-x="1097" d="M80 549v188h377v377h188v-377h377v-188h-377v-377h-188v377h-377z" />
<glyph unicode="," horiz-adv-x="548" d="M70 -184q47 41 73.5 94.5t26.5 105.5q0 87 -96 142q0 73 47.5 126.5t130.5 53.5q77 0 130.5 -56t53.5 -161q0 -46 -12 -95.5t-39.5 -107.5t-81 -117t-127.5 -108z" />
<glyph unicode="-" horiz-adv-x="776" d="M102 389l7 229h563l-6 -229h-564z" />
<glyph unicode="." horiz-adv-x="540" d="M82 162q0 87 51 131.5t123 44.5q71 0 122.5 -45t51.5 -131q0 -82 -50 -134.5t-124 -52.5t-124 52.5t-50 134.5z" />
<glyph unicode="/" horiz-adv-x="1216" d="M61 -356l881 1829h213l-881 -1829h-213z" />
<glyph unicode="0" horiz-adv-x="1280" d="M63 662q0 93 13.5 182t40.5 176.5t73.5 161t108.5 130t149 88.5t191 32q114 0 206 -39.5t153 -106.5t102.5 -158t59.5 -190.5t18 -208.5q0 -92 -13.5 -181.5t-41.5 -177t-75.5 -161t-109.5 -130t-149.5 -88.5t-190.5 -32q-113 0 -204.5 39.5t-152 106t-101.5 157.5 t-59 190.5t-18 209.5zM397 725q0 -89 11 -178t34.5 -177t70 -143t108.5 -55q54 0 96 36t65 88.5t38 123.5t19.5 130t4.5 118q0 70 -6 140.5t-22 146.5t-40 133.5t-64.5 95t-90.5 37.5q-56 0 -98 -36t-65.5 -88.5t-37.5 -123.5t-18.5 -129.5t-4.5 -118.5z" />
<glyph unicode="1" horiz-adv-x="872" d="M10 1112q67 39 139.5 88.5t114 81t108.5 85.5t81 65l186 -76q-11 -159 -20 -490.5t-9 -486.5q0 -102 31 -139t98 -45l39 -7l-8 -194l-115 8q-15 0 -98.5 4t-128.5 4q-190 0 -340 -16l8 194l56 7q93 6 110 6q11 135 20 406t9 419l-185 -94z" />
<glyph unicode="2" horiz-adv-x="1128" d="M2 190q36 37 117 119t123.5 126.5t110 118t105 123.5t77.5 111t57.5 112.5t17.5 96.5q0 80 -39 127t-112 47q-65 0 -107.5 -46.5t-42.5 -120.5q0 -32 6 -50q-51 -39 -125 -39q-70 0 -116.5 42t-46.5 120q0 109 67.5 191t175 123t236.5 41q210 0 338.5 -101t128.5 -287 q0 -73 -29.5 -148.5t-77 -144t-130 -153t-164.5 -157t-205 -173.5h217q51 0 92 11.5t65 25.5t46 42t31.5 45.5t25.5 51.5l28 62l166 -27q-21 -121 -57 -479h-909z" />
<glyph unicode="3" horiz-adv-x="1128" d="M31 182q0 123 121 185q83 -83 156 -117.5t173 -34.5q91 0 148 55.5t57 157.5q0 84 -51 135t-137 51t-166 -39l-64 193l111 43q84 36 149.5 96.5t65.5 134.5q0 45 -28.5 76t-86.5 31q-117 0 -266 -119l-123 150q233 252 512 252q182 0 270.5 -78.5t88.5 -212.5 q0 -88 -62 -176.5t-143 -126.5q119 -18 199.5 -108t80.5 -220q0 -113 -55.5 -216.5t-145 -176t-205.5 -115.5t-235 -43q-183 0 -273.5 60t-90.5 163z" />
<glyph unicode="4" horiz-adv-x="1220" d="M0 393l6 221l721 818l203 -76q-18 -219 -29 -731q115 9 184 12l72 4l-67 -248h-193v-14q0 -102 32 -139t101 -45l39 -7l-8 -194l-123 8q-13 0 -100.5 4t-132.5 4q-181 0 -326 -16l6 194l55 7q99 6 113 6q1 22 5 86.5t5 105.5h-563zM264 602q203 0 307 6q1 56 4 172.5 t3 161.5z" />
<glyph unicode="5" horiz-adv-x="1105" d="M-14 182q0 124 120 185q82 -82 156.5 -117t165.5 -35q93 0 154 60.5t61 181.5q0 85 -59 145t-172 60q-60 0 -150 -23l-100 127l78 625h393q87 0 124 19.5t81 88.5l30 49l172 -73q-16 -43 -33.5 -106.5t-37.5 -144.5t-31 -122h-506l-31 -236q77 21 164 21q83 0 158 -21.5 t137.5 -63.5t99.5 -114t37 -164q0 -153 -87.5 -283t-236.5 -206t-323 -76q-183 0 -273.5 60t-90.5 163z" />
<glyph unicode="6" horiz-adv-x="1153" d="M49 469q0 135 47 262t127 230t190 194t232 158.5t258 118.5l84 -179q-159 -67 -292.5 -182t-215.5 -260q92 29 185 29q73 0 141 -22t126.5 -66t94 -119.5t35.5 -171.5q0 -114 -43.5 -210t-115 -159t-162 -98t-187.5 -35q-142 0 -255 57.5t-181 175t-68 277.5zM383 453 q0 -132 48 -201.5t128 -69.5q74 0 120 60t46 168q0 221 -186 221q-71 0 -140 -27q-16 -78 -16 -151z" />
<glyph unicode="7" horiz-adv-x="1058" d="M8 936q61 252 101 455h870l78 -109q-149 -309 -358 -780t-242 -543l-322 170q39 61 156 241t161 249.5t124.5 207.5t152.5 275h-309q-61 0 -98 -13.5t-53.5 -34t-35.5 -61.5l-40 -86z" />
<glyph unicode="8" horiz-adv-x="1169" d="M53 315q0 66 21 128t60 115t84 97t104 88q-197 166 -197 326q0 91 42.5 162.5t112.5 114t153.5 64.5t172.5 22q113 0 207 -33.5t156.5 -108t62.5 -178.5q0 -108 -51 -188.5t-147 -161.5q231 -192 231 -367q0 -99 -46 -182.5t-123 -138t-176 -85t-206 -30.5q-85 0 -165 22 t-147 64t-108 112t-41 158zM315 344q0 -90 57 -140t148 -50q81 0 131.5 45t50.5 125q0 69 -54.5 133.5t-162.5 150.5q-76 -58 -123 -127t-47 -137zM481 1122q0 -52 46.5 -103.5t140.5 -125.5q39 36 58 56.5t37.5 57.5t18.5 76q0 72 -45 114t-114 42q-57 0 -99.5 -30.5 t-42.5 -86.5z" />
<glyph unicode="9" horiz-adv-x="1153" d="M53 930q0 114 43.5 210.5t115 159t162 97.5t187.5 35q106 0 197 -33.5t159 -96.5t107 -160.5t39 -219.5q0 -134 -47 -261t-127 -230.5t-190 -194.5t-232 -158.5t-258 -118.5l-84 178q160 65 293.5 181t214.5 262q-95 -29 -182 -29q-72 0 -140.5 22.5t-127 66.5 t-94.5 119.5t-36 170.5zM389 981q0 -221 186 -221q73 0 138 24q16 82 16 154q0 131 -48.5 200.5t-127.5 69.5q-71 0 -117.5 -60.5t-46.5 -166.5z" />
<glyph unicode=":" horiz-adv-x="569" d="M96 162q0 87 51 131.5t123 44.5q70 0 122 -45t52 -131q0 -82 -50 -134.5t-124 -52.5t-124 52.5t-50 134.5zM117 750q0 87 51 131.5t123 44.5q71 0 122.5 -45t51.5 -131q0 -82 -50 -134.5t-124 -52.5t-124 52.5t-50 134.5z" />
<glyph unicode=";" horiz-adv-x="575" d="M84 -184q45 42 72.5 96t27.5 104q0 87 -96 142q0 72 48.5 126t129.5 54q80 0 132.5 -56t52.5 -161q0 -46 -12.5 -95.5t-40 -107.5t-81 -117t-127.5 -108zM117 750q0 87 51 131.5t123 44.5q71 0 122.5 -45t51.5 -131q0 -82 -50 -134.5t-124 -52.5t-124 52.5t-50 134.5z " />
<glyph unicode="&#x3c;" horiz-adv-x="1114" d="M74 565v131l852 432l82 -159l-668 -338l668 -336l-82 -160z" />
<glyph unicode="=" horiz-adv-x="1169" d="M115 369v188h942v-188h-942zM115 737v189h942v-189h-942z" />
<glyph unicode="&#x3e;" horiz-adv-x="1112" d="M109 295l663 336l-663 338l81 159l852 -432v-131l-852 -430z" />
<glyph unicode="?" horiz-adv-x="815" d="M94 1174q0 112 99.5 185t228.5 73q157 0 248.5 -80.5t91.5 -198.5q0 -79 -30 -145.5t-74.5 -107.5t-96.5 -76.5t-96.5 -57.5t-74.5 -45t-30 -43q0 -43 74 -43q78 0 160 29v-7q0 -91 -51 -164t-148 -73q-86 0 -139 54.5t-53 148.5q0 110 57 198.5t172 190.5q27 25 43 42.5 t30.5 46.5t14.5 60q0 32 -20.5 54t-61.5 22q-40 0 -68 -32t-28 -95q0 -43 8 -68q-49 -14 -96 -14q-74 0 -117 38t-43 108zM209 162q0 87 51 131.5t123 44.5q71 0 122.5 -45t51.5 -131q0 -82 -50 -134.5t-124 -52.5t-124 52.5t-50 134.5z" />
<glyph unicode="@" horiz-adv-x="1540" d="M59 369q0 164 62 308t168 246.5t254 162t315 59.5q271 0 435.5 -151t164.5 -410q0 -156 -74 -279.5t-200 -190.5t-281 -67l-61 98l43 174l-11 7q-164 -238 -286 -279l-150 49q-20 78 -20 135q0 126 37 239.5t96 191t134 123.5t151 46q139 0 282 -43q-6 -83 -9.5 -170.5 t-6 -202.5t-4.5 -167q97 20 154 113t57 223q0 84 -28.5 160t-83.5 137t-146.5 97t-206.5 36q-162 0 -297.5 -80.5t-214 -223.5t-78.5 -319q0 -124 35.5 -227.5t103.5 -180t175 -119t243 -42.5q112 0 212.5 27.5t231.5 89.5l48 -107q-276 -151 -529 -151q-147 0 -279 51.5 t-228 141.5t-152 219t-56 276zM645 328q0 -41 2 -64q26 0 65 29.5t77.5 77.5t69.5 117.5t38 140.5l2 59q-50 12 -84 12q-53 0 -92 -52.5t-58.5 -136t-19.5 -183.5z" />
<glyph unicode="A" d="M-31 -6l8 194l29 5q7 1 23 2.5t33 3t34 2.5l529 1190l256 41l381 -1006q32 -83 61.5 -129t53 -62.5t61.5 -29.5l47 -17l-8 -194q-176 16 -328 16q-158 0 -358 -16l8 194q117 13 166 13l-64 207q-180 -3 -446 -19q-27 -70 -27 -110t20.5 -59t63.5 -25l39 -7l-8 -194 q-4 0 -30.5 3.5t-43.5 4.5q-196 8 -215 8q-142 0 -285 -16zM539 635h292l-118 385h-41z" />
<glyph unicode="B" horiz-adv-x="1388" d="M72 -6l8 194l53 7q99 6 113 6q11 138 20.5 403.5t9.5 407.5q0 101 -30.5 138.5t-95.5 45.5l-44 6l7 195l73 -6q172 -7 217 -7q70 0 185.5 7.5t165.5 7.5q230 0 351.5 -92.5t121.5 -251.5q0 -90 -37.5 -176t-89.5 -129q223 -94 223 -342q0 -191 -137 -309.5t-379 -118.5 q-75 0 -224.5 15t-215.5 15q-111 0 -295 -16zM590 244q33 -22 83 -32.5t85 -10.5q85 0 140.5 53t55.5 152q0 87 -60.5 136.5t-184.5 49.5q-86 0 -113 -6zM604 807q10 2 101 2q108 0 137 -4q59 70 59 158q0 100 -61 156.5t-166 56.5q-43 0 -53 -2l-7 -127q-1 -36 -5 -118.5 t-5 -121.5z" />
<glyph unicode="C" horiz-adv-x="1404" d="M78 670q0 237 102.5 410.5t285 262.5t423.5 89q39 0 76 -1.5t65 -3.5t62 -6.5t52.5 -7t52.5 -9.5t46 -9.5t48 -10.5t44 -10l-16 -448h-252v14q0 270 -248 270q-74 0 -141 -32t-120.5 -92t-85.5 -156t-32 -215q0 -109 29 -196.5t78 -145.5t116.5 -96.5t141.5 -55 t156 -16.5q182 0 317 43l55 -203q-254 -86 -491 -86q-232 0 -402.5 80.5t-266 241.5t-95.5 389z" />
<glyph unicode="D" horiz-adv-x="1619" d="M72 -6l8 194q97 13 166 13q11 164 19.5 417t8.5 394q0 101 -31.5 138.5t-97.5 45.5l-39 6l9 195q78 -10 92 -11q65 -8 160 -8q76 0 231 11.5t250 11.5q327 0 514.5 -183t187.5 -499q0 -66 -10 -131.5t-35 -139t-63.5 -138t-101 -124.5t-142 -103.5t-191 -69t-243.5 -25.5 q-63 0 -201 11t-217 11q-96 0 -274 -16zM590 338q0 -69 42.5 -95t168.5 -26q45 0 92 12.5t100.5 48.5t94.5 90.5t68.5 148t27.5 212.5q0 58 -10 115t-38.5 120t-73 110.5t-120 78.5t-172.5 31q-121 0 -154 -6q-21 -699 -26 -835v-5z" />
<glyph unicode="E" horiz-adv-x="1384" d="M72 -6l8 194l59 7q105 6 107 6q11 136 19.5 399.5t8.5 411.5q0 101 -31.5 138.5t-97.5 45.5l-39 6l9 195q236 -23 542 -23q267 0 646 23l-31 -471h-232l-6 55q-13 83 -47.5 123.5t-120.5 48.5l-245 25l-13 -373l396 16l-11 -248l-393 27l-12 -383l239 14q113 7 159.5 62 t72.5 186h239l-59 -499q-341 28 -713 28q-230 0 -454 -14z" />
<glyph unicode="F" horiz-adv-x="1288" d="M72 -6l8 194l53 7q99 6 113 6q11 164 19.5 417t8.5 394q0 101 -31.5 138.5t-97.5 45.5l-39 6l9 195q239 -23 532 -23q256 0 635 23l-31 -471h-231l-6 55q-8 81 -46 124t-122 50l-225 23l-19 -414l402 16l-11 -248l-397 27l-6 -180q0 -102 32 -139t101 -45l39 -7l-8 -194 l-99 8q-236 8 -237 8q-201 0 -346 -16z" />
<glyph unicode="G" horiz-adv-x="1589" d="M76 672q0 178 63 322.5t175 240t265 146.5t334 51q91 0 183 -10t141.5 -20t132.5 -28l-16 -448h-252v14q0 39 -6 74t-23.5 72t-46 63.5t-77.5 43.5t-113 17q-73 0 -142 -31t-126.5 -90.5t-92.5 -158.5t-35 -223q0 -233 120 -379t294 -146q123 0 188 43q1 23 1.5 43.5 t1.5 34.5t1.5 26t0.5 19.5t0.5 13t0.5 8.5t0.5 5t0.5 3v1.5v1.5q0 88 -33.5 121.5t-97.5 42.5l-41 6l8 194l112 -8q88 -8 211 -8q212 0 353 16l-9 -194l-55 -6q-99 -6 -111 -6l-16 -494q-97 -34 -240 -60t-241 -26q-173 0 -320.5 46.5t-257.5 135t-172.5 225t-62.5 306.5z " />
<glyph unicode="H" horiz-adv-x="1748" d="M72 -6l8 194l53 7q99 6 113 6q11 164 19.5 417t8.5 394q0 101 -31.5 138.5t-97.5 45.5l-39 6l9 195l98 -8q86 -9 238 -9q192 0 346 17l-9 -195l-55 -6q-93 -6 -110 -6l-19 -361h561q2 72 2 183q0 101 -31.5 138.5t-97.5 45.5l-39 6l9 195l98 -8q88 -9 237 -9 q193 0 347 17l-9 -195l-55 -6q-93 -6 -110 -6q-12 -171 -20.5 -421.5t-8.5 -389.5q0 -102 31 -139t98 -45l39 -7l-8 -194l-99 8q-236 8 -237 8q-201 0 -346 -16l8 194l53 7q99 6 113 6q3 48 18 401q-303 0 -561 -18q-2 -82 -2 -205q0 -102 31 -139t98 -45l39 -7l-8 -194 l-99 8q-236 8 -237 8q-201 0 -346 -16z" />
<glyph unicode="I" horiz-adv-x="858" d="M72 -6l8 194l53 7q99 6 113 6q11 164 19.5 417t8.5 394q0 101 -31.5 138.5t-97.5 45.5l-39 6l9 195l98 -8q86 -9 238 -9q192 0 346 17l-9 -195l-55 -6q-93 -6 -110 -6q-12 -171 -20.5 -421.5t-8.5 -389.5q0 -102 31 -139t98 -45l39 -7l-8 -194l-99 8q-236 8 -237 8 q-201 0 -346 -16z" />
<glyph unicode="J" horiz-adv-x="798" d="M-113 -375q80 68 148 142q151 163 172 296q17 138 30 462.5t13 486.5q0 101 -31 138.5t-98 45.5l-39 6l8 195l96 -8q88 -9 240 -9q192 0 346 17l-8 -195l-53 -6q-99 -6 -113 -6q-11 -214 -27 -599t-16 -507q-2 -80 -30 -154.5t-89.5 -155.5t-169 -165.5t-260.5 -169.5z " />
<glyph unicode="K" horiz-adv-x="1558" d="M72 -6l8 194l53 7q99 6 113 6q11 164 19.5 417t8.5 394q0 101 -31.5 138.5t-97.5 45.5l-39 6l9 195l98 -8q86 -9 238 -9q192 0 346 17l-9 -195l-55 -6q-93 -6 -110 -6q-12 -171 -20.5 -421.5t-8.5 -389.5q0 -102 31 -139t98 -45l39 -7l-8 -194l-99 8q-236 8 -237 8 q-201 0 -346 -16zM668 659l2 68l358 465l-82 6l-43 4l8 195q111 -15 283 -15q179 0 299 15l-10 -193l-25 -4q-120 -12 -264 -174l-211 -240l166 -239q50 -72 73.5 -104.5t69 -89.5t78 -86t77 -57.5t89.5 -39.5l-6 -154q-47 -28 -113 -28q-162 0 -291.5 81t-246.5 263z" />
<glyph unicode="L" horiz-adv-x="1320" d="M70 -6l8 194l53 7q99 6 113 6q11 164 19.5 417t8.5 394q0 101 -31.5 138.5t-97.5 45.5l-39 6l9 195l98 -8q88 -9 238 -9q192 0 346 17l-9 -195l-55 -6q-93 -6 -110 -6q-11 -104 -33 -967l217 17q108 7 156.5 61.5t74.5 177.5h260l-59 -499q-322 28 -682 28 q-258 0 -485 -14z" />
<glyph unicode="M" horiz-adv-x="1966" d="M8 -6l8 194l54 7q99 6 112 6l148 1190l278 41l361 -861h41l321 820l328 41l96 -1053q7 -104 36.5 -140t94.5 -44l39 -7l-6 -194l-88 8q-228 8 -232 8q-110 0 -342 -16l9 194l55 7q93 6 111 6l-52 649h-41l-313 -795h-201l-325 795h-41q-7 -434 -13 -486v-2 q0 -48 8.5 -80.5t27 -49.5t39 -25t52.5 -12l41 -7l-8 -194l-90 8q-18 1 -58.5 3t-80 3.5t-76.5 1.5q-64 0 -293 -16z" />
<glyph unicode="N" horiz-adv-x="1648" d="M53 -6l8 194l45 7q81 6 103 6l22 643q13 336 13 479v68l198 41l725 -889l37 6l-16 438q-4 116 -39.5 158.5t-108.5 50.5l-47 6l8 195l95 -8q86 -9 190 -9q166 0 316 17l-9 -193l-43 -6q-81 -6 -100 -6l-25 -635q-10 -248 -10 -555l-207 -43l-723 889l-36 -6l18 -436 q2 -50 9.5 -85.5t18.5 -57.5t30.5 -36t39 -20.5t49.5 -11.5l48 -7l-9 -194l-94 8q-12 0 -81.5 4t-108.5 4q-175 0 -316 -16z" />
<glyph unicode="O" horiz-adv-x="1595" d="M76 688q0 155 55 291t153.5 236.5t244.5 158.5t319 58q129 0 240 -37.5t191.5 -104t137.5 -155.5t85 -193t28 -217q0 -207 -95.5 -382.5t-263.5 -279.5t-370 -104q-145 0 -265.5 38t-204.5 104.5t-142 158.5t-85.5 199.5t-27.5 228.5zM440 735q0 -151 44.5 -276.5 t130.5 -201t196 -75.5q86 0 154.5 42t110 111t63.5 152.5t22 171.5q0 149 -44 273.5t-129.5 201t-196.5 76.5q-69 0 -127.5 -28t-99 -75.5t-69 -109t-42 -128t-13.5 -134.5z" />
<glyph unicode="P" horiz-adv-x="1320" d="M72 -6l8 194l53 7q99 6 113 6q11 164 19.5 417t8.5 394q0 101 -31.5 138.5t-97.5 45.5l-39 6l9 195l92 -6q16 -1 52 -3t67.5 -3t56.5 -1q105 0 228 7.5t177 7.5q247 0 378.5 -110t131.5 -306q0 -89 -30.5 -166t-81.5 -130.5t-117 -92t-136.5 -56.5t-141.5 -18 q-57 0 -109 12l10 218q21 -5 49 -5q82 0 137.5 59t55.5 159q0 103 -65.5 158t-182.5 55q-25 0 -65 -5q-27 -398 -27 -792q0 -102 31 -139t98 -45l39 -7l-8 -194l-99 8q-236 8 -237 8q-201 0 -346 -16z" />
<glyph unicode="Q" horiz-adv-x="1595" d="M76 688q0 155 55 291t153.5 236.5t244.5 158.5t319 58q129 0 240 -37.5t191.5 -104t137.5 -155.5t85 -193t28 -217q0 -207 -95.5 -382.5t-263.5 -279.5t-370 -104q-145 0 -265.5 38t-204.5 104.5t-142 158.5t-85.5 199.5t-27.5 228.5zM344 -186q58 35 134 60.5t145 25.5 q81 0 170.5 -29t153.5 -64t134 -69.5t111 -42.5l176 55l84 -174q-66 -71 -153 -116.5t-179 -45.5q-77 0 -162.5 37t-145 81.5t-123 94t-89.5 62.5l-190 -56zM440 735q0 -151 44.5 -276.5t130.5 -201t196 -75.5q86 0 154.5 42t110 111t63.5 152.5t22 171.5q0 149 -44 273.5 t-129.5 201t-196.5 76.5q-69 0 -127.5 -28t-99 -75.5t-69 -109t-42 -128t-13.5 -134.5z" />
<glyph unicode="R" horiz-adv-x="1470" d="M72 -6l8 194l53 7q99 6 113 6q11 164 19.5 417t8.5 394q0 101 -31.5 138.5t-97.5 45.5l-39 6l9 195l96 -6q9 0 78.5 -3.5t103.5 -3.5q53 0 188.5 7.5t204.5 7.5q248 0 380 -110.5t132 -307.5q0 -133 -65.5 -227.5t-177.5 -143.5l90 -164q75 -135 155 -205.5t146 -70.5 l-8 -170l-33 -6q-75 -6 -94 -6q-151 0 -266 75t-209 256l-117 220q-14 -2 -43 -2q-17 0 -44 1t-34 1q-2 -57 -2 -160t29.5 -139.5t97.5 -44.5l39 -7l-8 -194l-99 8q-236 8 -237 8q-201 0 -346 -16zM604 750q19 -5 72 -5q124 0 192 56.5t68 161.5q0 109 -70.5 161t-183.5 52 q-39 0 -55 -2q-17 -264 -23 -424z" />
<glyph unicode="S" horiz-adv-x="1253" d="M94 16l15 449h231l4 -33q23 -244 281 -244q83 0 132.5 31.5t49.5 87.5q0 54 -46 97.5t-140 91.5l-195 104q-54 29 -96 56.5t-84 66t-69.5 79.5t-44.5 94.5t-17 113.5q0 53 10 100.5t33 97t64.5 88.5t99.5 70.5t144 48.5t193 17q281 0 490 -58l-29 -448h-231l-4 26 q-6 39 -12 64.5t-23.5 64.5t-41 62.5t-66.5 41t-99 17.5q-76 0 -121 -32t-45 -91q0 -57 47 -102t135 -92l175 -92q57 -29 101 -57t90 -67t76 -81t49 -98t19 -119q0 -60 -19 -117t-63.5 -111t-109.5 -94.5t-165.5 -65t-223.5 -24.5q-132 0 -266.5 16t-227.5 41z" />
<glyph unicode="T" horiz-adv-x="1384" d="M55 926l15 471l192 -8q169 -9 387 -9q194 0 284 1t210 6t237 16l-30 -477h-195l-8 55q-7 74 -41.5 98t-128.5 37l-96 10q-27 -380 -27 -764q0 -48 8.5 -80.5t27 -49.5t39 -25t52.5 -12l43 -7l-6 -194l-98 8q-236 8 -238 8q-201 0 -346 -16l6 194l55 7q99 6 113 6 q3 81 10.5 256t13 316t5.5 220v168q-115 10 -129 10q-133 0 -154 -196l-6 -49h-195z" />
<glyph unicode="U" horiz-adv-x="1593" d="M57 1202l9 195l94 -8q86 -9 233 -9q192 0 346 17l-8 -195l-53 -6q-99 -6 -111 -6q-20 -499 -20 -676q0 -169 80 -250.5t211 -81.5q139 0 211 84.5t77 233.5q7 450 7 520q0 50 -9 83.5t-27.5 52.5t-40 27.5t-52.5 12.5l-41 6l8 195q8 -1 34 -4t44 -4q77 -9 219 -9 q182 0 334 17l-9 -195l-55 -6q-93 -6 -111 -6l-55 -680q-48 -549 -598 -549q-261 0 -413 131.5t-152 356.5q0 50 8 290t8 273q0 101 -31 138.5t-98 45.5z" />
<glyph unicode="V" horiz-adv-x="1521" d="M2 1202l8 195l99 -8q89 -9 239 -9q192 0 346 17l-8 -195l-53 -6q-99 -6 -113 -6l252 -817h41l195 571q47 139 47 176q0 36 -19 51t-65 25l-41 6l8 195q9 -1 34.5 -4t41.5 -4q73 -9 215 -9q182 0 334 17l-9 -195l-55 -6q-93 -6 -110 -6l-529 -1190l-256 -41l-403 1067 q-39 99 -70.5 129.5t-89.5 40.5z" />
<glyph unicode="W" horiz-adv-x="2021" d="M20 1202l9 195q187 -17 331 -17q132 0 345 17l-9 -195q-51 -8 -145 -12l139 -731h41l242 764l231 37l217 -801h33l129 499q4 15 12.5 46.5t11 42t6.5 29t5.5 29.5t1.5 21q0 30 -19 45t-59 23l-53 8l8 195q150 -17 307 -17q124 0 267 17l-9 -195q-18 -5 -33.5 -6.5 t-34.5 -2.5t-36 -3l-471 -1190l-275 -43l-176 672h-30l-213 -629l-283 -41l-301 1081q-13 47 -29.5 77.5t-40 46.5t-41 22t-47.5 12z" />
<glyph unicode="X" horiz-adv-x="1568" d="M41 -6l8 194q68 11 109 11l450 454l-342 428q-48 60 -81.5 83.5t-73.5 31.5l-31 6l8 195q150 -17 315 -17q175 0 345 17l-9 -195q-34 -7 -141 -12l233 -287l80 101q60 75 60 122q0 55 -80 68l-47 8l8 195q150 -17 342 -17q190 0 340 17l-8 -195q-31 -6 -96 -10l-467 -451 l352 -432q50 -62 85.5 -86.5t74.5 -29.5l30 -5l-8 -194q-176 16 -315 16q-184 0 -344 -16l8 194q60 9 141 13l-244 291l-84 -113q-33 -45 -44 -68t-11 -47q0 -31 18.5 -47t55.5 -22l43 -7l-8 -194q-176 16 -338 16q-193 0 -334 -16z" />
<glyph unicode="Y" horiz-adv-x="1443" d="M14 1202l9 195q187 -17 337 -17q134 0 347 17l-11 -195q-74 -8 -166 -12l242 -424h39l131 225q55 89 55 137q0 30 -18 45t-55 21l-47 8l8 195q150 -17 291 -17q157 0 307 17l-8 -193q-24 -6 -58 -8t-49 -4l-475 -682q0 -45 -1 -79.5t-1 -51.5q0 -102 31 -139t98 -45 l39 -7l-8 -194l-97 8q-236 8 -237 8q-203 0 -348 -16l8 194l53 7q99 6 113 6q3 32 7.5 133.5t6.5 138.5l-367 602q-69 116 -147 123z" />
<glyph unicode="Z" horiz-adv-x="1378" d="M61 -6l9 219l782 956l-303 -20q-73 -4 -102.5 -53t-63.5 -199h-258l18 500q338 -17 578 -17q227 0 575 17l-14 -240l-788 -934l305 21q68 1 102.5 14.5t61.5 42.5q51 51 84 178h258l-60 -499q-128 12 -280 18l-303 6q-85 2 -159.5 2t-137.5 -2q-33 -1 -74.5 -1.5 t-68.5 -1t-44 -1.5z" />
<glyph unicode="[" horiz-adv-x="688" d="M133 -356l64 1829h473l-2 -173h-228l-53 -1484h227l-8 -172h-227h-246z" />
<glyph unicode="\" horiz-adv-x="1351" d="M127 1473h213l883 -1829h-213z" />
<glyph unicode="]" horiz-adv-x="692" d="M16 -356l7 172h229l51 1484h-227l6 173h477l-65 -1829h-252h-226z" />
<glyph unicode="^" horiz-adv-x="899" d="M61 877l330 514h117l330 -514h-211l-176 274l-177 -274h-213z" />
<glyph unicode="_" horiz-adv-x="1552" d="M150 -303h1187v-98h-1187v98z" />
<glyph unicode="`" horiz-adv-x="655" d="M102 1403q30 23 91.5 78.5t89.5 83.5l270 -373l-111 -100z" />
<glyph unicode="a" horiz-adv-x="1069" d="M55 213q0 77 38.5 137.5t96.5 95t135 57t144.5 30.5t134.5 8q2 18 2 41q0 55 -31.5 83.5t-89.5 28.5q-34 0 -66.5 -9.5t-66.5 -40.5t-49 -79q-22 0 -38 1t-43.5 4.5t-46.5 12t-38.5 22.5t-30 38t-10.5 55q0 56 37 101t96 72t127 41t136 14q195 0 299 -74.5t104 -245.5 q0 -43 -10.5 -173.5t-10.5 -151.5q0 -39 20.5 -57.5t49.5 -18.5q25 0 57 14l80 -135q-109 -109 -243 -109q-81 0 -132 41.5t-71 112.5q-113 -154 -311 -154q-129 0 -199 69.5t-70 168.5zM344 254q0 -30 20 -47t58 -17q63 0 114 47t62 136h-16q-50 0 -101.5 -10.5t-94 -39 t-42.5 -69.5z" />
<glyph unicode="b" horiz-adv-x="1079" d="M12 1346l6 161q111 5 250 25t221 45l-104 -844q151 193 334 193q80 0 142 -32.5t97.5 -87t53.5 -119.5t18 -138q0 -136 -44.5 -247.5t-117.5 -181t-163.5 -107.5t-186.5 -38q-245 0 -420 105q24 260 40 583.5t16 489.5q0 186 -142 193zM410 201q63 -19 108 -19 q88 0 145.5 83.5t57.5 211.5q0 84 -36.5 133t-96.5 49q-86 0 -166 -53z" />
<glyph unicode="c" horiz-adv-x="948" d="M39 406q0 144 63 261.5t182 188t273 70.5q147 0 247.5 -68.5t100.5 -167.5q0 -194 -289 -194q-3 62 -12 104.5t-34 74.5t-66 32q-72 0 -114 -69.5t-42 -188.5q0 -124 67 -185t185 -61q126 0 236 45l61 -129q-171 -144 -422 -144q-201 0 -318.5 116.5t-117.5 314.5z" />
<glyph unicode="d" horiz-adv-x="1107" d="M37 367q0 124 49 229.5t132.5 177t195.5 112t237 40.5h25q6 109 6 227q0 94 -34 140.5t-107 52.5l6 161q110 5 249.5 25.5t221.5 44.5q-72 -770 -72 -1221q0 -182 154 -194l-6 -162h-15q-180 0 -364 -41l39 211q-138 -195 -359 -195q-76 0 -140 23.5t-113.5 70t-77 123 t-27.5 175.5zM346 393q0 -86 43 -136t98 -50q43 0 87 19t75 55l17 411h-43q-111 0 -194 -84t-83 -215z" />
<glyph unicode="e" horiz-adv-x="1009" d="M39 406q0 105 32.5 199t92.5 165.5t152 113.5t204 42q193 0 300.5 -102.5t107.5 -270.5q0 -23 -3.5 -63.5t-4.5 -49.5l-9 -55q-128 -16 -317 -16q-42 0 -132 2t-122 2q12 -77 77 -123.5t171 -46.5q134 0 235 41l64 -125q-171 -144 -412 -144q-205 0 -320.5 118 t-115.5 313zM350 539q248 15 271 26v15q0 57 -28 92t-81 35q-56 0 -101 -43t-61 -125z" />
<glyph unicode="f" horiz-adv-x="796" d="M12 745l6 156h179l6 123q6 99 59.5 202t129 178.5t163 124t158.5 48.5q79 0 122.5 -39.5t43.5 -112.5q0 -12 -1.5 -22.5t-2.5 -19t-5 -19t-6 -16t-8.5 -15.5t-8.5 -14t-10.5 -14t-10.5 -12.5t-11.5 -13.5t-11.5 -13q-75 43 -135 43q-78 0 -117 -48.5t-45 -146.5l-12 -213 q112 0 299 25l-41 -238q-76 0 -111 2q-61 0 -160 6q-4 -63 -4 -309q0 -100 34 -160.5t105 -64.5l-6 -162h-22q-282 0 -447 -41q29 257 52 768q-44 0 -109 10z" />
<glyph unicode="g" horiz-adv-x="1177" d="M18 -346q0 44 15 83t45.5 73.5t62 60.5t78.5 59q-94 37 -94 129q0 33 12 65t41.5 68.5t43.5 51.5t52 53q-192 64 -192 266q0 153 125.5 255t322.5 102q126 0 212 -30.5t124 -72.5q84 103 178 103q62 0 98 -33t36 -90q0 -83 -56 -129q-48 34 -121 34q-44 0 -73 -16 q4 -36 4 -68q0 -105 -62 -184.5t-163.5 -119.5t-225.5 -40h-26q-9 -14 -13.5 -29t-3 -32.5t19.5 -31t52 -17.5l252 -31q124 -19 181.5 -69.5t57.5 -143.5q0 -85 -55 -170.5t-146 -152t-216.5 -108.5t-257.5 -42q-149 0 -228.5 54t-79.5 153zM309 -238q0 -106 133 -106 q77 0 151.5 39.5t74.5 101.5q0 64 -113 82l-182 23q-29 -26 -46.5 -64t-17.5 -76zM395 582q0 -49 29.5 -88t91.5 -39q53 0 80 38.5t27 88.5q0 49 -30 92t-87 43q-56 0 -83.5 -42t-27.5 -93z" />
<glyph unicode="h" horiz-adv-x="1153" d="M12 1346l6 161q111 5 250 25t221 45l-104 -850q168 199 363 199q123 0 193.5 -83.5t70.5 -238.5q0 -50 -9.5 -152t-9.5 -114q0 -77 36 -126.5t104 -49.5l-7 -162h-20q-143 0 -241 -10t-208 -35q24 141 41 305t17 248q0 82 -28 116.5t-87 34.5q-82 0 -162 -49 q-16 -177 -16 -334q0 -147 14 -276q-70 0 -127 -6.5t-135 -21.5t-88 -17q68 403 68 1198q0 94 -34.5 140.5t-107.5 52.5z" />
<glyph unicode="i" horiz-adv-x="616" d="M27 694l6 162q231 8 475 70q-57 -349 -57 -574q0 -96 37.5 -143t101.5 -47l-6 -162h-23q-280 0 -450 -41q3 23 13 90t14 94.5t11.5 84.5t10.5 93t5.5 84t2.5 91q0 99 -33.5 145.5t-107.5 52.5zM164 1235q0 87 51 131.5t123 44.5q71 0 122.5 -45t51.5 -131 q0 -82 -49.5 -134t-124.5 -52t-124.5 52t-49.5 134z" />
<glyph unicode="j" horiz-adv-x="591" d="M-168 -401q0 12 1.5 22.5t2.5 19t5 19t6 16t8.5 15.5t8.5 14t10.5 14t10.5 12.5t11.5 13.5t11.5 13q75 -43 135 -43q52 0 74 46.5t28 148.5q21 423 21 586q0 99 -33.5 145.5t-107.5 52.5l6 162q231 8 475 70q-37 -230 -51 -799l-2 -107q-4 -134 -77 -269.5t-178 -219.5 t-200 -84q-79 0 -122.5 39.5t-43.5 112.5zM162 1235q0 87 51 131.5t123 44.5q71 0 122.5 -45t51.5 -131q0 -82 -49.5 -134t-124.5 -52t-124.5 52t-49.5 134z" />
<glyph unicode="k" horiz-adv-x="1089" d="M12 1346l6 161q111 5 250 25t221 45l-77 -1047q36 67 61 109.5t58 93t62.5 81.5t65 59t75 40.5t83.5 12.5q79 0 127.5 -51t48.5 -123q0 -91 -65 -156q-42 25 -99 25q-139 0 -213 -97l119 -153q80 -106 144 -162t129 -70l-9 -139q-68 -23 -137 -23q-213 0 -366 218 l-82 114q-4 -164 -4 -223v-86q-170 0 -320 -41q29 315 46.5 646.5t17.5 547.5q0 94 -34.5 140.5t-107.5 52.5z" />
<glyph unicode="l" horiz-adv-x="587" d="M12 1346l6 161q111 5 250 25t221 45q-33 -264 -49 -531.5t-17 -364.5t-1 -304q0 -87 35.5 -151t103.5 -64l-6 -162h-23q-278 0 -446 -41q68 513 68 1194q0 94 -34.5 140.5t-107.5 52.5z" />
<glyph unicode="m" horiz-adv-x="1667" d="M20 694l7 162q211 9 417 70l-38 -199q83 99 177 149t183 50q165 0 217 -156q156 156 295 156q124 0 186 -75t62 -247q-4 -112 -10 -170q-7 -72 -7 -93v-7q-1 -8 -1 -16q0 -60 34 -105q38 -51 105 -51l-7 -162h-20q-148 0 -245 -8.5t-204 -32.5q26 139 43 305 q17 169 19 291q0 46 -22.5 75t-67.5 29q-57 0 -144 -49q-15 -73 -17 -274v-50q0 -168 15 -286q-207 0 -342 -41q18 134 31.5 308.5t13.5 287.5q0 47 -22.5 75.5t-67.5 28.5q-33 0 -76.5 -13.5t-72.5 -35.5q-10 -150 -10 -310v-29q1 -175 8 -271q-90 0 -189 -12.5t-161 -28.5 q26 128 39.5 283t13.5 254t-34 145.5t-108 52.5z" />
<glyph unicode="n" horiz-adv-x="1175" d="M20 694l7 162q186 7 417 70l-38 -199q82 91 170.5 145t197.5 54q128 0 194 -82t66 -240q0 -50 -9 -152t-9 -114q0 -78 35 -127t104 -49l-6 -162h-21q-150 0 -245 -8.5t-203 -32.5q24 141 40.5 302.5t16.5 246.5q0 82 -27.5 116.5t-86.5 34.5q-82 0 -162 -49 q-8 -92 -11 -250q-1 -37 -1 -76q0 -129 8 -284q-184 0 -348 -41q26 128 39.5 283t13.5 254q0 95 -32.5 143t-109.5 55z" />
<glyph unicode="o" horiz-adv-x="1050" d="M39 414q0 133 62.5 249t183 189.5t272.5 73.5q223 0 335 -116.5t112 -305.5q0 -109 -41.5 -207.5t-111 -168.5t-163 -111.5t-194.5 -41.5q-99 0 -177 23.5t-129.5 63.5t-85.5 97t-48.5 120t-14.5 135zM348 449q0 -111 49.5 -181.5t120.5 -70.5q76 0 126 70t50 182 q0 119 -49.5 188.5t-126.5 69.5q-72 0 -121 -70t-49 -188z" />
<glyph unicode="p" horiz-adv-x="1110" d="M18 694l7 162q210 9 413 70l-37 -193q159 193 357 193q77 0 136.5 -30.5t95 -83t53.5 -116.5t18 -137q0 -141 -44.5 -254.5t-119 -184t-167.5 -108t-195 -37.5q-11 0 -52 2.5t-55 2.5l-2 -93q0 -226 139 -233l-6 -162h-22q-270 0 -451 -45q74 656 74 1049 q0 97 -32.5 144.5t-109.5 53.5zM434 197q62 -15 119 -15q83 0 141 86.5t58 214.5q0 83 -36.5 129.5t-97.5 46.5q-76 0 -161 -49q-14 -148 -17 -268z" />
<glyph unicode="q" horiz-adv-x="1054" d="M37 362q0 162 81.5 292t219.5 201t303 71q205 0 346 -58q-27 -244 -42 -523.5t-15 -479.5q0 -86 35.5 -146.5t103.5 -64.5l-6 -162h-27q-265 0 -446 -45q43 385 53 604q-101 -76 -235 -76q-77 0 -142.5 23t-117.5 68.5t-81.5 121.5t-29.5 174zM346 391q0 -90 45.5 -136 t108.5 -46q65 0 149 70l17 415h-37q-118 0 -200.5 -84.5t-82.5 -218.5z" />
<glyph unicode="r" horiz-adv-x="897" d="M20 694l7 162q211 9 417 70l-38 -199q62 91 141.5 145t152.5 54q85 0 131 -47.5t46 -133.5q0 -59 -21.5 -98.5t-62.5 -73.5q-33 30 -84 50t-99 20q-34 0 -78.5 -8t-68.5 -19q-14 -124 -14 -342q0 -184 10 -274q-200 0 -350 -41q26 128 39.5 283t13.5 254t-34 145.5 t-108 52.5z" />
<glyph unicode="s" horiz-adv-x="921" d="M37 176q0 65 38 108t107 62q138 -166 283 -166q35 0 58.5 16.5t23.5 41.5q0 12 -12 23t-35.5 22t-45.5 19.5t-55 20.5t-51 19q-152 61 -219.5 123.5t-67.5 163.5q0 54 25.5 104t77 94.5t144 71.5t212.5 27q158 0 253 -51t95 -144q0 -63 -37.5 -113t-101.5 -67 q-44 40 -65 58.5t-64 50.5t-81 46.5t-75 14.5q-32 0 -50.5 -14t-18.5 -37q0 -36 144 -91q4 -2 6.5 -3t6.5 -2.5t7 -2.5l26 -10q163 -67 229 -131t66 -162q0 -44 -17.5 -86t-55 -79.5t-91.5 -66t-132.5 -45t-172.5 -16.5q-164 0 -259 51.5t-95 149.5z" />
<glyph unicode="t" horiz-adv-x="782" d="M0 745l6 156h164q0 49 2 124.5t2 117.5l328 78q-22 -149 -35 -320q90 0 260 25l-33 -238l-241 8q-15 -231 -15 -338q0 -69 32 -98t73 -29q57 0 112 37l82 -137q-67 -70 -165 -114t-191 -44q-61 0 -106 16.5t-70.5 43t-41 67t-20 80t-4.5 90.5q0 41 4 110.5t10.5 176.5 t10.5 172z" />
<glyph unicode="u" horiz-adv-x="1183" d="M18 690l7 162q85 3 174.5 16t140 24t143.5 34q-24 -124 -39.5 -289t-15.5 -272q0 -123 131 -123q76 0 148 47q8 73 8 334q0 192 -6 258q184 0 348 45q-28 -153 -40.5 -313.5t-12.5 -256.5q0 -182 153 -194l-6 -162h-14q-181 0 -365 -41l39 209q-58 -74 -173.5 -133.5 t-227.5 -59.5q-125 0 -202 79t-77 229q0 46 7 129t7 118q0 65 -33 109t-94 51z" />
<glyph unicode="v" horiz-adv-x="1028" d="M10 901h350q67 -275 185 -668q58 96 90.5 202.5t32.5 182.5q0 122 -70 230q52 44 91.5 61t98.5 17q185 0 185 -191q0 -138 -94 -330t-279 -405h-297q-72 275 -137.5 482.5t-155.5 418.5z" />
<glyph unicode="w" d="M10 901h334l117 -575l201 575h178l188 -651q88 183 88 350q0 123 -78 248q51 41 92.5 59.5t100.5 18.5q86 0 138 -56t52 -157q0 -291 -354 -713l-233 -41l-142 457l-145 -416l-271 -41q-143 560 -208 770q-30 96 -58 172z" />
<glyph unicode="x" horiz-adv-x="1026" d="M14 901h394q92 -156 190 -313q22 19 34.5 52t12.5 62q0 84 -61 158q92 66 204 66q87 0 133 -48.5t46 -119.5q0 -95 -69 -172.5t-191 -155.5q70 -100 160 -225t145 -205h-398q-29 47 -90 152.5t-98 162.5q-57 -60 -57 -127q0 -81 63 -147q-96 -66 -203 -66q-86 0 -130 46 t-44 129q0 90 74 176t188 147z" />
<glyph unicode="y" horiz-adv-x="1044" d="M-82 -385q0 50 25 98t61 72q66 -49 141 -49q72 0 132.5 44t93.5 105q-104 329 -369 1016h363q36 -159 102.5 -389t105.5 -332q91 212 91 361q0 186 -74 307q53 41 97 59.5t101 18.5q87 0 139 -50t52 -151q0 -164 -117.5 -411t-333.5 -545q-100 -141 -212 -231.5 t-218 -90.5q-88 0 -134 46t-46 122z" />
<glyph unicode="z" horiz-adv-x="1032" d="M41 152q137 132 286.5 300.5t217.5 268.5q-71 0 -126 -14.5t-93.5 -43t-64 -59t-50.5 -74.5q-47 14 -94 70.5t-47 122.5q0 93 64.5 148t174.5 55q61 0 189.5 -16.5t167.5 -16.5q112 0 202 33l103 -195q-70 -61 -148.5 -148t-177 -205.5t-149.5 -176.5q78 0 134.5 11 t96 34.5t64.5 50t53 68.5q52 -30 86.5 -84t34.5 -113q0 -88 -64 -140.5t-174 -52.5q-62 0 -182.5 19.5t-186.5 19.5q-54 0 -106.5 -11.5t-78.5 -20.5t-28 -7z" />
<glyph unicode="{" horiz-adv-x="688" d="M39 444l4 172l78 33q70 28 88 100t18 269q0 85 20.5 155t66.5 132.5t129.5 108t201.5 69.5l43 -144l-78 -39q-60 -30 -75 -78.5t-15 -168.5v-80q0 -56 -3 -98t-14.5 -96.5t-31.5 -96.5t-57.5 -84t-89.5 -72q97 -59 132.5 -149t35.5 -209q0 -43 -6.5 -133t-6.5 -139 q0 -54 15 -86.5t65 -59.5l72 -37l-53 -143q-210 43 -299 150.5t-89 267.5q0 31 6.5 108.5t6.5 120.5q0 81 -16 122.5t-74 68.5z" />
<glyph unicode="|" horiz-adv-x="462" d="M131 -401v1955h201v-1955h-201z" />
<glyph unicode="}" horiz-adv-x="688" d="M-4 -287l78 39q59 32 74.5 81t15.5 167v80q0 57 2.5 99t14 96.5t31.5 95.5t57.5 83t90.5 72q-167 96 -167 359q0 43 6 133t6 139q0 54 -15 86.5t-65 59.5l-72 36l53 144q108 -22 185.5 -63t120.5 -96.5t62.5 -118.5t19.5 -140q0 -31 -6.5 -108.5t-6.5 -120.5 q0 -81 16 -122.5t74 -68.5l74 -37l-4 -172l-78 -33q-70 -31 -88 -101t-18 -267q0 -85 -20.5 -155t-66.5 -132.5t-129.5 -108t-201.5 -69.5z" />
<glyph unicode="~" horiz-adv-x="1024" d="M61 498q21 43 47 83.5t60 81t75.5 65t82.5 24.5q69 0 210.5 -55.5t190.5 -55.5q41 0 90 53q22 22 47 54l99 -78q-25 -47 -47.5 -83t-57 -78t-75 -65.5t-83.5 -23.5q-69 0 -210.5 55t-190.5 55q-35 0 -90 -55q-33 -37 -45 -55z" />
<glyph unicode="&#xa1;" horiz-adv-x="555" d="M76 -510q44 290 74 608q15 147 24 279h201l8 -279q0 -211 29 -608q-5 0 -65.5 2t-102.5 2q-40 0 -100 -2t-68 -2zM113 739q0 82 50 134.5t124 52.5t124 -52.5t50 -134.5q0 -87 -51 -131.5t-123 -44.5q-70 0 -122 45t-52 131z" />
<glyph unicode="&#xa2;" horiz-adv-x="948" d="M39 406q0 175 96 311.5t260 185.5v195h232l-13 -176q125 -12 208 -79t83 -153q0 -194 -289 -194q-3 62 -12 104.5t-34 74.5t-66 32q-72 0 -114 -69.5t-42 -188.5q0 -124 67 -185t185 -61q126 0 236 45l61 -129q-132 -111 -317 -135v-215h-232l12 219q-151 29 -236 140 t-85 278z" />
<glyph unicode="&#xa3;" horiz-adv-x="1157" d="M41 100q129 129 177 247.5t48 270.5q0 20 -4 56l-145 16l6 187h98q-22 73 -22 149q0 91 54 170t139.5 129t188.5 78.5t205 28.5q145 0 217 -54.5t72 -154.5q0 -90 -57 -141t-162 -56q-13 97 -63.5 157t-135.5 60q-147 0 -147 -184q0 -106 18 -182q38 2 110.5 4t115.5 3.5 t88 5t65 7.5l-80 -244q-61 -6 -135 -6q-82 0 -123 2q1 -13 3.5 -35.5t2.5 -35.5q0 -92 -41 -171.5t-110 -166.5q30 18 51 28q68 29 123 29q59 0 162 -35t137 -35q33 0 62.5 16t76.5 52l101 -141q-41 -41 -62.5 -60.5t-66.5 -53.5t-90.5 -49.5t-94.5 -15.5q-53 0 -117.5 20.5 t-114.5 45t-110.5 45t-105.5 20.5q-49 0 -80 -24l-123 -123z" />
<glyph unicode="&#xa4;" horiz-adv-x="1443" d="M61 225l177 174q-88 141 -88 299q0 165 92 310l-181 180l160 160l180 -181q144 93 297 93q162 0 306 -93l180 181l159 -160l-180 -180q94 -143 94 -310q0 -160 -90 -299l176 -174l-159 -159l-172 172q-139 -97 -314 -97q-160 0 -305 97l-172 -172zM377 705 q0 -136 95.5 -236t229.5 -100q135 0 231.5 100t96.5 236q0 139 -96 238t-232 99q-135 0 -230 -99.5t-95 -237.5z" />
<glyph unicode="&#xa5;" horiz-adv-x="1581" d="M41 1202l8 195q187 -17 338 -17q133 0 346 17l-10 -195q-74 -8 -166 -12l242 -424h39l131 225q55 89 55 137q0 52 -74 66l-47 8l8 195q150 -17 291 -17q157 0 307 17l-8 -193q-26 -6 -58.5 -8t-47.5 -4l-252 -361h209l-6 -172q-33 -2 -105 -2q-141 0 -221 -2l-100 -143 h421l-6 -172h-121l-296 -4q7 -76 38 -104t91 -37l38 -7l-8 -194l-96 8q-236 8 -238 8q-203 0 -348 -16l8 194l54 7q99 6 112 6l9 127q-148 -2 -408 -21l8 205h381l-80 133q-265 -15 -295 -18l9 204h172l-148 244q-67 113 -147 123z" />
<glyph unicode="&#xa6;" horiz-adv-x="489" d="M143 295h203v-696h-203v696zM143 858v696h203v-696h-203z" />
<glyph unicode="&#xa7;" horiz-adv-x="935" d="M47 809q0 79 20.5 164t62 167t98 147t136 105t168.5 40q115 0 173.5 -44.5t58.5 -117.5q0 -57 -47.5 -105t-149.5 -59q-22 151 -100 151q-25 0 -45.5 -21t-20.5 -54q0 -50 33 -108.5t107 -155.5q50 -66 79 -106t71 -102.5t66 -111t48.5 -108t35.5 -119.5t11 -121 q0 -85 -23 -179t-70 -184t-110 -162.5t-149.5 -116.5t-182.5 -44q-114 0 -173.5 45.5t-59.5 118.5q0 57 49.5 107t155.5 61q7 -81 36 -119.5t62 -38.5q36 0 58 25t22 69q0 73 -40.5 152.5t-129.5 197.5q-68 93 -107 155t-75.5 139.5t-52 157t-15.5 175.5zM229 866 q0 -108 43 -207.5t117 -209.5q40 -61 94.5 -141t79 -117t47.5 -80t31 -76q10 49 10 121q0 108 -42.5 208t-116.5 209q-40 61 -94 141.5t-78 117t-47 79.5t-33 76q-11 -54 -11 -121z" />
<glyph unicode="&#xa8;" horiz-adv-x="870" d="M102 1257q0 68 40 116t106 48q59 0 98 -40t39 -111t-38.5 -119.5t-104.5 -48.5q-60 0 -100 41t-40 114zM485 1257q0 68 41 116t107 48q59 0 97 -40t38 -111t-39 -119.5t-106 -48.5q-59 0 -98.5 41t-39.5 114z" />
<glyph unicode="&#xa9;" horiz-adv-x="1619" d="M80 696q0 150 58 285.5t156.5 234t234.5 156.5t286 58t285.5 -58t233.5 -156.5t156 -234t58 -285.5q0 -200 -98 -368.5t-266.5 -266.5t-368.5 -98t-369 98t-267.5 266.5t-98.5 368.5zM152 696q0 -134 53 -257t142.5 -212t212 -141.5t255.5 -52.5q178 0 330.5 89t242 242 t89.5 332q0 134 -53 257t-142 212t-211.5 142t-255.5 53t-255.5 -53t-212 -142t-142.5 -212t-53 -257zM381 688q0 137 65 239t175 154t249 52q125 0 269 -33l-6 -262h-162v8q0 32 -4.5 55t-18.5 47.5t-44 37.5t-75 13q-91 0 -154 -75.5t-63 -208.5q0 -79 26 -138t70.5 -92 t96 -49t108.5 -16q123 0 193 24l33 -120q-150 -52 -297 -52q-130 0 -233 46.5t-165.5 142t-62.5 227.5z" />
<glyph unicode="&#xaa;" horiz-adv-x="880" d="M117 1024q0 234 426 256v31q0 42 -24.5 64t-69.5 22q-25 0 -50 -7.5t-52 -31.5t-38 -62q-162 0 -162 105q0 57 50 98.5t118 59.5t140 18q313 0 313 -248q0 -32 -8 -133.5t-8 -118.5q0 -57 53 -57q25 0 45 10l61 -104q-84 -84 -188 -84q-128 0 -158 119 q-86 -119 -239 -119q-102 0 -155.5 53t-53.5 129zM340 1057q0 -49 61 -49q47 0 88 36t48 105h-13q-38 0 -78 -8.5t-73 -30.5t-33 -53z" />
<glyph unicode="&#xab;" horiz-adv-x="995" d="M41 524l539 465l88 -86l-303 -379l274 -379l-88 -86zM463 524l368 353l66 -66l-188 -287l168 -288l-68 -66z" />
<glyph unicode="&#xac;" horiz-adv-x="1105" d="M109 549v188h880v-413h-188v225h-692z" />
<glyph unicode="&#xad;" horiz-adv-x="776" d="M102 389l7 229h563l-6 -229h-564z" />
<glyph unicode="&#xae;" horiz-adv-x="1089" d="M86 958q0 196 138 334t333 138q127 0 235.5 -63t172 -171.5t63.5 -237.5t-63.5 -237.5t-172 -171t-235.5 -62.5q-195 0 -333 137.5t-138 333.5zM143 956q0 -111 56 -206.5t151 -151t205 -55.5q172 0 294 121.5t122 291.5q0 169 -122.5 291.5t-293.5 122.5 q-167 0 -289.5 -122.5t-122.5 -291.5zM291 696l4 76q14 0 20 2q28 4 45 4q11 165 11 322q0 28 -7.5 43t-15 18t-29.5 10l-14 5l2 75q14 -2 39 -2q23 -2 72 -2q22 0 74 3t81 3q99 0 152 -43.5t53 -122.5q0 -101 -98 -147l37 -66q28 -53 60 -80.5t59 -27.5l-5 -68 q-4 -2 -14 -2q-8 -2 -35 -2q-59 0 -103.5 30t-84.5 101l-47 86h-47q-2 -23 -2 -63q0 -38 12.5 -52.5t40.5 -19.5l14 -4l-4 -76q-25 0 -39 2q-50 4 -94 4q-80 0 -137 -6zM502 995q8 -2 28 -2q48 0 76.5 22t28.5 64t-29 63t-74 21h-22q-7 -139 -8 -168z" />
<glyph unicode="&#xaf;" horiz-adv-x="1181" d="M262 1108l6 188h566l-7 -188h-565z" />
<glyph unicode="&#xb0;" horiz-adv-x="735" d="M102 1151q0 119 82.5 200t206.5 81q119 0 200 -81t81 -200q0 -124 -81 -206.5t-200 -82.5q-125 0 -207 82t-82 207zM262 1151q0 -55 35 -91t94 -36q53 0 87 36t34 91q0 53 -35 88t-86 35q-59 0 -94 -34t-35 -89z" />
<glyph unicode="&#xb1;" horiz-adv-x="1157" d="M104 59v189h943v-189h-943zM104 737v189h377v377h189v-377h377v-189h-377v-377h-189v377h-377z" />
<glyph unicode="&#xb2;" horiz-adv-x="712" d="M80 909q22 23 72.5 74.5t77 79.5t65.5 73.5t59.5 76t36 66t15.5 64.5q0 43 -20.5 69t-61.5 26q-33 0 -56.5 -25t-23.5 -65q0 -7 4 -27q-30 -23 -68 -23t-63 23t-25 65q0 86 75 138.5t183 52.5q113 0 181.5 -54.5t68.5 -154.5q0 -91 -78.5 -185t-247.5 -233h117 q81 0 117 57q7 10 18 32l4 8l17 32l90 -14l-33 -258h-487z" />
<glyph unicode="&#xb3;" horiz-adv-x="675" d="M92 915q0 63 64 99q44 -44 82.5 -62t91.5 -18q51 0 79.5 28.5t28.5 84.5q0 44 -27 71t-71 27q-36 0 -88 -21l-35 103l59 22q43 14 79 48t36 75q0 25 -15 40t-46 15q-69 0 -142 -61l-65 78q63 63 125 98t147 35q93 0 141 -42t48 -112q0 -47 -32.5 -92.5t-76.5 -66.5 q64 -8 107 -55.5t43 -118.5q0 -120 -104 -206.5t-236 -86.5q-96 0 -144.5 32t-48.5 86z" />
<glyph unicode="&#xb4;" horiz-adv-x="643" d="M102 1186l252 379q34 -34 96 -85t91 -65l-330 -323z" />
<glyph unicode="&#xb5;" horiz-adv-x="1163" d="M68 -334q0 95 30.5 447t30.5 538q0 116 -6 230q176 0 340 45q-55 -354 -55 -557q0 -127 131 -127q67 0 147 47q0 17 4 136t4 198q0 170 -6 258q184 0 348 45q-53 -310 -53 -570q0 -181 154 -194l-7 -162h-14q-180 0 -364 -41l39 209q-61 -78 -152 -135.5t-182 -57.5 q-124 0 -193 86q-2 -25 -2 -67q0 -121 24.5 -200.5t62.5 -117.5t97 -59q-26 -68 -73 -119t-117 -51q-83 0 -135.5 50t-52.5 169z" />
<glyph unicode="&#xb6;" horiz-adv-x="1163" d="M29 1069q0 63 19.5 119t58 102.5t103.5 73.5t148 27q54 0 188 -5.5t216 -5.5q173 0 305 17l-8 -215q-132 -13 -148 -13l-57 -1683h-199l58 1683h-131l-60 -1683h-198l45 1288h-33q-80 0 -141.5 25.5t-96.5 68.5t-52 94t-17 107z" />
<glyph unicode="&#xb7;" horiz-adv-x="532" d="M96 717q0 87 51 131.5t123 44.5q70 0 122 -45t52 -131q0 -82 -50 -134.5t-124 -52.5t-124 52.5t-50 134.5z" />
<glyph unicode="&#xb8;" horiz-adv-x="604" d="M102 -356q0 56 54 102q65 -61 141 -61q55 0 55 47q0 36 -44.5 55.5t-114.5 19.5q27 97 45 228h137l-21 -107q68 -20 108 -57t40 -104q0 -96 -77.5 -162t-191.5 -66q-63 0 -97 29.5t-34 75.5z" />
<glyph unicode="&#xb9;" horiz-adv-x="585" d="M86 1407q30 17 57.5 35t57.5 40.5t43.5 32.5t45.5 36l32 26l116 -39q-16 -102 -16 -524q0 -54 16 -74t51 -25l23 -2l-4 -106l-68 4q-117 6 -121 6q-104 0 -192 -10l6 117l29 4q7 0 27 1t32 1q15 255 15 420l-95 -52z" />
<glyph unicode="&#xba;" horiz-adv-x="880" d="M104 1178q0 103 46.5 193.5t136.5 148t202 57.5q164 0 249 -91.5t85 -238.5q0 -170 -113.5 -289.5t-267.5 -119.5q-91 0 -158.5 27t-105.5 75.5t-56 107.5t-18 130zM358 1206q0 -74 29.5 -116.5t77.5 -42.5q45 0 74.5 43t29.5 116q0 74 -29.5 118t-74.5 44 q-48 0 -77.5 -44t-29.5 -118z" />
<glyph unicode="&#xbb;" horiz-adv-x="995" d="M94 238l191 286l-168 289l67 66l346 -355l-368 -352zM326 145l303 379l-275 379l88 86l510 -465l-538 -465z" />
<glyph unicode="&#xbc;" horiz-adv-x="1499" d="M94 1221q30 17 57.5 35t57.5 40.5t43.5 32.5t45.5 36l32 26l116 -39q-16 -102 -16 -525q0 -54 16.5 -73.5t51.5 -24.5l22 -2l-4 -106l-67 4q-117 6 -121 6q-105 0 -193 -10l6 116l29 4q7 0 27 1t32 1q15 255 15 420l-94 -51zM164 68l1001 1380l129 -109l-1001 -1380z M795 213l2 119l385 436l118 -39q-14 -163 -14 -387l92 6l37 4l-37 -139h-94v-8q0 -28 4 -45.5t16.5 -27.5t20.5 -13.5t29 -9.5l20 -5l-4 -106l-67 4l-123 6q-105 0 -189 -10l4 117l29 4q8 0 27.5 1t31.5 1l7 92h-295zM942 332q50 0 152 4q0 32 1 89t1 75z" />
<glyph unicode="&#xbd;" horiz-adv-x="1544" d="M94 1221q30 17 57.5 35t57.5 40.5t43.5 32.5t45.5 36l32 26l116 -39q-16 -102 -16 -525q0 -54 16.5 -73.5t51.5 -24.5l22 -2l-4 -106l-67 4q-117 6 -121 6q-105 0 -193 -10l6 116l29 4q7 0 27 1t32 1q15 255 15 420l-94 -51zM164 68l1001 1380l129 -109l-1001 -1380z M918 102q20 21 72 74.5t77.5 80t65.5 73t59.5 76.5t35 66t15.5 65q0 43 -20.5 68.5t-61.5 25.5q-33 0 -56.5 -25t-23.5 -65q0 -7 4 -27q-28 -22 -67 -22q-38 0 -63 23t-25 65q0 86 75 138t183 52q113 0 181.5 -54.5t68.5 -154.5q0 -91 -78.5 -185t-247.5 -233h117 q32 0 55.5 7t38.5 22t22.5 27t18.5 33q3 5 4 8l16 32l91 -14l-33 -258h-488z" />
<glyph unicode="&#xbe;" horiz-adv-x="1560" d="M92 729q0 62 64 98q43 -43 82 -61t92 -18q51 0 79.5 28t28.5 84q0 44 -27 71t-71 27q-38 0 -88 -20l-35 102l59 23q43 14 79 48t36 75q0 25 -15 40t-46 15q-69 0 -142 -61l-65 77q63 63 125 98.5t147 35.5q93 0 141 -42t48 -112q0 -47 -32.5 -93t-76.5 -67 q64 -8 107 -55.5t43 -118.5q0 -120 -104 -206.5t-236 -86.5q-96 0 -144.5 32.5t-48.5 86.5zM231 68l1002 1380l129 -109l-1002 -1380zM856 215l2 119l385 436l119 -39q-14 -163 -14 -387l92 6l37 4l-37 -139h-94v-8q0 -28 4 -45.5t16 -27.5t20 -13.5t29 -9.5l21 -5l-4 -106 l-68 4l-123 6q-104 0 -188 -10l4 117l28 4q8 0 28 1t32 1l6 92h-295zM1004 334q49 0 151 4q0 32 1 89t1 75z" />
<glyph unicode="&#xbf;" horiz-adv-x="792" d="M33 -252q0 68 22 126.5t57.5 98.5t78.5 74t85.5 58t78 43.5t57.5 38.5t22 36q0 43 -74 43q-99 0 -159 -28v8q0 58 19 109.5t65.5 88.5t113.5 37q86 0 139.5 -53t53.5 -149q0 -109 -57 -198.5t-173 -191.5l-18 -18l-19.5 -19.5t-15.5 -17t-15 -21t-9.5 -20.5t-8.5 -25.5 t-2 -27.5q0 -32 20.5 -54t61.5 -22t69 32t28 95q0 31 -9 68q46 14 97 14q74 0 116.5 -37.5t42.5 -107.5q0 -75 -48 -135t-122 -91.5t-157 -31.5q-155 0 -247.5 80.5t-92.5 197.5zM238 739q0 82 50 134.5t124 52.5t124 -52.5t50 -134.5q0 -87 -51 -131.5t-123 -44.5 q-70 0 -122 45t-52 131z" />
<glyph unicode="&#xc0;" d="M-31 -6l8 194l29 5q7 1 23 2.5t33 3t34 2.5l529 1190l256 41l381 -1006q32 -83 61.5 -129t53 -62.5t61.5 -29.5l47 -17l-8 -194q-176 16 -328 16q-158 0 -358 -16l8 194q117 13 166 13l-64 207q-180 -3 -446 -19q-27 -70 -27 -110t20.5 -59t63.5 -25l39 -7l-8 -194 q-4 0 -30.5 3.5t-43.5 4.5q-196 8 -215 8q-142 0 -285 -16zM432 1733q18 23 71 101t66 95l351 -301l-86 -125zM539 635h292l-118 385h-41z" />
<glyph unicode="&#xc1;" d="M-31 -6l8 194l29 5q7 1 23 2.5t33 3t34 2.5l529 1190l256 41l381 -1006q32 -83 61.5 -129t53 -62.5t61.5 -29.5l47 -17l-8 -194q-176 16 -328 16q-158 0 -358 -16l8 194q117 13 166 13l-64 207q-180 -3 -446 -19q-27 -70 -27 -110t20.5 -59t63.5 -25l39 -7l-8 -194 q-4 0 -30.5 3.5t-43.5 4.5q-196 8 -215 8q-142 0 -285 -16zM539 635h292l-118 385h-41zM698 1618l326 317q27 -41 76 -103.5t74 -80.5l-390 -248z" />
<glyph unicode="&#xc2;" d="M-31 -6l8 194l29 5q7 1 23 2.5t33 3t34 2.5l529 1190l256 41l381 -1006q32 -83 61.5 -129t53 -62.5t61.5 -29.5l47 -17l-8 -194q-176 16 -328 16q-158 0 -358 -16l8 194q117 13 166 13l-64 207q-180 -3 -446 -19q-27 -70 -27 -110t20.5 -59t63.5 -25l39 -7l-8 -194 q-4 0 -30.5 3.5t-43.5 4.5q-196 8 -215 8q-142 0 -285 -16zM453 1606l348 356l289 -356l-105 -103l-207 166l-225 -166zM539 635h292l-118 385h-41z" />
<glyph unicode="&#xc3;" d="M-31 -6l8 194l29 5q7 1 23 2.5t33 3t34 2.5l529 1190l256 41l381 -1006q32 -83 61.5 -129t53 -62.5t61.5 -29.5l47 -17l-8 -194q-176 16 -328 16q-158 0 -358 -16l8 194q117 13 166 13l-64 207q-180 -3 -446 -19q-27 -70 -27 -110t20.5 -59t63.5 -25l39 -7l-8 -194 q-4 0 -30.5 3.5t-43.5 4.5q-196 8 -215 8q-142 0 -285 -16zM399 1624q21 43 47 83.5t60 81t75.5 65t82.5 24.5q45 0 104.5 -28t110 -55.5t73.5 -27.5q36 0 86 54q13 13 41 53l99 -78q-26 -49 -48.5 -84t-57 -77.5t-74.5 -65.5t-83 -23q-45 0 -104.5 28t-110 55.5t-73.5 27.5 q-37 0 -84 -55q-24 -27 -41 -56zM539 635h292l-118 385h-41z" />
<glyph unicode="&#xc4;" d="M-31 -6l8 194l29 5q7 1 23 2.5t33 3t34 2.5l529 1190l256 41l381 -1006q32 -83 61.5 -129t53 -62.5t61.5 -29.5l47 -17l-8 -194q-176 16 -328 16q-158 0 -358 -16l8 194q117 13 166 13l-64 207q-180 -3 -446 -19q-27 -70 -27 -110t20.5 -59t63.5 -25l39 -7l-8 -194 q-4 0 -30.5 3.5t-43.5 4.5q-196 8 -215 8q-142 0 -285 -16zM449 1702q0 68 40 116t105 48q59 0 98 -41t39 -111q0 -71 -38.5 -119.5t-104.5 -48.5q-60 0 -99.5 41t-39.5 115zM539 635h292l-118 385h-41zM831 1702q0 68 41 116t107 48q59 0 97 -41t38 -111q0 -71 -39 -119.5 t-106 -48.5q-59 0 -98.5 41.5t-39.5 114.5z" />
<glyph unicode="&#xc5;" d="M-31 -6l8 194l29 5q7 1 23 2.5t33 3t34 2.5l529 1190l256 41l381 -1006q32 -83 61.5 -129t53 -62.5t61.5 -29.5l47 -17l-8 -194q-176 16 -328 16q-158 0 -358 -16l8 194q117 13 166 13l-64 207q-180 -3 -446 -19q-27 -70 -27 -110t20.5 -59t63.5 -25l39 -7l-8 -194 q-4 0 -30.5 3.5t-43.5 4.5q-196 8 -215 8q-142 0 -285 -16zM520 1716q0 103 78.5 178.5t202.5 75.5q113 0 172 -60t59 -149q0 -110 -82 -187t-196 -77q-119 0 -176.5 64.5t-57.5 154.5zM539 635h292l-118 385h-41zM676 1733q0 -45 26 -78t76 -33q47 0 73 28.5t26 82.5 q0 44 -25.5 78t-75.5 34q-48 0 -74 -31.5t-26 -80.5z" />
<glyph unicode="&#xc6;" horiz-adv-x="2054" d="M-55 -6l8 192q15 2 38 6t40.5 6.5t36.5 2.5l505 813q21 34 21 65q0 52 -43 74l-115 68l8 176q236 -23 746 -23h137q265 0 645 23l-30 -471h-232l-6 55q-8 81 -46 123t-122 49l-246 25l-12 -373l395 16l-10 -248l-393 27l-13 -383l240 14q111 4 158.5 59t73.5 189h239 l-59 -499q-341 28 -713 28q-225 0 -455 -14l9 194l61 7q99 6 104 6q7 69 11 207q-3 0 -163 -7.5t-263 -15.5q-21 -71 -21 -109q0 -39 16.5 -57t51.5 -24l33 -7l-9 -194q-126 14 -333 14q-146 0 -293 -14zM633 635h303q2 73 6.5 264t7.5 256h-41z" />
<glyph unicode="&#xc7;" horiz-adv-x="1404" d="M78 670q0 237 102.5 410.5t285 262.5t423.5 89q39 0 76 -1.5t65 -3.5t62 -6.5t52.5 -7t52.5 -9.5t46 -9.5t48 -10.5t44 -10l-16 -448h-252v14q0 270 -248 270q-74 0 -141 -32t-120.5 -92t-85.5 -156t-32 -215q0 -109 29 -196.5t78 -145.5t116.5 -96.5t141.5 -55 t156 -16.5q182 0 317 43l55 -203q-254 -86 -491 -86q-38 0 -56 2l-6 -33q148 -37 148 -161q0 -96 -77.5 -162t-191.5 -66q-63 0 -97 29.5t-34 75.5q0 56 54 102q65 -61 141 -61q55 0 55 47q0 36 -45 55.5t-115 19.5q24 97 35 168q-271 45 -423 223t-152 472z" />
<glyph unicode="&#xc8;" horiz-adv-x="1384" d="M72 -6l8 194l59 7q105 6 107 6q11 136 19.5 399.5t8.5 411.5q0 101 -31.5 138.5t-97.5 45.5l-39 6l9 195q236 -23 542 -23q267 0 646 23l-31 -471h-232l-6 55q-13 83 -47.5 123.5t-120.5 48.5l-245 25l-13 -373l396 16l-11 -248l-393 27l-12 -383l239 14q113 7 159.5 62 t72.5 186h239l-59 -499q-341 28 -713 28q-230 0 -454 -14zM428 1733q18 23 71 101t66 95l350 -301l-86 -125z" />
<glyph unicode="&#xc9;" horiz-adv-x="1384" d="M72 -6l8 194l59 7q105 6 107 6q11 136 19.5 399.5t8.5 411.5q0 101 -31.5 138.5t-97.5 45.5l-39 6l9 195q236 -23 542 -23q267 0 646 23l-31 -471h-232l-6 55q-13 83 -47.5 123.5t-120.5 48.5l-245 25l-13 -373l396 16l-11 -248l-393 27l-12 -383l239 14q113 7 159.5 62 t72.5 186h239l-59 -499q-341 28 -713 28q-230 0 -454 -14zM565 1618l326 317q28 -42 76 -104t73 -80l-389 -248z" />
<glyph unicode="&#xca;" horiz-adv-x="1384" d="M72 -6l8 194l59 7q105 6 107 6q11 136 19.5 399.5t8.5 411.5q0 101 -31.5 138.5t-97.5 45.5l-39 6l9 195q236 -23 542 -23q267 0 646 23l-31 -471h-232l-6 55q-13 83 -47.5 123.5t-120.5 48.5l-245 25l-13 -373l396 16l-11 -248l-393 27l-12 -383l239 14q113 7 159.5 62 t72.5 186h239l-59 -499q-341 28 -713 28q-230 0 -454 -14zM436 1606l348 356l289 -356l-104 -103l-207 166l-225 -166z" />
<glyph unicode="&#xcb;" horiz-adv-x="1384" d="M72 -6l8 194l59 7q105 6 107 6q11 136 19.5 399.5t8.5 411.5q0 101 -31.5 138.5t-97.5 45.5l-39 6l9 195q236 -23 542 -23q267 0 646 23l-31 -471h-232l-6 55q-13 83 -47.5 123.5t-120.5 48.5l-245 25l-13 -373l396 16l-11 -248l-393 27l-12 -383l239 14q113 7 159.5 62 t72.5 186h239l-59 -499q-341 28 -713 28q-230 0 -454 -14zM426 1702q0 68 40 116t105 48q59 0 98.5 -41t39.5 -111q0 -71 -39 -119.5t-105 -48.5q-60 0 -99.5 41t-39.5 115zM809 1702q0 68 40.5 116t106.5 48q59 0 97.5 -41t38.5 -111t-39.5 -119t-106.5 -49 q-58 0 -97.5 41.5t-39.5 114.5z" />
<glyph unicode="&#xcc;" horiz-adv-x="858" d="M72 -6l8 194l53 7q99 6 113 6q11 164 19.5 417t8.5 394q0 101 -31.5 138.5t-97.5 45.5l-39 6l9 195l98 -8q86 -9 238 -9q192 0 346 17l-9 -195l-55 -6q-93 -6 -110 -6q-12 -171 -20.5 -421.5t-8.5 -389.5q0 -102 31 -139t98 -45l39 -7l-8 -194l-99 8q-236 8 -237 8 q-201 0 -346 -16zM137 1733q18 23 71 101t66 95l351 -301l-86 -125z" />
<glyph unicode="&#xcd;" horiz-adv-x="858" d="M72 -6l8 194l53 7q99 6 113 6q11 164 19.5 417t8.5 394q0 101 -31.5 138.5t-97.5 45.5l-39 6l9 195l98 -8q86 -9 238 -9q192 0 346 17l-9 -195l-55 -6q-93 -6 -110 -6q-12 -171 -20.5 -421.5t-8.5 -389.5q0 -102 31 -139t98 -45l39 -7l-8 -194l-99 8q-236 8 -237 8 q-201 0 -346 -16zM305 1618l326 317q28 -42 76 -104t73 -80l-389 -248z" />
<glyph unicode="&#xce;" horiz-adv-x="858" d="M72 -6l8 194l53 7q99 6 113 6q11 164 19.5 417t8.5 394q0 101 -31.5 138.5t-97.5 45.5l-39 6l9 195l98 -8q86 -9 238 -9q192 0 346 17l-9 -195l-55 -6q-93 -6 -110 -6q-12 -171 -20.5 -421.5t-8.5 -389.5q0 -102 31 -139t98 -45l39 -7l-8 -194l-99 8q-236 8 -237 8 q-201 0 -346 -16zM137 1606l348 356l289 -356l-104 -103l-207 166l-225 -166z" />
<glyph unicode="&#xcf;" horiz-adv-x="858" d="M72 -6l8 194l53 7q99 6 113 6q11 164 19.5 417t8.5 394q0 101 -31.5 138.5t-97.5 45.5l-39 6l9 195l98 -8q86 -9 238 -9q192 0 346 17l-9 -195l-55 -6q-93 -6 -110 -6q-12 -171 -20.5 -421.5t-8.5 -389.5q0 -102 31 -139t98 -45l39 -7l-8 -194l-99 8q-236 8 -237 8 q-201 0 -346 -16zM135 1702q0 68 40 116t106 48q59 0 98 -41t39 -111q0 -71 -39 -119.5t-105 -48.5q-60 0 -99.5 41t-39.5 115zM518 1702q0 68 41 116t107 48q59 0 97 -41t38 -111t-39.5 -119t-106.5 -49q-58 0 -97.5 41.5t-39.5 114.5z" />
<glyph unicode="&#xd0;" horiz-adv-x="1619" d="M70 571l10 258h192q2 72 2 183q0 101 -31.5 138.5t-97.5 45.5l-39 6l9 195q78 -10 92 -11q65 -8 160 -8q76 0 231 11.5t250 11.5q327 0 514.5 -183t187.5 -499q0 -66 -10 -131.5t-35 -139t-63.5 -138t-101 -124.5t-142 -103.5t-191 -69t-243.5 -25.5q-63 0 -201 11 t-217 11q-96 0 -274 -16l8 194q97 13 166 13q4 57 9.5 190.5t8.5 194.5q-44 -1 -194 -15zM590 338q0 -69 42.5 -95t168.5 -26q45 0 92 12.5t100.5 48.5t94.5 90.5t68.5 148t27.5 212.5q0 58 -10 115t-38.5 120t-73 110.5t-120 78.5t-172.5 31q-121 0 -154 -6l-12 -349h234 l-7 -225q-18 -2 -63 -2q-102 0 -170 -2q-5 -213 -8 -259v-3z" />
<glyph unicode="&#xd1;" horiz-adv-x="1648" d="M53 -6l8 194l45 7q81 6 103 6l22 643q13 336 13 479v68l198 41l725 -889l37 6l-16 438q-4 116 -39.5 158.5t-108.5 50.5l-47 6l8 195l95 -8q86 -9 190 -9q166 0 316 17l-9 -193l-43 -6q-81 -6 -100 -6l-25 -635q-10 -248 -10 -555l-207 -43l-723 889l-36 -6l18 -436 q2 -50 9.5 -85.5t18.5 -57.5t30.5 -36t39 -20.5t49.5 -11.5l48 -7l-9 -194l-94 8q-12 0 -81.5 4t-108.5 4q-175 0 -316 -16zM526 1624q21 43 47 83.5t60 81t75.5 65t82.5 24.5q45 0 104.5 -28t110 -55.5t73.5 -27.5q36 0 86 54q13 13 41 53l99 -78q-26 -49 -48.5 -84 t-57 -77.5t-74.5 -65.5t-83 -23q-45 0 -104.5 28t-110 55.5t-73.5 27.5q-37 0 -84 -55q-24 -27 -41 -56z" />
<glyph unicode="&#xd2;" horiz-adv-x="1595" d="M76 688q0 155 55 291t153.5 236.5t244.5 158.5t319 58q129 0 240 -37.5t191.5 -104t137.5 -155.5t85 -193t28 -217q0 -207 -95.5 -382.5t-263.5 -279.5t-370 -104q-145 0 -265.5 38t-204.5 104.5t-142 158.5t-85.5 199.5t-27.5 228.5zM440 735q0 -151 44.5 -276.5 t130.5 -201t196 -75.5q86 0 154.5 42t110 111t63.5 152.5t22 171.5q0 149 -44 273.5t-129.5 201t-196.5 76.5q-69 0 -127.5 -28t-99 -75.5t-69 -109t-42 -128t-13.5 -134.5zM557 1733q18 23 71 101t66 95l350 -301l-86 -125z" />
<glyph unicode="&#xd3;" horiz-adv-x="1595" d="M76 688q0 155 55 291t153.5 236.5t244.5 158.5t319 58q129 0 240 -37.5t191.5 -104t137.5 -155.5t85 -193t28 -217q0 -207 -95.5 -382.5t-263.5 -279.5t-370 -104q-145 0 -265.5 38t-204.5 104.5t-142 158.5t-85.5 199.5t-27.5 228.5zM440 735q0 -151 44.5 -276.5 t130.5 -201t196 -75.5q86 0 154.5 42t110 111t63.5 152.5t22 171.5q0 149 -44 273.5t-129.5 201t-196.5 76.5q-69 0 -127.5 -28t-99 -75.5t-69 -109t-42 -128t-13.5 -134.5zM668 1618l325 317q27 -41 76 -103.5t74 -80.5l-389 -248z" />
<glyph unicode="&#xd4;" horiz-adv-x="1595" d="M76 688q0 155 55 291t153.5 236.5t244.5 158.5t319 58q129 0 240 -37.5t191.5 -104t137.5 -155.5t85 -193t28 -217q0 -207 -95.5 -382.5t-263.5 -279.5t-370 -104q-145 0 -265.5 38t-204.5 104.5t-142 158.5t-85.5 199.5t-27.5 228.5zM440 735q0 -151 44.5 -276.5 t130.5 -201t196 -75.5q86 0 154.5 42t110 111t63.5 152.5t22 171.5q0 149 -44 273.5t-129.5 201t-196.5 76.5q-69 0 -127.5 -28t-99 -75.5t-69 -109t-42 -128t-13.5 -134.5zM522 1606l348 356l289 -356l-104 -103l-207 166l-225 -166z" />
<glyph unicode="&#xd5;" horiz-adv-x="1595" d="M76 688q0 155 55 291t153.5 236.5t244.5 158.5t319 58q129 0 240 -37.5t191.5 -104t137.5 -155.5t85 -193t28 -217q0 -207 -95.5 -382.5t-263.5 -279.5t-370 -104q-145 0 -265.5 38t-204.5 104.5t-142 158.5t-85.5 199.5t-27.5 228.5zM440 735q0 -151 44.5 -276.5 t130.5 -201t196 -75.5q86 0 154.5 42t110 111t63.5 152.5t22 171.5q0 149 -44 273.5t-129.5 201t-196.5 76.5q-69 0 -127.5 -28t-99 -75.5t-69 -109t-42 -128t-13.5 -134.5zM471 1624q21 43 46.5 83.5t60 81t75.5 65t82 24.5q45 0 105 -28t110.5 -55.5t73.5 -27.5 q36 0 86 54q13 13 41 53l98 -78q-27 -49 -48.5 -83.5t-56 -77.5t-74.5 -66t-83 -23q-45 0 -105 28t-110.5 55.5t-73.5 27.5q-37 0 -84 -55q-24 -27 -41 -56z" />
<glyph unicode="&#xd6;" horiz-adv-x="1595" d="M76 688q0 155 55 291t153.5 236.5t244.5 158.5t319 58q129 0 240 -37.5t191.5 -104t137.5 -155.5t85 -193t28 -217q0 -207 -95.5 -382.5t-263.5 -279.5t-370 -104q-145 0 -265.5 38t-204.5 104.5t-142 158.5t-85.5 199.5t-27.5 228.5zM440 735q0 -151 44.5 -276.5 t130.5 -201t196 -75.5q86 0 154.5 42t110 111t63.5 152.5t22 171.5q0 149 -44 273.5t-129.5 201t-196.5 76.5q-69 0 -127.5 -28t-99 -75.5t-69 -109t-42 -128t-13.5 -134.5zM506 1702q0 68 40 116t105 48q59 0 98 -41t39 -111q0 -71 -38.5 -119.5t-104.5 -48.5 q-60 0 -99.5 41t-39.5 115zM889 1702q0 68 40.5 116t106.5 48q59 0 97 -41t38 -111q0 -71 -39 -119.5t-106 -48.5q-58 0 -97.5 41.5t-39.5 114.5z" />
<glyph unicode="&#xd7;" horiz-adv-x="1075" d="M98 338l310 309l-310 309l133 134l310 -310l307 310l133 -134l-309 -309l309 -309l-133 -133l-307 309l-310 -309z" />
<glyph unicode="&#xd8;" horiz-adv-x="1595" d="M76 688q0 155 55 291t153.5 236.5t244.5 158.5t319 58q169 0 311 -68l121 182l127 -88l-119 -178q117 -97 179.5 -242.5t62.5 -312.5q0 -207 -95.5 -382.5t-263.5 -279.5t-370 -104q-189 0 -348 68l-144 -215l-123 84l140 210q-124 95 -187 248t-63 334zM440 735 q0 -199 74 -344l485 731q-91 88 -208 88q-69 0 -127.5 -28t-99 -75.5t-69 -109t-42 -128t-13.5 -134.5zM610 262q86 -80 201 -80q86 0 154.5 42t110 111t63.5 152.5t22 171.5q0 185 -67 328z" />
<glyph unicode="&#xd9;" horiz-adv-x="1593" d="M57 1202l9 195l94 -8q86 -9 233 -9q192 0 346 17l-8 -195l-53 -6q-99 -6 -111 -6q-20 -499 -20 -676q0 -169 80 -250.5t211 -81.5q139 0 211 84.5t77 233.5q7 450 7 520q0 50 -9 83.5t-27.5 52.5t-40 27.5t-52.5 12.5l-41 6l8 195q8 -1 34 -4t44 -4q77 -9 219 -9 q182 0 334 17l-9 -195l-55 -6q-93 -6 -111 -6l-55 -680q-48 -549 -598 -549q-261 0 -413 131.5t-152 356.5q0 50 8 290t8 273q0 101 -31 138.5t-98 45.5zM532 1733q18 24 72 101.5t66 94.5l350 -301l-86 -125z" />
<glyph unicode="&#xda;" horiz-adv-x="1593" d="M57 1202l9 195l94 -8q86 -9 233 -9q192 0 346 17l-8 -195l-53 -6q-99 -6 -111 -6q-20 -499 -20 -676q0 -169 80 -250.5t211 -81.5q139 0 211 84.5t77 233.5q7 450 7 520q0 50 -9 83.5t-27.5 52.5t-40 27.5t-52.5 12.5l-41 6l8 195q8 -1 34 -4t44 -4q77 -9 219 -9 q182 0 334 17l-9 -195l-55 -6q-93 -6 -111 -6l-55 -680q-48 -549 -598 -549q-261 0 -413 131.5t-152 356.5q0 50 8 290t8 273q0 101 -31 138.5t-98 45.5zM739 1618l326 317q28 -42 76 -104t73 -80l-389 -248z" />
<glyph unicode="&#xdb;" horiz-adv-x="1593" d="M57 1202l9 195l94 -8q86 -9 233 -9q192 0 346 17l-8 -195l-53 -6q-99 -6 -111 -6q-20 -499 -20 -676q0 -169 80 -250.5t211 -81.5q139 0 211 84.5t77 233.5q7 450 7 520q0 50 -9 83.5t-27.5 52.5t-40 27.5t-52.5 12.5l-41 6l8 195q8 -1 34 -4t44 -4q77 -9 219 -9 q182 0 334 17l-9 -195l-55 -6q-93 -6 -111 -6l-55 -680q-48 -549 -598 -549q-261 0 -413 131.5t-152 356.5q0 50 8 290t8 273q0 101 -31 138.5t-98 45.5zM545 1606l348 356l289 -356l-105 -103l-207 166l-225 -166z" />
<glyph unicode="&#xdc;" horiz-adv-x="1593" d="M57 1202l9 195l94 -8q86 -9 233 -9q192 0 346 17l-8 -195l-53 -6q-99 -6 -111 -6q-20 -499 -20 -676q0 -169 80 -250.5t211 -81.5q139 0 211 84.5t77 233.5q7 450 7 520q0 50 -9 83.5t-27.5 52.5t-40 27.5t-52.5 12.5l-41 6l8 195q8 -1 34 -4t44 -4q77 -9 219 -9 q182 0 334 17l-9 -195l-55 -6q-93 -6 -111 -6l-55 -680q-48 -549 -598 -549q-261 0 -413 131.5t-152 356.5q0 50 8 290t8 273q0 101 -31 138.5t-98 45.5zM549 1702q0 68 40 116t105 48q59 0 98 -41t39 -111q0 -71 -38.5 -119.5t-104.5 -48.5q-60 0 -99.5 41t-39.5 115z M932 1702q0 68 40.5 116t106.5 48q59 0 97 -41t38 -111q0 -71 -39 -119.5t-106 -48.5q-58 0 -97.5 41.5t-39.5 114.5z" />
<glyph unicode="&#xdd;" horiz-adv-x="1443" d="M14 1202l9 195q187 -17 337 -17q134 0 347 17l-11 -195q-74 -8 -166 -12l242 -424h39l131 225q55 89 55 137q0 30 -18 45t-55 21l-47 8l8 195q150 -17 291 -17q157 0 307 17l-8 -193q-24 -6 -58 -8t-49 -4l-475 -682q0 -45 -1 -79.5t-1 -51.5q0 -102 31 -139t98 -45 l39 -7l-8 -194l-97 8q-236 8 -237 8q-203 0 -348 -16l8 194l53 7q99 6 113 6q3 32 7.5 133.5t6.5 138.5l-367 602q-69 116 -147 123zM672 1618l325 317q27 -41 76 -103.5t74 -80.5l-389 -248z" />
<glyph unicode="&#xde;" horiz-adv-x="1282" d="M72 -6l8 194l53 7q93 6 111 6q11 164 19.5 417t8.5 394q0 101 -30.5 138.5t-96.5 45.5l-39 6l9 195l96 -8q88 -9 238 -9q194 0 348 17l-9 -195l-55 -6q-99 -6 -112 -6l-3 -92q51 6 158 6q235 0 351 -94t116 -271q0 -107 -41.5 -191.5t-109.5 -134.5t-148.5 -76 t-165.5 -26q-54 0 -108 13l10 233q36 -4 49 -4q150 0 150 164q0 143 -207 143q-36 0 -64 -4q-11 -183 -14 -477q0 -102 31 -139t98 -45l39 -7l-8 -194l-99 8q-20 1 -64.5 3t-88 3.5t-86.5 1.5q-199 0 -344 -16z" />
<glyph unicode="&#xdf;" horiz-adv-x="1394" d="M-16 647l10 250h211q8 176 56.5 308.5t129 212.5t182 119.5t224.5 39.5q131 0 233 -41t163.5 -112.5t92.5 -162.5t31 -196q0 -140 -57 -309q-81 37 -209 37q-60 0 -91.5 -17.5t-31.5 -44.5q0 -14 10.5 -26.5t32.5 -24t44.5 -21.5t58 -25t61.5 -28q40 -19 72.5 -38 t70.5 -48.5t63.5 -61t42.5 -75.5t17 -92q0 -66 -27 -121.5t-81.5 -100t-144.5 -69.5t-208 -25q-163 0 -261.5 52t-98.5 149q0 126 145 166q134 -160 283 -160q82 0 82 51q0 15 -11 28.5t-34.5 27t-44.5 23.5t-55.5 25.5t-53.5 24.5q-145 72 -212 144t-67 170q0 45 12.5 89 t41.5 87t71.5 75t109 52t148.5 20q0 12 2 42t2 40q0 132 -56 204.5t-155 72.5q-123 0 -197.5 -108t-78.5 -324q-3 -176 -9 -402.5t-10 -369t-4 -154.5h-331q35 416 43 680z" />
<glyph unicode="&#xe0;" horiz-adv-x="1069" d="M55 213q0 77 38.5 137.5t96.5 95t135 57t144.5 30.5t134.5 8q2 18 2 41q0 55 -31.5 83.5t-89.5 28.5q-34 0 -66.5 -9.5t-66.5 -40.5t-49 -79q-22 0 -38 1t-43.5 4.5t-46.5 12t-38.5 22.5t-30 38t-10.5 55q0 56 37 101t96 72t127 41t136 14q195 0 299 -74.5t104 -245.5 q0 -43 -10.5 -173.5t-10.5 -151.5q0 -39 20.5 -57.5t49.5 -18.5q25 0 57 14l80 -135q-109 -109 -243 -109q-81 0 -132 41.5t-71 112.5q-113 -154 -311 -154q-129 0 -199 69.5t-70 168.5zM215 1403q30 23 91.5 78.5t89.5 83.5l270 -373l-111 -100zM344 254q0 -30 20 -47 t58 -17q63 0 114 47t62 136h-16q-50 0 -101.5 -10.5t-94 -39t-42.5 -69.5z" />
<glyph unicode="&#xe1;" horiz-adv-x="1069" d="M55 213q0 77 38.5 137.5t96.5 95t135 57t144.5 30.5t134.5 8q2 18 2 41q0 55 -31.5 83.5t-89.5 28.5q-34 0 -66.5 -9.5t-66.5 -40.5t-49 -79q-22 0 -38 1t-43.5 4.5t-46.5 12t-38.5 22.5t-30 38t-10.5 55q0 56 37 101t96 72t127 41t136 14q195 0 299 -74.5t104 -245.5 q0 -43 -10.5 -173.5t-10.5 -151.5q0 -39 20.5 -57.5t49.5 -18.5q25 0 57 14l80 -135q-109 -109 -243 -109q-81 0 -132 41.5t-71 112.5q-113 -154 -311 -154q-129 0 -199 69.5t-70 168.5zM344 254q0 -30 20 -47t58 -17q63 0 114 47t62 136h-16q-50 0 -101.5 -10.5t-94 -39 t-42.5 -69.5zM375 1186l252 379q35 -35 96 -86t90 -64l-330 -323z" />
<glyph unicode="&#xe2;" horiz-adv-x="1069" d="M55 213q0 77 38.5 137.5t96.5 95t135 57t144.5 30.5t134.5 8q2 18 2 41q0 55 -31.5 83.5t-89.5 28.5q-34 0 -66.5 -9.5t-66.5 -40.5t-49 -79q-22 0 -38 1t-43.5 4.5t-46.5 12t-38.5 22.5t-30 38t-10.5 55q0 56 37 101t96 72t127 41t136 14q195 0 299 -74.5t104 -245.5 q0 -43 -10.5 -173.5t-10.5 -151.5q0 -39 20.5 -57.5t49.5 -18.5q25 0 57 14l80 -135q-109 -109 -243 -109q-81 0 -132 41.5t-71 112.5q-113 -154 -311 -154q-129 0 -199 69.5t-70 168.5zM204 1194l340 371l297 -371l-104 -102l-207 182l-225 -182zM344 254q0 -30 20 -47 t58 -17q63 0 114 47t62 136h-16q-50 0 -101.5 -10.5t-94 -39t-42.5 -69.5z" />
<glyph unicode="&#xe3;" horiz-adv-x="1069" d="M55 213q0 77 38.5 137.5t96.5 95t135 57t144.5 30.5t134.5 8q2 18 2 41q0 55 -31.5 83.5t-89.5 28.5q-34 0 -66.5 -9.5t-66.5 -40.5t-49 -79q-22 0 -38 1t-43.5 4.5t-46.5 12t-38.5 22.5t-30 38t-10.5 55q0 56 37 101t96 72t127 41t136 14q195 0 299 -74.5t104 -245.5 q0 -43 -10.5 -173.5t-10.5 -151.5q0 -39 20.5 -57.5t49.5 -18.5q25 0 57 14l80 -135q-109 -109 -243 -109q-81 0 -132 41.5t-71 112.5q-113 -154 -311 -154q-129 0 -199 69.5t-70 168.5zM141 1169q21 43 47 83.5t60 81t75.5 65t82.5 24.5q45 0 104.5 -27.5t110 -55 t73.5 -27.5q37 0 86 53q13 13 41 53l99 -78q-26 -49 -48.5 -84t-57 -77t-74.5 -65t-83 -23q-45 0 -104.5 27.5t-110 55t-73.5 27.5q-37 0 -84 -55q-25 -29 -41 -55zM344 254q0 -30 20 -47t58 -17q63 0 114 47t62 136h-16q-50 0 -101.5 -10.5t-94 -39t-42.5 -69.5z" />
<glyph unicode="&#xe4;" horiz-adv-x="1069" d="M55 213q0 77 38.5 137.5t96.5 95t135 57t144.5 30.5t134.5 8q2 18 2 41q0 55 -31.5 83.5t-89.5 28.5q-34 0 -66.5 -9.5t-66.5 -40.5t-49 -79q-22 0 -38 1t-43.5 4.5t-46.5 12t-38.5 22.5t-30 38t-10.5 55q0 56 37 101t96 72t127 41t136 14q195 0 299 -74.5t104 -245.5 q0 -43 -10.5 -173.5t-10.5 -151.5q0 -39 20.5 -57.5t49.5 -18.5q25 0 57 14l80 -135q-109 -109 -243 -109q-81 0 -132 41.5t-71 112.5q-113 -154 -311 -154q-129 0 -199 69.5t-70 168.5zM192 1257q0 68 40 116t106 48q59 0 98 -40t39 -111t-38.5 -119.5t-104.5 -48.5 q-60 0 -100 41t-40 114zM344 254q0 -30 20 -47t58 -17q63 0 114 47t62 136h-16q-50 0 -101.5 -10.5t-94 -39t-42.5 -69.5zM575 1257q0 68 41 116t107 48q59 0 97 -40t38 -111t-39 -119.5t-106 -48.5q-59 0 -98.5 41t-39.5 114z" />
<glyph unicode="&#xe5;" horiz-adv-x="1069" d="M55 213q0 77 38.5 137.5t96.5 95t135 57t144.5 30.5t134.5 8q2 18 2 41q0 55 -31.5 83.5t-89.5 28.5q-34 0 -66.5 -9.5t-66.5 -40.5t-49 -79q-22 0 -38 1t-43.5 4.5t-46.5 12t-38.5 22.5t-30 38t-10.5 55q0 56 37 101t96 72t127 41t136 14q195 0 299 -74.5t104 -245.5 q0 -43 -10.5 -173.5t-10.5 -151.5q0 -39 20.5 -57.5t49.5 -18.5q25 0 57 14l80 -135q-109 -109 -243 -109q-81 0 -132 41.5t-71 112.5q-113 -154 -311 -154q-129 0 -199 69.5t-70 168.5zM270 1311q0 104 78 179t203 75q114 0 172.5 -59.5t58.5 -149.5q0 -112 -81.5 -188 t-196.5 -76q-119 0 -176.5 64.5t-57.5 154.5zM344 254q0 -30 20 -47t58 -17q63 0 114 47t62 136h-16q-50 0 -101.5 -10.5t-94 -39t-42.5 -69.5zM426 1327q0 -42 26 -76t76 -34q48 0 73.5 28t25.5 82q0 42 -26 77.5t-75 35.5q-48 0 -74 -32t-26 -81z" />
<glyph unicode="&#xe6;" horiz-adv-x="1515" d="M55 213q0 77 38.5 137.5t96.5 95t135 57t144.5 30.5t134.5 8q2 18 2 41q0 55 -31.5 83.5t-89.5 28.5q-34 0 -66.5 -9.5t-66.5 -40.5t-49 -79q-22 0 -38 1t-43.5 4.5t-46.5 12t-38.5 22.5t-30 38t-10.5 55q0 56 37 101t96 72t127 41t136 14q197 0 288 -76q105 76 271 76 q187 0 285 -105.5t98 -267.5q0 -22 -4 -62t-5 -51l-8 -55q-128 -16 -303 -16q-42 0 -131.5 2t-122.5 2q39 -170 248 -170q143 0 235 41l64 -125q-171 -144 -412 -144q-229 0 -350 170q-115 -170 -321 -170q-129 0 -199 69.5t-70 168.5zM344 254q0 -30 20 -47t58 -17 q63 0 114 47t62 136h-16q-50 0 -101.5 -10.5t-94 -39t-42.5 -69.5zM874 539q82 5 172 13.5t99 12.5v15q0 57 -28 92t-81 35q-54 0 -100 -43.5t-62 -124.5z" />
<glyph unicode="&#xe7;" horiz-adv-x="948" d="M39 406q0 144 63 261.5t182 188t273 70.5q147 0 247.5 -68.5t100.5 -167.5q0 -194 -289 -194q-3 62 -12 104.5t-34 74.5t-66 32q-72 0 -114 -69.5t-42 -188.5q0 -124 67 -185t185 -61q126 0 236 45l61 -129q-148 -127 -369 -142l-8 -49q148 -37 148 -161q0 -96 -77 -162 t-192 -66q-63 0 -97 29.5t-34 75.5q0 56 54 102q27 -25 66 -43t75 -18q55 0 55 47q0 36 -45 55.5t-115 19.5q22 93 37 175q-166 20 -261 133.5t-95 290.5z" />
<glyph unicode="&#xe8;" horiz-adv-x="1009" d="M39 406q0 105 32.5 199t92.5 165.5t152 113.5t204 42q193 0 300.5 -102.5t107.5 -270.5q0 -23 -3.5 -63.5t-4.5 -49.5l-9 -55q-128 -16 -317 -16q-42 0 -132 2t-122 2q12 -77 77 -123.5t171 -46.5q134 0 235 41l64 -125q-171 -144 -412 -144q-205 0 -320.5 118 t-115.5 313zM223 1403q30 23 91.5 78.5t89.5 83.5l270 -373l-111 -100zM350 539q248 15 271 26v15q0 57 -28 92t-81 35q-56 0 -101 -43t-61 -125z" />
<glyph unicode="&#xe9;" horiz-adv-x="1009" d="M39 406q0 105 32.5 199t92.5 165.5t152 113.5t204 42q193 0 300.5 -102.5t107.5 -270.5q0 -23 -3.5 -63.5t-4.5 -49.5l-9 -55q-128 -16 -317 -16q-42 0 -132 2t-122 2q12 -77 77 -123.5t171 -46.5q134 0 235 41l64 -125q-171 -144 -412 -144q-205 0 -320.5 118 t-115.5 313zM350 539q248 15 271 26v15q0 57 -28 92t-81 35q-56 0 -101 -43t-61 -125zM391 1186l252 379q35 -35 96 -86t90 -64l-329 -323z" />
<glyph unicode="&#xea;" horiz-adv-x="1009" d="M39 406q0 105 32.5 199t92.5 165.5t152 113.5t204 42q193 0 300.5 -102.5t107.5 -270.5q0 -23 -3.5 -63.5t-4.5 -49.5l-9 -55q-128 -16 -317 -16q-42 0 -132 2t-122 2q12 -77 77 -123.5t171 -46.5q134 0 235 41l64 -125q-171 -144 -412 -144q-205 0 -320.5 118 t-115.5 313zM208 1194l340 371l297 -371l-104 -102l-207 182l-225 -182zM350 539q248 15 271 26v15q0 57 -28 92t-81 35q-56 0 -101 -43t-61 -125z" />
<glyph unicode="&#xeb;" horiz-adv-x="1009" d="M39 406q0 105 32.5 199t92.5 165.5t152 113.5t204 42q193 0 300.5 -102.5t107.5 -270.5q0 -23 -3.5 -63.5t-4.5 -49.5l-9 -55q-128 -16 -317 -16q-42 0 -132 2t-122 2q12 -77 77 -123.5t171 -46.5q134 0 235 41l64 -125q-171 -144 -412 -144q-205 0 -320.5 118 t-115.5 313zM195 1257q0 69 40 116.5t105 47.5q59 0 98 -40t39 -111t-38.5 -119.5t-104.5 -48.5q-60 0 -99.5 40.5t-39.5 114.5zM350 539q248 15 271 26v15q0 57 -28 92t-81 35q-56 0 -101 -43t-61 -125zM578 1257q0 68 40.5 116t106.5 48q59 0 97 -40t38 -111t-39 -119.5 t-106 -48.5q-59 0 -98 41t-39 114z" />
<glyph unicode="&#xec;" horiz-adv-x="616" d="M-60 1403q30 23 91.5 78.5t89.5 83.5l270 -373l-111 -100zM27 694l6 162q231 8 475 70q-57 -349 -57 -574q0 -96 37.5 -143t101.5 -47l-6 -162h-23q-280 0 -450 -41q3 23 13 90t14 94.5t11.5 84.5t10.5 93t5.5 84t2.5 91q0 99 -33.5 145.5t-107.5 52.5z" />
<glyph unicode="&#xed;" horiz-adv-x="616" d="M27 694l6 162q231 8 475 70q-57 -349 -57 -574q0 -96 37.5 -143t101.5 -47l-6 -162h-23q-280 0 -450 -41q3 23 13 90t14 94.5t11.5 84.5t10.5 93t5.5 84t2.5 91q0 99 -33.5 145.5t-107.5 52.5zM201 1186l252 379q35 -35 96 -86t90 -64l-330 -323z" />
<glyph unicode="&#xee;" horiz-adv-x="616" d="M18 1194l340 371l297 -371l-104 -102l-207 182l-225 -182zM27 694l6 162q231 8 475 70q-57 -349 -57 -574q0 -96 37.5 -143t101.5 -47l-6 -162h-23q-280 0 -450 -41q3 23 13 90t14 94.5t11.5 84.5t10.5 93t5.5 84t2.5 91q0 99 -33.5 145.5t-107.5 52.5z" />
<glyph unicode="&#xef;" horiz-adv-x="616" d="M10 1257q0 68 40 116t106 48q59 0 98 -40t39 -111t-38.5 -119.5t-104.5 -48.5q-60 0 -100 41t-40 114zM27 694l6 162q231 8 475 70q-57 -349 -57 -574q0 -96 37.5 -143t101.5 -47l-6 -162h-23q-280 0 -450 -41q3 23 13 90t14 94.5t11.5 84.5t10.5 93t5.5 84t2.5 91 q0 99 -33.5 145.5t-107.5 52.5zM393 1257q0 68 41 116t107 48q59 0 97 -40t38 -111q0 -70 -39.5 -119t-106.5 -49q-59 0 -98 41t-39 114z" />
<glyph unicode="&#xf0;" horiz-adv-x="1073" d="M47 387q0 124 42 227t112.5 170.5t162.5 104.5t193 37q60 0 107 -8q-22 112 -64 202q-183 -84 -278 -145l8 211q60 31 178 80q-90 104 -229 143l6 168q283 0 481 -217q66 23 199 59l49 -127l-154 -57q137 -228 137 -526q0 -217 -58.5 -380.5t-178.5 -258.5t-289 -95 q-194 0 -309 119t-115 293zM356 455q0 -130 44.5 -189t115.5 -59q49 0 82.5 33.5t51.5 99.5t26 142t10 184q-62 26 -147 26q-80 0 -131.5 -66t-51.5 -171z" />
<glyph unicode="&#xf1;" horiz-adv-x="1175" d="M20 694l7 162q186 7 417 70l-38 -199q82 91 170.5 145t197.5 54q128 0 194 -82t66 -240q0 -50 -9 -152t-9 -114q0 -78 35 -127t104 -49l-6 -162h-21q-150 0 -245 -8.5t-203 -32.5q24 141 40.5 302.5t16.5 246.5q0 82 -27.5 116.5t-86.5 34.5q-82 0 -162 -49 q-8 -92 -11 -250.5t7 -359.5q-184 0 -348 -41q26 128 39.5 283t13.5 254q0 95 -32.5 143t-109.5 55zM219 1169q21 43 47 83.5t60 81t75.5 65t82.5 24.5q45 0 104.5 -27.5t110 -55t73.5 -27.5q37 0 86 53q13 13 41 53l99 -78q-26 -49 -48.5 -84t-57 -77t-74.5 -65t-83 -23 q-45 0 -104.5 27.5t-110 55t-73.5 27.5q-37 0 -84 -55q-25 -29 -41 -55z" />
<glyph unicode="&#xf2;" horiz-adv-x="1050" d="M39 414q0 133 62.5 249t183 189.5t272.5 73.5q223 0 335 -116.5t112 -305.5q0 -109 -41.5 -207.5t-111 -168.5t-163 -111.5t-194.5 -41.5q-99 0 -177 23.5t-129.5 63.5t-85.5 97t-48.5 120t-14.5 135zM208 1403q30 23 91.5 78.5t89.5 83.5l270 -373l-111 -100zM348 449 q0 -111 49.5 -181.5t120.5 -70.5q76 0 126 70t50 182q0 119 -49.5 188.5t-126.5 69.5q-72 0 -121 -70t-49 -188z" />
<glyph unicode="&#xf3;" horiz-adv-x="1050" d="M39 414q0 133 62.5 249t183 189.5t272.5 73.5q223 0 335 -116.5t112 -305.5q0 -109 -41.5 -207.5t-111 -168.5t-163 -111.5t-194.5 -41.5q-99 0 -177 23.5t-129.5 63.5t-85.5 97t-48.5 120t-14.5 135zM348 449q0 -111 49.5 -181.5t120.5 -70.5q76 0 126 70t50 182 q0 119 -49.5 188.5t-126.5 69.5q-72 0 -121 -70t-49 -188zM397 1186l252 379q34 -34 96 -85t91 -65l-330 -323z" />
<glyph unicode="&#xf4;" horiz-adv-x="1050" d="M39 414q0 133 62.5 249t183 189.5t272.5 73.5q223 0 335 -116.5t112 -305.5q0 -109 -41.5 -207.5t-111 -168.5t-163 -111.5t-194.5 -41.5q-99 0 -177 23.5t-129.5 63.5t-85.5 97t-48.5 120t-14.5 135zM243 1194l340 371l297 -371l-104 -102l-207 182l-225 -182zM348 449 q0 -111 49.5 -181.5t120.5 -70.5q76 0 126 70t50 182q0 119 -49.5 188.5t-126.5 69.5q-72 0 -121 -70t-49 -188z" />
<glyph unicode="&#xf5;" horiz-adv-x="1050" d="M39 414q0 133 62.5 249t183 189.5t272.5 73.5q223 0 335 -116.5t112 -305.5q0 -109 -41.5 -207.5t-111 -168.5t-163 -111.5t-194.5 -41.5q-99 0 -177 23.5t-129.5 63.5t-85.5 97t-48.5 120t-14.5 135zM162 1169q21 43 46.5 83.5t60 81t75.5 65t82 24.5q45 0 105 -27.5 t110.5 -55t73.5 -27.5q37 0 86 53q13 13 41 53l98 -78q-26 -49 -48.5 -83.5t-56.5 -77t-74 -65.5t-83 -23q-45 0 -105 27.5t-110.5 55t-73.5 27.5q-37 0 -84 -55q-25 -29 -41 -55zM348 449q0 -111 49.5 -181.5t120.5 -70.5q76 0 126 70t50 182q0 119 -49.5 188.5 t-126.5 69.5q-72 0 -121 -70t-49 -188z" />
<glyph unicode="&#xf6;" horiz-adv-x="1050" d="M39 414q0 133 62.5 249t183 189.5t272.5 73.5q223 0 335 -116.5t112 -305.5q0 -109 -41.5 -207.5t-111 -168.5t-163 -111.5t-194.5 -41.5q-99 0 -177 23.5t-129.5 63.5t-85.5 97t-48.5 120t-14.5 135zM215 1257q0 68 40 116t106 48q59 0 98 -40t39 -111t-38.5 -119.5 t-104.5 -48.5q-60 0 -100 41t-40 114zM348 449q0 -111 49.5 -181.5t120.5 -70.5q76 0 126 70t50 182q0 119 -49.5 188.5t-126.5 69.5q-72 0 -121 -70t-49 -188zM598 1257q0 68 41 116t107 48q59 0 97 -40t38 -111t-39 -119.5t-106 -48.5q-59 0 -98.5 41t-39.5 114z" />
<glyph unicode="&#xf7;" horiz-adv-x="1103" d="M82 549v188h942v-188h-942zM377 279q0 76 43 113.5t106 37.5q62 0 107 -37.5t45 -113.5q0 -71 -43.5 -116.5t-108.5 -45.5t-107 45t-42 117zM399 1004q0 76 43.5 113.5t106.5 37.5t107 -37.5t44 -113.5q0 -72 -42.5 -117t-108.5 -45q-65 0 -107.5 45.5t-42.5 116.5z" />
<glyph unicode="&#xf8;" horiz-adv-x="1157" d="M0 -23l166 164q-74 110 -74 273q0 99 37 191.5t102.5 163.5t164.5 114t214 43q168 0 281 -74l137 135l88 -88l-135 -133q76 -107 76 -262q0 -109 -41.5 -207.5t-111 -168.5t-163 -111.5t-194.5 -41.5q-177 0 -293 76l-166 -162zM401 449q0 -53 5 -72l280 274 q-50 56 -115 56q-73 0 -121.5 -70t-48.5 -188zM459 254q39 -57 112 -57q76 0 126.5 70t50.5 182q0 41 -9 81z" />
<glyph unicode="&#xf9;" horiz-adv-x="1183" d="M18 690l7 162q85 3 174.5 16t140 24t143.5 34q-24 -124 -39.5 -289t-15.5 -272q0 -123 131 -123q76 0 148 47q8 73 8 334q0 192 -6 258q184 0 348 45q-28 -153 -40.5 -313.5t-12.5 -256.5q0 -182 153 -194l-6 -162h-14q-181 0 -365 -41l39 209q-58 -74 -173.5 -133.5 t-227.5 -59.5q-125 0 -202 79t-77 229q0 46 7 129t7 118q0 65 -33 109t-94 51zM237 1403q30 23 91.5 78.5t89.5 83.5l270 -373l-111 -100z" />
<glyph unicode="&#xfa;" horiz-adv-x="1183" d="M18 690l7 162q85 3 174.5 16t140 24t143.5 34q-24 -124 -39.5 -289t-15.5 -272q0 -123 131 -123q76 0 148 47q8 73 8 334q0 192 -6 258q184 0 348 45q-28 -153 -40.5 -313.5t-12.5 -256.5q0 -182 153 -194l-6 -162h-14q-181 0 -365 -41l39 209q-58 -74 -173.5 -133.5 t-227.5 -59.5q-125 0 -202 79t-77 229q0 46 7 129t7 118q0 65 -33 109t-94 51zM446 1186l252 379q34 -34 96 -85t91 -65l-330 -323z" />
<glyph unicode="&#xfb;" horiz-adv-x="1183" d="M18 690l7 162q85 3 174.5 16t140 24t143.5 34q-24 -124 -39.5 -289t-15.5 -272q0 -123 131 -123q76 0 148 47q8 73 8 334q0 192 -6 258q184 0 348 45q-28 -153 -40.5 -313.5t-12.5 -256.5q0 -182 153 -194l-6 -162h-14q-181 0 -365 -41l39 209q-58 -74 -173.5 -133.5 t-227.5 -59.5q-125 0 -202 79t-77 229q0 46 7 129t7 118q0 65 -33 109t-94 51zM286 1194l340 371l297 -371l-104 -102l-207 182l-225 -182z" />
<glyph unicode="&#xfc;" horiz-adv-x="1183" d="M18 690l7 162q85 3 174.5 16t140 24t143.5 34q-24 -124 -39.5 -289t-15.5 -272q0 -123 131 -123q76 0 148 47q8 73 8 334q0 192 -6 258q184 0 348 45q-28 -153 -40.5 -313.5t-12.5 -256.5q0 -182 153 -194l-6 -162h-14q-181 0 -365 -41l39 209q-58 -74 -173.5 -133.5 t-227.5 -59.5q-125 0 -202 79t-77 229q0 46 7 129t7 118q0 65 -33 109t-94 51zM268 1257q0 68 40 116t106 48q59 0 98 -40t39 -111t-38.5 -119.5t-104.5 -48.5q-60 0 -100 41t-40 114zM651 1257q0 68 41 116t107 48q59 0 97 -40t38 -111q0 -70 -39.5 -119t-106.5 -49 q-59 0 -98 41t-39 114z" />
<glyph unicode="&#xfd;" horiz-adv-x="1044" d="M-82 -385q0 50 25 98t61 72q66 -49 141 -49q72 0 132.5 44t93.5 105q-104 329 -369 1016h363q36 -159 102.5 -389t105.5 -332q91 212 91 361q0 186 -74 307q53 41 97 59.5t101 18.5q87 0 139 -50t52 -151q0 -164 -117.5 -411t-333.5 -545q-100 -141 -212 -231.5 t-218 -90.5q-88 0 -134 46t-46 122zM391 1186l252 379q34 -34 96 -85t91 -65l-330 -323z" />
<glyph unicode="&#xfe;" horiz-adv-x="1069" d="M12 1339l6 168q108 4 238.5 24.5t214.5 45.5l-111 -844q159 193 353 193q150 0 228.5 -104.5t78.5 -262.5q0 -141 -45.5 -254.5t-121.5 -184t-169.5 -108t-194.5 -37.5q-13 0 -49.5 2.5t-52.5 2.5q-2 -36 -2.5 -56t0.5 -59t5 -62.5t13.5 -54.5t24.5 -48.5t39.5 -31 t56.5 -14.5l-6 -162h-22q-270 0 -451 -45q98 897 98 1727q-2 76 -13 102q-25 56 -118 63zM393 197q62 -15 119 -15q83 0 141 86.5t58 214.5q0 84 -34 130t-95 46q-81 0 -166 -49q-14 -148 -17 -268z" />
<glyph unicode="&#xff;" horiz-adv-x="1044" d="M-82 -385q0 50 25 98t61 72q66 -49 141 -49q72 0 132.5 44t93.5 105q-104 329 -369 1016h363q36 -159 102.5 -389t105.5 -332q91 212 91 361q0 186 -74 307q53 41 97 59.5t101 18.5q87 0 139 -50t52 -151q0 -164 -117.5 -411t-333.5 -545q-100 -141 -212 -231.5 t-218 -90.5q-88 0 -134 46t-46 122zM193 1257q0 69 40 116.5t105 47.5q59 0 98 -40t39 -111t-38.5 -119.5t-104.5 -48.5q-60 0 -99.5 40.5t-39.5 114.5zM575 1257q0 68 41 116t107 48q59 0 97 -40t38 -111t-39 -119.5t-106 -48.5q-59 0 -98.5 41t-39.5 114z" />
<glyph unicode="&#x152;" horiz-adv-x="2185" d="M76 688q0 155 52.5 291t147 236.5t234.5 158.5t307 58q122 0 248 -46q145 -12 393 -12q266 0 645 23l-30 -471h-232l-6 55q-8 81 -46 123t-122 49l-246 25l-16 -373l399 16l-10 -248l-397 27l-6 -377l237 17q111 7 158.5 60.5t73.5 178.5h239l-59 -499q-341 28 -713 28 q-177 0 -336 -8q-109 -41 -225 -41q-137 0 -251.5 38t-194.5 104.5t-135.5 158.5t-82 199.5t-26.5 228.5zM440 735q0 -152 40.5 -276.5t119.5 -200.5t182 -76q77 0 140 42t102 111t59.5 152.5t20.5 171.5q0 149 -40.5 273.5t-119.5 201t-182 76.5q-63 0 -116.5 -28 t-91 -75.5t-63.5 -109t-38.5 -128t-12.5 -134.5z" />
<glyph unicode="&#x153;" horiz-adv-x="1646" d="M39 414q0 133 62.5 249t183 189.5t272.5 73.5q193 0 311 -97q125 97 289 97q193 0 300.5 -102.5t107.5 -270.5q0 -22 -4 -62t-5 -51l-8 -55q-128 -16 -317 -16q-41 0 -131 2t-123 2q13 -75 76 -122.5t176 -47.5q130 0 231 41l64 -125q-171 -144 -412 -144 q-195 0 -309 111q-129 -111 -309 -111q-99 0 -177 23.5t-129.5 63.5t-85.5 97t-48.5 120t-14.5 135zM348 449q0 -111 49.5 -181.5t120.5 -70.5q76 0 126 70t50 182q0 119 -49.5 188.5t-126.5 69.5q-72 0 -121 -70t-49 -188zM987 539q73 4 165.5 13.5t104.5 12.5v15 q0 58 -28 92.5t-80 34.5q-56 0 -101 -43t-61 -125z" />
<glyph unicode="&#x178;" horiz-adv-x="1443" d="M14 1202l9 195q187 -17 337 -17q134 0 347 17l-11 -195q-74 -8 -166 -12l242 -424h39l131 225q55 89 55 137q0 30 -18 45t-55 21l-47 8l8 195q150 -17 291 -17q157 0 307 17l-8 -193q-24 -6 -58 -8t-49 -4l-475 -682q0 -45 -1 -79.5t-1 -51.5q0 -102 31 -139t98 -45 l39 -7l-8 -194l-97 8q-236 8 -237 8q-203 0 -348 -16l8 194l53 7q99 6 113 6q3 32 7.5 133.5t6.5 138.5l-367 602q-69 116 -147 123zM463 1702q0 68 40 116t105 48q59 0 98 -41t39 -111q0 -71 -38.5 -119.5t-104.5 -48.5q-60 0 -99.5 41t-39.5 115zM846 1702q0 68 40.5 116 t106.5 48q59 0 97 -41t38 -111q0 -71 -39 -119.5t-106 -48.5q-58 0 -97.5 41.5t-39.5 114.5z" />
<glyph unicode="&#x2c6;" horiz-adv-x="841" d="M102 1194l340 371l297 -371l-104 -102l-207 182l-225 -182z" />
<glyph unicode="&#x2dc;" horiz-adv-x="978" d="M100 1169q21 43 47 83.5t60 81t75.5 65t82.5 24.5q45 0 104.5 -27.5t110 -55t73.5 -27.5q37 0 86 53q13 13 41 53l99 -78q-26 -49 -48.5 -84t-57 -77t-74.5 -65t-83 -23q-45 0 -104.5 27.5t-110 55t-73.5 27.5q-37 0 -84 -55q-25 -29 -41 -55z" />
<glyph unicode="&#x2000;" horiz-adv-x="985" />
<glyph unicode="&#x2001;" horiz-adv-x="1970" />
<glyph unicode="&#x2002;" horiz-adv-x="985" />
<glyph unicode="&#x2003;" horiz-adv-x="1970" />
<glyph unicode="&#x2004;" horiz-adv-x="656" />
<glyph unicode="&#x2005;" horiz-adv-x="492" />
<glyph unicode="&#x2006;" horiz-adv-x="328" />
<glyph unicode="&#x2007;" horiz-adv-x="328" />
<glyph unicode="&#x2008;" horiz-adv-x="246" />
<glyph unicode="&#x2009;" horiz-adv-x="394" />
<glyph unicode="&#x200a;" horiz-adv-x="109" />
<glyph unicode="&#x2010;" horiz-adv-x="776" d="M102 389l7 229h563l-6 -229h-564z" />
<glyph unicode="&#x2011;" horiz-adv-x="776" d="M102 389l7 229h563l-6 -229h-564z" />
<glyph unicode="&#x2012;" horiz-adv-x="776" d="M102 389l7 229h563l-6 -229h-564z" />
<glyph unicode="&#x2013;" horiz-adv-x="1136" d="M104 410l9 188h911l-6 -188h-914z" />
<glyph unicode="&#x2014;" horiz-adv-x="1480" d="M104 410l9 188h1255l-6 -188h-1258z" />
<glyph unicode="&#x2018;" horiz-adv-x="536" d="M113 1149q0 46 12 95.5t39.5 107.5t81 117t127.5 108l106 -123q-47 -41 -73.5 -95t-26.5 -106q0 -86 96 -141q0 -73 -47.5 -126.5t-130.5 -53.5q-77 0 -130.5 56t-53.5 161z" />
<glyph unicode="&#x2019;" horiz-adv-x="516" d="M102 1055q47 41 74 95t27 105q0 86 -97 142q0 73 48 126.5t131 53.5q77 0 130.5 -56t53.5 -161q0 -46 -12 -95.5t-39.5 -107.5t-81 -117t-127.5 -108z" />
<glyph unicode="&#x201a;" horiz-adv-x="548" d="M70 -184q47 41 73.5 94.5t26.5 105.5q0 87 -96 142q0 73 47.5 126.5t130.5 53.5q77 0 130.5 -56t53.5 -161q0 -46 -12 -95.5t-39.5 -107.5t-81 -117t-127.5 -108z" />
<glyph unicode="&#x201c;" horiz-adv-x="937" d="M113 1149q0 46 12 95.5t39 107.5t81 117t128 108l106 -123q-47 -41 -73.5 -95t-26.5 -106q0 -86 96 -141q0 -73 -47.5 -126.5t-130.5 -53.5q-77 0 -130.5 56t-53.5 161zM514 1149q0 46 12 95.5t39 107.5t81 117t128 108l107 -123q-46 -42 -73.5 -95.5t-27.5 -105.5 q0 -85 97 -141q0 -73 -48 -126.5t-131 -53.5q-77 0 -130.5 56t-53.5 161z" />
<glyph unicode="&#x201d;" horiz-adv-x="917" d="M102 1055q47 41 74 95t27 105q0 86 -97 142q0 73 48 126.5t131 53.5q77 0 130.5 -56t53.5 -161q0 -46 -12 -95.5t-39.5 -107.5t-81 -117t-127.5 -108zM504 1055q47 41 73.5 94.5t26.5 105.5q0 87 -96 142q0 73 47.5 126.5t130.5 53.5q77 0 130.5 -56t53.5 -161 q0 -46 -12 -95.5t-39.5 -107.5t-81 -117t-127.5 -108z" />
<glyph unicode="&#x201e;" horiz-adv-x="950" d="M70 -184q47 41 73.5 94.5t26.5 105.5q0 87 -96 142q0 73 47.5 126.5t130.5 53.5q77 0 130.5 -56t53.5 -161q0 -46 -12 -95.5t-39.5 -107.5t-81 -117t-127.5 -108zM471 -184q45 42 72.5 96t27.5 104q0 87 -96 142q0 72 48.5 126t129.5 54q80 0 132.5 -56t52.5 -161 q0 -46 -12 -95.5t-39.5 -107.5t-81 -117t-127.5 -108z" />
<glyph unicode="&#x2022;" horiz-adv-x="712" d="M143 705q0 108 63.5 164.5t151.5 56.5q90 0 155 -56.5t65 -164.5q0 -102 -62.5 -167t-157.5 -65q-92 0 -153.5 65t-61.5 167z" />
<glyph unicode="&#x202f;" horiz-adv-x="394" />
<glyph unicode="&#x2039;" horiz-adv-x="733" d="M41 524l539 465l88 -86l-303 -379l274 -379l-88 -86z" />
<glyph unicode="&#x203a;" horiz-adv-x="731" d="M61 145l304 379l-275 379l88 86l510 -465l-538 -465z" />
<glyph unicode="&#x205f;" horiz-adv-x="492" />
<glyph unicode="&#x20ac;" horiz-adv-x="1482" d="M43 408l6 204h203q-2 18 -2 58v37l-197 -15l8 205h213q40 169 141 290.5t243 183t313 61.5q45 0 89.5 -3t70.5 -5.5t71 -11t55 -10.5t60.5 -15t52.5 -13l-16 -448h-219v14q0 54 -6.5 95t-25 84t-59.5 67t-102 24q-95 0 -183.5 -85.5t-123.5 -227.5h389l-8 -172h-119 l-285 -6q0 -61 6 -107h394l-6 -172q-29 -2 -97 -2q-141 0 -237 -2q40 -79 106.5 -132t142 -76t160.5 -23q55 0 133 14t109 29l47 -203q-212 -86 -438 -86q-154 0 -284 52t-226 158t-139 255q-121 -3 -240 -16z" />
<glyph unicode="&#x25fc;" horiz-adv-x="921" d="M0 0v922h922v-922h-922z" />
</font>
</defs>
</svg>
