<?xml version="1.0" standalone="no"?>
<!DOCTYPE svg PUBLIC "-//W3C//DTD SVG 1.1//EN" "http://www.w3.org/Graphics/SVG/1.1/DTD/svg11.dtd" >
<svg xmlns="http://www.w3.org/2000/svg">
<metadata></metadata>
<defs>
<font id="simonettaitalic" horiz-adv-x="1568" >
<font-face units-per-em="2048" ascent="1638" descent="-410" />
<missing-glyph horiz-adv-x="446" />
<glyph unicode="&#xfb01;" horiz-adv-x="1032" d="M-215 -522l2 153q91 -33 185 -50t151 -17q57 155 70 426q0 3 24 813q-79 11 -178 31l2 43h178q2 74 8 155q12 147 45 249.5t86.5 161.5t119.5 85t153 26q94 0 198 -22l-6 -150q-184 64 -397 64q-65 -161 -72 -426l-4 -139q106 0 185 2.5t168 7t128 6.5l35 -35 q-43 -338 -43 -784q95 18 170 53l21 -39q-62 -38 -169 -75t-147 -37l-34 34q43 321 43 754l-359 20q-9 -148 -17.5 -460.5t-11.5 -350.5q-19 -267 -114 -394.5t-242 -127.5q-96 0 -178 23z" />
<glyph unicode="&#xfb02;" horiz-adv-x="1091" d="M-215 -522l2 153q91 -33 185 -50t151 -17q57 155 70 426q0 3 24 813q-79 11 -178 31l2 43h178q2 74 8 155q37 522 375 522q65 0 195 -22l110 22l35 -34q-55 -508 -55 -1442q77 10 164 53l20 -39q-58 -39 -163.5 -75.5t-145.5 -36.5l-35 34q55 471 55 1377 q-176 61 -356 61q-64 -156 -72 -432l-4 -139q186 4 252 10l-4 -125q-77 0 -250 18q-21 -719 -29 -807q-19 -267 -114 -394.5t-242 -127.5q-96 0 -178 23z" />
<glyph unicode="&#xfb03;" horiz-adv-x="1521" d="M-215 -522l2 153q91 -33 185 -50t151 -17q57 155 70 426q0 106 6.5 370.5t17.5 442.5v12l-33 4q-128 9 -145 15l4 45h176l6 88q5 118 27 207.5t58.5 149t89.5 96.5t115 53t140 16q49 0 107 -6q29 -3 106 -17q43 43 99 64q71 24 153 24q100 0 199 -22l-6 -150 q-188 64 -398 64q-64 -155 -71 -426l-4 -137l137 4q266 6 344 10l35 -35q-43 -338 -43 -784q95 16 170 53l20 -39q-57 -39 -165.5 -75.5t-149.5 -36.5l-35 34q43 321 43 754q-147 0 -311 8q-33 0 -49 2q0 -14 -5 -147q-9 -370 -16 -484q-12 -335 -109.5 -475.5 t-324.5 -140.5q-27 0 -109 4q-32 2 -94 14q-39 -42 -86 -63q-60 -31 -129 -31q-96 0 -178 23zM260 -309q61 -22 98 -29q135 -31 254 -31q65 157 72 512q1 47 7.5 225t8.5 275l5 141h-9l-188 13q-61 2 -160 10v-23l-6 -149q0 -173 -8.5 -377.5t-14.5 -280.5q-9 -134 -40 -237 zM350 879h99q98 2 260 2l4 90q1 10 2 31.5t2 29.5q9 142 45 250q9 31 14 43q-60 22 -98 31q-131 30 -254 30q-64 -156 -72 -432l-2 -73v-2z" />
<glyph unicode="&#xfb04;" horiz-adv-x="1579" d="M-215 -522l2 153q91 -33 185 -50t151 -17q57 155 70 426q0 106 6.5 370.5t17.5 442.5v12l-43 4q-129 13 -135 15l4 43h176l6 90q5 118 27 207.5t58.5 149t89.5 96.5t115 53t140 16q49 0 107 -6q29 -3 106 -17q43 43 99 64q71 24 153 24q71 0 164 -22l111 22l35 -34 q-56 -518 -56 -1442q76 10 164 53l21 -39q-58 -39 -163.5 -75.5t-146.5 -36.5l-35 34q56 480 56 1377q-93 33 -191 47t-164 14q-63 -158 -71 -432l-4 -137q37 2 98 2q34 1 84 3.5t72 2.5l-4 -125q-74 0 -121 2q-39 0 -133 4q0 -14 -5 -141q-9 -370 -16 -484 q-12 -335 -109.5 -475.5t-324.5 -140.5q-27 0 -109 4q-32 2 -94 14q-39 -42 -86 -63q-60 -31 -129 -31q-96 0 -178 23zM260 -309q61 -22 98 -29q135 -31 254 -31q65 157 72 512q1 47 7.5 225t8.5 275l5 135l-58 4l-174 13q-86 8 -125 10v-21l-6 -149q0 -173 -8.5 -377.5 t-14.5 -280.5q-9 -134 -40 -237zM350 877h27q96 2 252 2q29 2 80 2l4 90q1 10 2 31.5t2 29.5q9 142 45 250q9 31 14 43q-60 22 -98 31q-131 30 -254 30q-64 -156 -72 -432l-2 -73v-4z" />
<glyph horiz-adv-x="0" />
<glyph horiz-adv-x="682" />
<glyph unicode=" "  horiz-adv-x="446" />
<glyph unicode="&#x09;" horiz-adv-x="446" />
<glyph unicode="&#xa0;" horiz-adv-x="446" />
<glyph unicode="!" horiz-adv-x="483" d="M125 16q2 17 10 117q0 27 2 37l146 31l36 -37q-7 -47 -12 -117q-3 -20 0 -35l-145 -32zM170 1391q62 -5 96 -5q28 0 96 5q-22 -145 -75 -658q-24 -266 -27 -327h-57l-6 327q-16 502 -27 658z" />
<glyph unicode="&#x22;" horiz-adv-x="724" d="M113 1391h192l-72 -447h-79zM471 1391h195l-72 -447h-80z" />
<glyph unicode="#" horiz-adv-x="1482" d="M66 369l4 102h315l82 459q-101 -2 -305 -17l4 103h315l68 375h133l-68 -375h365l65 375h134l-68 -375h320l-13 -70h-92q-24 0 -100.5 -1t-126.5 -1l-84 -473h319l-12 -70h-92q-24 0 -101.5 -1t-126.5 -1l-69 -399h-133l69 397l-362 -8l-70 -389h-133l68 385 q-171 -3 -305 -16zM518 471h363l84 471l-365 -6z" />
<glyph unicode="$" horiz-adv-x="980" d="M72 27l24 317h62l16 -174q29 -29 85.5 -60t117.5 -49q48 -10 86 -10l20 590l-43 37q-9 7 -37 27.5t-41 30.5t-40 31.5t-41.5 35.5t-37 37.5t-35.5 41.5t-29 43.5t-24 48.5t-14 51t-6 56q0 96 46 177.5t149 127.5q70 30 182 33l4 135h74l-6 -137q43 -2 125 -14 q100 -16 157 -35l-22 -301h-58l-26 205q-53 38 -115 55q-40 12 -63 14l-19 -532q51 -37 123 -94q209 -159 209 -346q0 -120 -81.5 -220.5t-205.5 -146.5q-29 -12 -76 -22l-6 -201h-71l6 192h-21q-202 0 -368 56zM297 1139q0 -85 45 -146t127 -119q3 -3 11.5 -8.5t11.5 -7.5 l16 488q-39 -3 -74 -15q-63 -19 -100 -69t-37 -123zM537 57q18 5 41 15q74 32 114.5 96t40.5 147q0 105 -100 205q-24 24 -78 70z" />
<glyph unicode="%" horiz-adv-x="1343" d="M94 911q0 58 16 119.5t48.5 118.5t76.5 102t104.5 72t127.5 27q77 0 131 -54q60 -24 176 -24q200 0 332 67l55 76l58 -39l-1004 -1392l-57 47l895 1235q-128 -64 -322 -64q-53 0 -84 2q23 -70 23 -162q0 -69 -25 -143.5t-68.5 -139.5t-113.5 -107t-150 -42 q-58 0 -101.5 25t-68.5 68t-37 95.5t-12 112.5zM207 987q0 -174 98 -280h137q48 27 81.5 102t33.5 168q0 173 -102 278h-136q-47 -34 -79.5 -105t-32.5 -163zM684 301q0 74 26 150.5t72.5 141t118.5 105.5t156 41q57 0 98 -26t63 -71.5t32 -97t10 -112.5q0 -54 -15 -113 t-46 -116t-73 -102t-100 -73t-123 -28q-58 0 -101.5 25t-68.5 68t-37 95.5t-12 112.5zM795 375q0 -168 100 -279h137q48 26 82.5 102t34.5 169q0 173 -105 278h-135q-46 -32 -80 -105.5t-34 -164.5z" />
<glyph unicode="&#x26;" horiz-adv-x="1036" d="M111 346q0 132 65.5 252t192.5 186q-119 104 -119 263q0 71 26.5 137t76 118.5t127 84.5t171.5 32q92 0 142 -45l-25 -246h-45l-10 148q-90 55 -217 55q-27 0 -41 -2q-101 -77 -101 -205q0 -87 48 -165.5t124 -110.5l-4 -51q-68 -13 -120.5 -50t-83.5 -89.5t-46.5 -112.5 t-15.5 -127q0 -100 34 -191t91 -145h180q27 14 49.5 33t39.5 44t30.5 48t23.5 56t16.5 55t12.5 57.5t8.5 52.5t6.5 51l-256 33l2 53q57 -6 168 -6q206 0 368 43l-6 -133h-123q-18 -91 -64 -178.5t-109 -156.5t-144.5 -111.5t-165.5 -42.5q-97 0 -168.5 52.5t-105 134 t-33.5 179.5z" />
<glyph unicode="'" horiz-adv-x="362" d="M113 1391h192l-72 -447h-79z" />
<glyph unicode="(" horiz-adv-x="686" d="M59 498q0 311 168.5 579.5t462.5 423.5l27 -45q-240 -170 -377 -421t-137 -537q0 -251 110.5 -461.5t337.5 -407.5l-26 -45q-566 343 -566 914z" />
<glyph unicode=")" horiz-adv-x="686" d="M-31 -371q237 171 375.5 423t138.5 536q0 250 -111.5 460.5t-338.5 407.5l28 45q564 -347 564 -913q0 -313 -167.5 -580.5t-463.5 -423.5z" />
<glyph unicode="*" horiz-adv-x="956" d="M102 874l326 142l-315 141q44 63 73 119l275 -205l-27 348q46 -4 68 -4q56 0 73 4l-51 -352l293 207q49 -101 64 -123l-322 -133l309 -150l-75 -116l-273 213l23 -355h-23q-4 0 -20 1t-25 1q-42 0 -69 -2l55 353l-293 -209q-23 54 -66 120z" />
<glyph unicode="+" horiz-adv-x="1083" d="M74 598v98h422v422h98v-422h422v-98h-422v-422h-98v422h-422z" />
<glyph unicode="," horiz-adv-x="405" d="M-6 -281q59 90 80.5 171.5t21.5 185.5q0 26 -4 92l154 33l39 -39q-13 -215 -260 -473z" />
<glyph unicode="-" horiz-adv-x="847" d="M135 430l4 115h566l-5 -115h-565z" />
<glyph unicode="." horiz-adv-x="403" d="M88 16q2 17 10 117q0 27 2 37l146 31l37 -37q-9 -61 -13 -117q-3 -20 0 -35l-145 -32z" />
<glyph unicode="/" horiz-adv-x="1017" d="M12 -356l881 1829h111l-881 -1829h-111z" />
<glyph unicode="0" horiz-adv-x="1159" d="M104 662q0 111 17 216t56 204t96.5 173t145.5 119t195 45q110 0 198.5 -54.5t143 -144t83 -198.5t28.5 -225q0 -99 -15.5 -205.5t-52.5 -219t-91 -200.5t-139 -144.5t-189 -56.5q-123 0 -217.5 58.5t-149.5 158t-82 219.5t-27 255zM250 729q0 -86 9 -172.5t33.5 -181 t61 -166t98 -118t138.5 -46.5q61 0 110.5 27t82.5 70t58 105.5t38.5 125t22 138t11 134.5t2.5 123q0 113 -15 205t-37.5 151t-54.5 102.5t-61 65.5t-62.5 35t-53.5 16t-39 3q-71 0 -127.5 -30t-92.5 -82.5t-61.5 -114t-38 -135t-17.5 -134t-5 -121.5z" />
<glyph unicode="1" horiz-adv-x="671" d="M47 1163q107 48 194.5 106.5t178.5 149.5h59l-43 -1317l146 -45v-57l-54 6q-132 8 -151 8q-111 0 -248 -14v57q26 2 56 5.5t50.5 5.5t43.5 2l40 1169q-34 -24 -71 -43q-115 -61 -176 -84z" />
<glyph unicode="2" horiz-adv-x="976" d="M12 39q50 55 148.5 155.5t159 164t139.5 160.5t124.5 174t78 173t32.5 187q0 124 -75 188t-187 64q-75 0 -149.5 -30.5t-128.5 -86.5l-37 39q66 93 171 142.5t216 49.5q150 0 252 -87.5t102 -246.5q0 -165 -147 -378t-518 -584l563 20l84 162l57 -8q-2 -9 -11.5 -44 t-11.5 -43t-8.5 -35.5t-8.5 -37t-7 -32t-7 -36t-4.5 -32.5t-4.5 -37h-803z" />
<glyph unicode="3" horiz-adv-x="989" d="M27 55l88 138q66 -56 145.5 -86.5t157.5 -30.5q140 0 235 98.5t95 290.5q0 124 -73 191t-204 67q-82 0 -152 -25l-16 60l51 16q58 19 109 47t100 71t78 106t29 137q0 81 -53.5 135.5t-151.5 54.5q-83 0 -150 -37.5t-145 -105.5l-39 45q46 43 80 70t86 59t113.5 47.5 t132.5 15.5q134 0 207 -64t73 -171q0 -76 -45.5 -155t-100 -129.5t-106.5 -78.5q159 0 245.5 -86t86.5 -217q0 -113 -55.5 -216t-143.5 -173.5t-198 -112t-217 -41.5q-155 0 -262 80z" />
<glyph unicode="4" horiz-adv-x="1015" d="M14 455l2 61l707 903l59 -33l-26 -831q47 4 155 10l60 6l-47 -116h-172l-13 -353l146 -45v-57l-49 6q-132 8 -150 8q-109 0 -246 -14v57q26 2 57 5.5t51.5 5.5t41.5 2l14 385h-590zM121 532q196 0 485 15l25 637z" />
<glyph unicode="5" horiz-adv-x="956" d="M23 55l81 138q65 -54 143.5 -83.5t153.5 -29.5q134 0 224 84t90 242q0 154 -79.5 235.5t-234.5 81.5q-91 0 -213 -23l-18 19l86 672h520l82 104l51 -20q-69 -157 -96 -224h-494l-55 -434q113 23 209 23q77 0 145 -20t124.5 -59.5t90 -107.5t33.5 -155q0 -108 -52 -206 t-135.5 -166t-188.5 -108.5t-211 -40.5q-148 0 -256 78z" />
<glyph unicode="6" horiz-adv-x="1046" d="M86 463q0 166 62.5 318t173 271t252.5 211.5t311 155.5l26 -51q-106 -50 -200.5 -113.5t-180 -143t-150.5 -178t-101 -206.5q139 102 333 102q69 0 132 -21.5t115 -65t83 -117.5t31 -170q0 -111 -41.5 -205t-108.5 -153.5t-149.5 -92.5t-167.5 -33q-188 0 -304 133 t-116 359zM240 483q0 -112 25.5 -199t68.5 -137.5t94.5 -76t108.5 -25.5q40 0 79 11.5t77.5 39t67 69t46.5 107.5t18 148q0 142 -80 222.5t-221 80.5q-127 0 -264 -70q-20 -81 -20 -170z" />
<glyph unicode="7" horiz-adv-x="890" d="M61 1065q48 171 70 326h768l25 -33q-112 -232 -223.5 -478t-231 -517t-174.5 -392l-152 80q40 72 157 280t183.5 328t159.5 296t158 311l-586 -21l-98 -190z" />
<glyph unicode="8" horiz-adv-x="1013" d="M82 291q0 70 26.5 137.5t76 127.5t98.5 105.5t116 98.5q-75 60 -119 102.5t-77 103.5t-33 126q0 95 57.5 171t145.5 116t186 40q92 0 166.5 -30t122 -95.5t47.5 -156.5q0 -57 -19.5 -112t-56.5 -104.5t-74.5 -89t-89.5 -83.5q56 -42 96 -78t79 -83.5t59 -101t20 -112.5 q0 -88 -38 -164.5t-101 -128t-146 -80.5t-173 -29q-102 0 -184.5 36t-133.5 110t-51 174zM219 340q0 -130 76 -212.5t201 -82.5q105 0 185.5 74.5t80.5 187.5q0 62 -22.5 118t-66.5 105t-75.5 76.5t-82.5 66.5q-12 9 -17 13l-43 33q-236 -171 -236 -379zM309 1155 q0 -36 15.5 -74t33 -65t55.5 -65t56 -53.5t63 -52t50 -40.5l22 -19q164 134 164 289q0 113 -72.5 192t-177.5 79q-85 0 -147 -51t-62 -140z" />
<glyph unicode="9" horiz-adv-x="1040" d="M86 956q0 111 39.5 201t105.5 146t146.5 86t165.5 30q189 0 304.5 -132.5t115.5 -358.5q0 -166 -62.5 -317.5t-172.5 -271t-253 -212.5t-311 -156l-27 52q108 51 205 117t184 148.5t152.5 184.5t97.5 213q-142 -104 -336 -104q-68 0 -129 21.5t-112.5 65t-82 117.5 t-30.5 170zM231 991q0 -142 80 -222.5t217 -80.5q144 0 267 72q16 78 16 147q0 112 -25 199t-68 138t-95 76.5t-111 25.5q-51 0 -98 -19t-89.5 -58.5t-68 -111.5t-25.5 -166z" />
<glyph unicode=":" horiz-adv-x="446" d="M111 16q1 8 10 117q2 14 2 37l145 31l37 -37q-10 -69 -10 -117q-2 -14 -2 -35l-146 -32zM133 713q2 19 10 116q0 27 2 37l146 31l37 -37q-9 -61 -13 -117q-3 -20 0 -34l-145 -33z" />
<glyph unicode=";" horiz-adv-x="479" d="M16 -281q62 87 83.5 170t21.5 187q0 26 -4 92l151 33l39 -39q-8 -213 -260 -473zM133 713q2 19 10 116q0 27 2 37l146 31l37 -37q-9 -61 -13 -117q-3 -20 0 -34l-145 -33z" />
<glyph unicode="&#x3c;" horiz-adv-x="1116" d="M70 610v84l876 445l45 -88l-784 -400l784 -397l-45 -88z" />
<glyph unicode="=" horiz-adv-x="1280" d="M170 455v98h942v-98h-942zM170 743v99h942v-99h-942z" />
<glyph unicode="&#x3e;" horiz-adv-x="1116" d="M131 254l787 397l-787 400l45 88l879 -445v-84l-879 -444z" />
<glyph unicode="?" horiz-adv-x="739" d="M131 1221l4 172q96 26 211 26q143 0 239.5 -69t96.5 -179q0 -57 -36.5 -122.5t-93 -126.5t-115 -117t-112.5 -112.5t-75 -94.5q4 -26 31.5 -82t52.5 -94l-39 -33q-133 149 -133 229q0 46 53.5 121t121.5 143.5t147.5 154t115.5 139.5q-13 118 -194 118 q-73 0 -149.5 -21.5t-125.5 -51.5zM193 16q2 17 10 117q0 27 2 37l145 31l35 -37q-4 -38 -10 -117q-3 -20 0 -35l-146 -32z" />
<glyph unicode="@" horiz-adv-x="1536" d="M86 369q0 164 60 308t163.5 247t249.5 162t313 59q269 0 430.5 -149.5t161.5 -399.5q0 -142 -67.5 -268t-185 -202.5t-253.5 -76.5l-30 31q16 90 30 342l-14 4q-71 -139 -180 -246t-213 -131l-90 31q-4 62 -4 84q0 176 65 332t169 247t216 91q82 0 185 -25 q-29 -298 -29 -668q131 25 226 155t95 300q0 220 -137 347.5t-366 127.5q-141 0 -265.5 -52t-213.5 -142.5t-141 -216.5t-52 -269q0 -283 170.5 -455t451.5 -172q116 0 222.5 30t230.5 97l25 -59q-276 -151 -529 -151q-146 0 -274 51.5t-220.5 141.5t-146 218.5t-53.5 276.5 zM594 264q0 -61 2 -94q30 2 73.5 25.5t91.5 68t89.5 101t71 134t34.5 158.5l2 52q-66 20 -114 20q-123 0 -186.5 -126t-63.5 -339z" />
<glyph unicode="A" horiz-adv-x="1265" d="M-53 0l2 57l53 6q15 1 45.5 4t40.5 3q121 253 267.5 629.5t258.5 719.5l80 23l414 -1340l170 -45l-2 -57q-102 12 -232 12q-135 0 -249 -12l2 57l141 13l-115 415h-39q-200 0 -422 -20l-129 -363l164 -45l-2 -57q-126 14 -207 14q-80 0 -241 -14zM395 555h408l-168 614 h-29z" />
<glyph unicode="B" horiz-adv-x="1130" d="M61 0l2 57q26 2 57 5.5t51.5 5.5t41.5 2l41 1218l-148 45l3 58l55 -9q99 -6 133 -6q54 0 141.5 12.5t167.5 12.5q89 0 156.5 -24t106.5 -66t58 -93.5t19 -111.5q0 -112 -62 -201.5t-151 -150.5q318 -88 318 -357q0 -183 -124.5 -296t-316.5 -113q-52 0 -159 12t-164 12 q-91 0 -226 -12zM369 104q111 -59 229 -59q129 0 209 88t80 236q0 158 -97 254t-292 96q-54 0 -109 -6zM391 784h55q104 0 187 -12q70 53 112.5 127t42.5 162q0 127 -66.5 200.5t-170.5 73.5q-37 0 -73 -3t-56 -3q-18 -233 -25 -377z" />
<glyph unicode="C" horiz-adv-x="1411" d="M92 666q0 217 103.5 389t289 268t420.5 96q250 0 461 -57l-29 -334h-59l-27 221q-143 97 -331 97q-127 0 -241.5 -41.5t-203.5 -119t-141.5 -197.5t-52.5 -267q0 -130 39.5 -241t105 -188t151.5 -131.5t178 -80t185 -25.5q96 0 169 13.5t183 50.5l21 -58 q-97 -49 -218 -69.5t-227 -20.5q-161 0 -304 52t-247 143t-164.5 221t-60.5 279z" />
<glyph unicode="D" horiz-adv-x="1566" d="M63 0v57q23 2 54.5 5.5t52.5 5.5t43 2l41 1218l-145 45v58l61 -9q123 -6 152 -6q70 0 223.5 12.5t245.5 12.5q201 0 357.5 -87t243.5 -246.5t87 -365.5q0 -64 -11 -130t-37.5 -137t-66 -134.5t-101.5 -121.5t-139 -100t-183 -66.5t-230 -24.5q-61 0 -202 12t-212 12 q-107 0 -234 -12zM369 102q149 -49 293 -49q49 0 98.5 5t113.5 22t120 44t112 75.5t95.5 112t64 158.5t24.5 210q0 67 -8 129t-28 128t-51.5 121.5t-82.5 106t-116 86t-156.5 56t-200.5 20.5q-153 0 -235 -10z" />
<glyph unicode="E" horiz-adv-x="1052" d="M61 0l2 57q23 2 54.5 5.5t52.5 5.5t43 2l41 1218l-145 45v58q4 0 28 -4t41 -5q147 -6 232 -6h239q131 0 328 15l-33 -338h-59l-31 225l-436 31q-16 -173 -19 -322l-10 -225l426 22l-8 -127q-72 10 -152.5 17t-170 12t-99.5 6l-16 -614l450 16l103 211h61l-78 -325 q-152 5 -361 18.5t-245 13.5q-120 0 -238 -12z" />
<glyph unicode="F" horiz-adv-x="991" d="M63 0v57q23 2 54.5 5.5t52.5 5.5t43 2l41 1218l-145 45v58q4 0 28 -4t41 -5q147 -6 232 -6h239q131 0 328 15l-33 -338h-59l-31 225l-436 31q-16 -173 -19 -322l-10 -244l428 23l-8 -127q-359 35 -424 35l-14 -572l143 -45v-57l-51 6q-140 8 -154 8q-109 0 -246 -14z" />
<glyph unicode="G" horiz-adv-x="1536" d="M94 684q0 221 104 389t285.5 257t413.5 89q250 0 461 -57l-29 -334h-61l-25 221q-150 97 -346 97q-132 0 -245 -46.5t-196 -130.5t-130 -209t-47 -276q0 -187 84.5 -332t227 -222t316.5 -77q89 0 148 13t114 43l19 436l-148 45v57q1 0 21.5 -3.5t32.5 -4.5q99 -6 151 -6 q111 0 248 14v-57q-26 -2 -73.5 -5.5t-76.5 -6.5l-18 -523q-91 -33 -228.5 -58.5t-230.5 -25.5q-119 0 -232 30t-210.5 91t-171.5 145t-116 199.5t-42 247.5z" />
<glyph unicode="H" horiz-adv-x="1636" d="M63 0v57q23 2 54.5 5.5t52.5 5.5t43 2l41 1218l-145 45v58l22.5 -4.5t28.5 -4.5q105 -6 151 -6q101 0 248 15v-58q-27 -3 -74.5 -6t-72.5 -6l-21 -559h866l19 526l-146 45v58q4 -1 22.5 -4.5t29.5 -4.5q105 -6 151 -6q101 0 248 15v-58q-27 -3 -74.5 -6t-72.5 -6 l-41 -1219l143 -45v-57l-51 6q-140 8 -154 8q-109 0 -246 -14v57q24 2 55 5.5t52 5.5t43 2l20 622q-518 0 -868 -33l-18 -557l145 -45v-57l-51 6q-140 8 -154 8q-109 0 -246 -14z" />
<glyph unicode="I" horiz-adv-x="614" d="M63 0v57q23 2 54.5 5.5t52.5 5.5t43 2l41 1218l-145 45v58l22.5 -4.5t28.5 -4.5q105 -6 151 -6q101 0 248 15v-58q-27 -3 -74.5 -6t-72.5 -6l-41 -1219l143 -45v-57l-51 6q-140 8 -154 8q-109 0 -246 -14z" />
<glyph unicode="J" horiz-adv-x="591" d="M-86 -449q101 113 170.5 235.5t93 195.5t27.5 120l41 1186l-146 45v58l52 -9q105 -6 151 -6q100 0 250 15v-58q-27 -2 -57.5 -4t-51 -3.5t-41.5 -4.5l-45 -1219q-9 -81 -23 -126q-72 -222 -380 -478z" />
<glyph unicode="K" horiz-adv-x="1335" d="M63 0v57q23 2 54.5 5.5t52.5 5.5t43 2l41 1218l-145 45v58l22.5 -4.5t28.5 -4.5q105 -6 151 -6q101 0 248 15v-58q-27 -3 -74.5 -6t-72.5 -6l-41 -1219l143 -45v-57l-51 6q-140 8 -154 8q-109 0 -246 -14zM432 733q198 188 326 321.5t221 260.5q-12 1 -37.5 5t-38.5 5 l-41 8v58q111 -15 209 -15q111 0 225 15v-58l-168 -45l-542 -497l592 -689l174 -41v-61h-299z" />
<glyph unicode="L" horiz-adv-x="1034" d="M61 0l2 57q23 2 54.5 5.5t52.5 5.5t43 2l41 1218l-145 45v58l22.5 -4.5t28.5 -4.5q105 -6 153 -6q99 0 246 15v-58q-27 -3 -74.5 -6t-72.5 -6l-45 -1243l477 16l112 228h64l-92 -342q-154 5 -373.5 18.5t-255.5 13.5q-120 0 -238 -12z" />
<glyph unicode="M" horiz-adv-x="1769" d="M16 0v57q26 2 56 5.5t50.5 5.5t43.5 2l145 1316l95 33l483 -1116h14l527 1094l100 20l33 -1315l141 -45v-57l-53 6q-140 8 -152 8q-111 0 -248 -14v57q26 2 56 5.5t50.5 5.5t43.5 2l-4 1026h-19l-510 -1041h-47l-448 1045h-17l-80 -998l154 -45v-57l-43 6q-108 8 -133 8 q-101 0 -238 -14z" />
<glyph unicode="N" horiz-adv-x="1615" d="M51 0v57q82 13 150 13l26 772q4 152 4 258q0 203 -8 291l82 30l981 -1171l33 1038l-145 45v58l63 -7q117 -6 141 -6q84 0 195 13v-58q-68 -9 -150 -12q-2 -70 -11 -294.5t-13 -398.5t-4 -362q0 -74 4 -266l-86 -29l-981 1157l-27 -1026l146 -45v-57l-62 6q-117 6 -143 6 q-87 0 -195 -12z" />
<glyph unicode="O" d="M94 690q0 155 54.5 290t151.5 231.5t237.5 152t304.5 55.5q117 0 221 -39t179.5 -106.5t130.5 -156t82.5 -188.5t27.5 -202q0 -163 -54.5 -305.5t-146.5 -240.5t-216 -154t-261 -56q-139 0 -256.5 40.5t-200 110t-141 161.5t-86 195.5t-27.5 211.5zM281 711 q0 -104 22 -201.5t66.5 -181.5t106.5 -147.5t147.5 -99.5t183.5 -36q118 0 211.5 47.5t152.5 131.5t90 194.5t31 240.5q0 191 -62 347.5t-175.5 248t-257.5 91.5q-60 0 -118 -13t-117.5 -41t-109 -78t-88.5 -117.5t-61 -166.5t-22 -219z" />
<glyph unicode="P" horiz-adv-x="1087" d="M63 0v57q23 2 54.5 5.5t52.5 5.5t43 2l41 1218l-145 45v58q7 -1 26.5 -4.5t32.5 -4.5q105 -6 131 -6q40 0 133 12.5t170 12.5q111 0 197 -31t138 -84.5t78.5 -122.5t26.5 -149q0 -118 -60.5 -216.5t-163 -155t-222.5 -56.5q-60 0 -98 10l2 63q35 -6 65 -6 q139 0 228.5 96.5t89.5 245.5q0 162 -92 251t-269 89q-57 0 -112 -10l-39 -1223l143 -45v-57l-51 6q-140 8 -154 8q-109 0 -246 -14z" />
<glyph unicode="Q" d="M94 690q0 155 54.5 290t151.5 231.5t237.5 152t304.5 55.5q117 0 221 -39t179.5 -106.5t130.5 -156t82.5 -188.5t27.5 -202q0 -163 -54.5 -305.5t-146.5 -240.5t-216 -154t-261 -56q-139 0 -256.5 40.5t-200 110t-141 161.5t-86 195.5t-27.5 211.5zM281 711 q0 -104 22 -201.5t66.5 -181.5t106.5 -147.5t147.5 -99.5t183.5 -36q118 0 211.5 47.5t152.5 131.5t90 194.5t31 240.5q0 191 -62 347.5t-175.5 248t-257.5 91.5q-60 0 -118 -13t-117.5 -41t-109 -78t-88.5 -117.5t-61 -166.5t-22 -219zM326 -102q33 18 86.5 31.5t95.5 13.5 q131 0 313 -107q217 -121 303.5 -165.5t135.5 -55.5q58 26 153 92l37 -33q-45 -55 -106.5 -109t-114.5 -79q-92 4 -193 53t-182 109l-362 235l-150 -33z" />
<glyph unicode="R" horiz-adv-x="1181" d="M63 0v57q23 2 54.5 5.5t52.5 5.5t43 2l41 1218l-145 45v58q7 -1 26.5 -4.5t32.5 -4.5q105 -6 131 -6q41 0 130 12.5t153 12.5q115 0 203.5 -29.5t140 -79.5t77 -111.5t25.5 -131.5q0 -69 -21.5 -128.5t-53 -99t-75.5 -72t-81 -50t-78 -31.5l325 -566l166 -45l-4 -57h-286 l-363 639l-16 -2q-12 0 -59 -2t-97 -2l-16 -531l145 -45v-57l-51 6q-140 8 -154 8q-109 0 -246 -14zM387 702h59q120 0 206 28.5t132 79t66 108.5t20 129q0 40 -9.5 78.5t-34 77.5t-61 67.5t-95 46.5t-131.5 18q-70 0 -129 -10z" />
<glyph unicode="S" horiz-adv-x="997" d="M82 27l24 317h62l16 -174q43 -43 126 -81t163 -38q124 0 197 76.5t73 187.5q0 39 -14.5 77.5t-34 67t-54 62.5t-60 54t-67.5 53t-62 49q-11 9 -46.5 35.5t-52.5 39.5t-49.5 41.5t-50 48t-41.5 50t-36 57.5t-21 61.5t-9 69.5q0 47 10 91t36.5 90t68 80t111.5 55.5 t159 21.5q181 0 347 -51l-23 -301h-57l-29 205q-100 74 -240 74q-94 0 -158.5 -55t-64.5 -152q0 -40 12.5 -76.5t28.5 -62t48.5 -55.5t53 -45.5t63.5 -46t60 -42.5q64 -46 103.5 -77t88 -77t75.5 -86.5t46 -93t19 -108.5q0 -81 -38.5 -155t-101 -127t-144.5 -84.5 t-168 -31.5q-203 0 -369 56z" />
<glyph unicode="T" horiz-adv-x="1206" d="M39 1067l41 336q185 -12 340 -12q616 0 797 14l-31 -338h-62l-28 219l-387 17l-39 -1201l145 -45v-57l-53 6q-140 8 -152 8q-111 0 -248 -14v57q24 2 55.5 5.5t52.5 5.5t42 2l43 1239l-385 18l-72 -260h-59z" />
<glyph unicode="U" horiz-adv-x="1497" d="M78 1333v58l51 -9q105 -6 154 -6q100 0 247 15v-58q-25 -2 -73.5 -5.5t-75.5 -6.5q-29 -818 -29 -850q0 -209 99.5 -311.5t308.5 -102.5q415 0 430 478l29 753l-148 45v58q6 -1 21.5 -4.5t25.5 -4.5q93 -6 144 -6q94 0 241 15v-58q-26 -2 -73 -5.5t-76 -6.5l-68 -797 q-48 -553 -541 -553q-260 0 -406 107.5t-146 322.5q0 85 12.5 424.5t19.5 462.5z" />
<glyph unicode="V" horiz-adv-x="1329" d="M0 1333v58q4 -1 22.5 -4.5t30.5 -4.5q117 -6 160 -6q101 0 248 15v-58q-26 -2 -73.5 -5.5t-76.5 -6.5l371 -1135h12l414 1102l-119 45v58l62 -7q105 -6 143 -6q113 0 207 13v-58q-26 -2 -73.5 -5.5t-76.5 -6.5l-565 -1335l-80 -17l-463 1319z" />
<glyph unicode="W" horiz-adv-x="1882" d="M6 1333v58l55 -9q105 -6 158 -6q103 0 250 15v-58q-27 -2 -75 -5.5t-75 -6.5l289 -1065h13l329 963l60 18l295 -981h14l330 1032l-119 45v58q1 0 15.5 -4t25.5 -5q81 -6 133 -6q88 0 235 15v-58q-27 -3 -74.5 -6t-72.5 -6l-485 -1335l-78 -17l-291 963l-326 -946l-80 -17 l-368 1319z" />
<glyph unicode="X" horiz-adv-x="1181" d="M-35 0v57q89 11 129 13l434 626l-315 592l-164 45v58q3 0 22 -4t33 -5q117 -6 162 -6q105 0 252 15v-58q-26 -2 -73 -5.5t-76 -6.5l258 -475l266 442l-139 45v58q3 -1 19 -4.5t26 -4.5q93 -6 141 -6q137 0 242 15v-58q-55 -9 -129 -12l-385 -553l362 -666l152 -45v-57 l-56 6q-156 8 -161 8q-115 0 -252 -14v57q26 2 56 5.5t50 5.5t43 2l-293 548l-315 -516l139 -45v-57l-45 6q-124 8 -141 8q-102 0 -242 -14z" />
<glyph unicode="Y" horiz-adv-x="1243" d="M-23 1331v58q5 -1 26 -4.5t34 -4.5q117 -6 162 -6q105 0 252 15v-58q-39 -7 -86 -8.5t-64 -3.5l352 -623h17l338 592l-150 43v58l49 -9q99 -6 148 -6q96 0 243 15v-58q-60 -9 -141 -12l-452 -711l-17 -506l146 -45v-57l-54 6q-132 8 -151 8q-111 0 -248 -14v57 q26 2 56.5 5.5t51 5.5t41.5 2l13 536l-396 682z" />
<glyph unicode="Z" horiz-adv-x="1288" d="M47 0l2 61l965 1272l-733 -49l-115 -223h-64l68 330h1024l-2 -66l-944 -1268l790 45l119 258h68l-78 -360h-1100z" />
<glyph unicode="[" horiz-adv-x="544" d="M133 -356l64 1829h350l-2 -70h-228l-61 -1690h229l-2 -69h-350z" />
<glyph unicode="\" horiz-adv-x="1134" d="M74 1473h110l881 -1829h-111z" />
<glyph unicode="]" horiz-adv-x="544" d="M-2 -356l2 69h227l60 1690h-228l2 70h351l-64 -1829h-350z" />
<glyph unicode="^" horiz-adv-x="745" d="M70 920l301 471h71l303 -471h-114l-223 350l-224 -350h-114z" />
<glyph unicode="_" horiz-adv-x="1642" d="M193 -401l4 98h1187l-4 -98h-1187z" />
<glyph unicode="`" horiz-adv-x="593" d="M102 1444q82 63 119 100l271 -373l-50 -38z" />
<glyph unicode="a" horiz-adv-x="978" d="M61 113q0 155 45.5 301t119 251t170 168.5t194.5 63.5q18 0 34 -0.5t33.5 -2.5t28 -3t30 -5t27 -5.5t31 -6t31.5 -6.5q-35 -353 -35 -790q76 10 168 53l16 -39q-58 -39 -162 -75.5t-147 -36.5l-35 34q8 51 20.5 180.5t16.5 219.5l-14 4q-87 -163 -212 -284t-249 -154 l-104 34q-7 39 -7 99zM209 217q0 -35 4 -113q37 5 90 34t112.5 83.5t111 124t87.5 165t41 196.5l7 65q-102 25 -146 25q-100 0 -170 -75.5t-103.5 -204t-33.5 -300.5z" />
<glyph unicode="b" horiz-adv-x="909" d="M6 1493l303 61l33 -34q-3 -3 -13 -142.5t-22.5 -360t-19.5 -413.5l16 -4q90 125 178.5 197.5t208.5 99.5l86 -35q58 -124 58 -262q0 -159 -72.5 -303.5t-188 -230.5t-237.5 -86q-112 0 -225 36q24 282 35.5 432t23.5 428.5t14 589.5l-59 -8l-115 -8zM264 104 q70 -24 144 -24q88 0 157 57.5t104.5 151.5t35.5 205q0 154 -66 280q-47 -2 -107 -35t-118 -90t-99 -150t-45 -200z" />
<glyph unicode="c" horiz-adv-x="731" d="M70 342q0 102 34.5 201t95 178t152.5 127.5t199 48.5q49 0 108 -12l-32 -123q-61 18 -118.5 27t-88.5 10.5t-82 1.5q-66 -50 -97.5 -145.5t-31.5 -215.5q0 -227 92 -336q80 11 156 52t180 118l25 -36q-54 -50 -94.5 -83.5t-128 -87.5t-177.5 -87l-76 34 q-116 124 -116 328z" />
<glyph unicode="d" horiz-adv-x="978" d="M61 109q0 142 41.5 284.5t111.5 253.5t169 180.5t205 69.5q30 0 76 -4l2 573l-60 -8l-114 -8l-5 43l304 61l34 -34q-30 -285 -40.5 -604.5t-10.5 -837.5q76 10 164 53l20 -39q-58 -39 -163 -75.5t-146 -36.5l-35 34q5 49 13 142t12 127l8 131l-16 4q-80 -160 -208 -283 t-251 -155l-106 34q-5 26 -5 95zM207 215q0 -41 4 -111q39 5 91.5 34t111.5 83.5t110 124t87.5 165t43.5 196.5l4 65q-103 25 -143 25q-100 0 -170.5 -75.5t-104.5 -205t-34 -301.5z" />
<glyph unicode="e" horiz-adv-x="749" d="M70 342q0 138 57.5 264t166.5 208.5t243 82.5q91 0 143 -45l-2 -119q-45 -67 -111 -127q-147 -136 -358 -198q3 -193 92 -304q80 11 156 52t180 118l25 -36q-54 -50 -94.5 -83.5t-128 -87.5t-177.5 -87l-76 34q-116 124 -116 328zM209 461q188 84 283 190q45 51 67 99 q-86 51 -188 51q-19 0 -29 -2q-61 -49 -97 -141.5t-36 -196.5z" />
<glyph unicode="f" horiz-adv-x="610" d="M-215 -522l2 153q91 -33 185 -50t151 -17q57 155 70 426q0 3 24 813q-79 11 -178 31l2 43h178q2 74 8 155q19 265 114.5 393.5t242.5 128.5q90 0 180 -22l-6 -150q-85 35 -177 49.5t-155 14.5q-65 -157 -72 -426l-4 -139q186 4 252 10l-4 -125q-77 0 -250 18 q-21 -719 -29 -807q-19 -267 -114 -394.5t-242 -127.5q-96 0 -178 23z" />
<glyph unicode="g" horiz-adv-x="933" d="M59 106q0 189 70.5 371.5t194.5 301t264 118.5q101 0 215 -29q-12 -110 -19 -238.5t-9.5 -205.5t-5 -225.5t-3.5 -190.5q-12 -276 -138.5 -414.5t-359.5 -138.5q-110 0 -186 23l4 153q83 -28 191 -43.5t190 -15.5q29 0 65 4q28 24 49 82.5t31.5 123.5t17.5 161.5 t8.5 164.5t3.5 168t3 138l-14 4q-87 -163 -212 -284t-249 -154l-104 34q-7 36 -7 92zM207 213q0 -39 4 -109q37 5 90 34t112.5 83.5t111 124t87.5 165t41 196.5l6 65q-103 25 -145 25q-100 0 -170 -77t-103.5 -207t-33.5 -300z" />
<glyph unicode="h" horiz-adv-x="1009" d="M-10 1493l303 61l35 -34q-11 -100 -21 -225t-15.5 -215.5t-15.5 -256t-16 -252.5l16 -4q93 124 211.5 213t239.5 117l76 -35q24 -96 24 -233q0 -93 -14 -281.5t-14 -269.5q95 16 170 53l20 -39q-58 -39 -163.5 -75.5t-145.5 -36.5l-35 34q47 351 47 549q0 108 -16 209 q-65 0 -161.5 -61t-170.5 -154t-74 -170v-387h-159q34 279 43 584q14 454 14 882l-59 -8l-115 -8z" />
<glyph unicode="i" horiz-adv-x="526" d="M16 836l303 61l35 -35q-43 -336 -42 -784q95 16 169 53l21 -39q-58 -39 -165.5 -75.5t-150.5 -36.5l-34 34q20 143 30 295.5t11.5 244t1.5 255.5l-60 -6q-30 -5 -115 -10zM201 1165q1 8 10 117q2 14 2 37l145 31l37 -37q-7 -47 -12 -117v-35l-145 -33z" />
<glyph unicode="j" horiz-adv-x="485" d="M-61 -512q63 91 149.5 260t91.5 254q7 126 12 279.5t8 312.5t5 215l-62 -6q-29 -5 -112 -10l-4 43l303 61l35 -35q-38 -304 -56 -860q-3 -46 -42 -125t-96 -163t-104.5 -148t-86.5 -111zM209 1165q4 31 6 73.5t2 43.5q2 14 2 37l148 31l34 -37q-10 -92 -10 -117 q-2 -14 -2 -35l-143 -33z" />
<glyph unicode="k" horiz-adv-x="923" d="M-8 1493l303 61l35 -34q-40 -342 -54 -908l19 -4q159 229 407 289l76 -35q0 -72 -11 -132.5t-38 -123t-79 -118t-128 -101.5l211 -309q85 14 154 47l18 -39q-59 -39 -144.5 -72.5t-123.5 -33.5l-248 366q116 81 177.5 197t66.5 231q-37 -6 -96.5 -38.5t-118.5 -78.5 t-101.5 -107t-42.5 -116q0 -36 -1 -196.5t-1 -237.5h-157q55 508 55 1466l-61 -8l-113 -8z" />
<glyph unicode="l" horiz-adv-x="485" d="M-2 1493l303 61l35 -34q-55 -508 -55 -1442q76 10 163 53l21 -39q-58 -39 -163 -75.5t-146 -36.5l-35 34q55 508 55 1452l-59 -8l-115 -8z" />
<glyph unicode="m" horiz-adv-x="1511" d="M6 836l303 61l33 -35q0 -32 -14 -148.5t-25 -142.5l16 -4q104 139 198.5 221t211.5 109l76 -35q20 -90 20 -186q0 -37 -4 -107q103 137 198 220t210 108l76 -35q24 -96 24 -233q0 -93 -14.5 -281.5t-14.5 -269.5q95 16 170 53l23 -39q-62 -39 -165.5 -75.5t-145.5 -36.5 l-35 34q47 351 47 549q0 136 -16 211q-65 0 -152 -68t-150 -166.5t-63 -177.5v-362h-160q43 258 43 584q0 87 -18 190q-65 0 -152 -68t-150 -166.5t-63 -177.5v-362h-159q43 258 43 584q0 140 -13 225l-59 -6q-30 -5 -115 -10z" />
<glyph unicode="n" horiz-adv-x="1052" d="M6 836l303 61l33 -35q0 -32 -14 -148.5t-25 -142.5l16 -4q93 124 211.5 213t239.5 117l76 -35q24 -96 24 -233q0 -93 -14 -281.5t-14 -269.5q95 16 170 53l20 -39q-58 -39 -162.5 -75.5t-144.5 -36.5l-37 34q47 351 47 549q0 136 -16 211q-65 0 -161.5 -62t-170.5 -155 t-74 -170v-387h-159q43 258 43 584q0 140 -13 225l-59 -6q-30 -5 -115 -10z" />
<glyph unicode="o" horiz-adv-x="864" d="M70 354q0 91 32 185.5t89 175t146 131.5t193 51q72 0 123 -32t78 -88.5t39 -120t12 -140.5q0 -67 -18 -140.5t-55.5 -144t-89 -126.5t-123.5 -90.5t-154 -34.5q-58 0 -105 21t-77.5 56t-51 83.5t-29.5 101.5t-9 112zM199 440q0 -218 129 -358h182q59 42 103 137.5 t44 214.5q0 217 -131 359h-180q-61 -42 -104 -137t-43 -216z" />
<glyph unicode="p" horiz-adv-x="944" d="M10 836l303 61l35 -35q0 -1 -9 -76.5t-15 -138.5l16 -4q86 102 176.5 162t206.5 92l86 -35q57 -120 57 -258q0 -156 -69.5 -300.5t-185 -234t-242.5 -89.5q-30 0 -76 4l-8 -441l59 6q39 7 115 11l4 -43l-303 -62l-35 35q63 668 63 1319l-59 -6q-30 -5 -115 -10zM297 104 q70 -24 143 -24q94 0 163 62t100.5 155t31.5 201q0 159 -63 276q-44 0 -105 -30.5t-118.5 -81t-99 -128t-44.5 -159.5z" />
<glyph unicode="q" horiz-adv-x="923" d="M59 104q0 192 70 374.5t194 300.5t265 118q21 0 40.5 -1t33.5 -2.5t34 -5t30 -5.5t34 -7.5t35 -7.5q-22 -180 -32.5 -603.5t-10.5 -721.5l59 6q42 7 115 11l4 -43l-303 -62l-35 35q6 35 27.5 455.5t25.5 468.5l-14 4q-87 -163 -212 -284t-249 -154l-104 34q-1 9 -4 40.5 t-3 49.5zM207 217q0 -35 4 -113q37 5 90 34t112.5 83.5t111 124t87.5 165t41 196.5l6 65q-103 25 -145 25q-100 0 -170 -75.5t-103.5 -204t-33.5 -300.5z" />
<glyph unicode="r" horiz-adv-x="698" d="M6 836l303 61l33 -35q0 -32 -14 -148.5t-25 -142.5l16 -4q35 56 57 88t63.5 84.5t75.5 82t80 52.5t91 23l-4 -176q-24 4 -39 4q-78 0 -156.5 -58t-126 -137t-47.5 -143v-387h-159q43 258 43 584q0 140 -13 225l-59 -6q-30 -5 -115 -10z" />
<glyph unicode="s" horiz-adv-x="724" d="M72 2l6 260h47l12 -125q99 -35 211 -35q72 0 132.5 17.5t86.5 54.5q-7 42 -56.5 85t-115 81t-130.5 78.5t-111 94.5t-48 114l37 125q48 69 142 107t202 38q79 0 146 -20l-6 -256h-43l-19 127q-73 28 -176 28q-147 0 -207 -57q7 -41 55.5 -84.5t112.5 -83t127 -82.5 t106.5 -100.5t43.5 -120.5l-37 -125q-58 -73 -152 -108t-200 -35q-86 0 -166 22z" />
<glyph unicode="t" horiz-adv-x="581" d="M70 834l2 43h121q6 246 6 268l159 43q-15 -90 -30 -309q112 3 217 12l-4 -115q-90 0 -219 17q-21 -261 -21 -463q0 -189 23 -248q74 19 174 68l20 -39q-55 -42 -125.5 -79t-126.5 -52l-76 34q-24 96 -24 230q0 54 3.5 134.5t10 205.5t10.5 227z" />
<glyph unicode="u" horiz-adv-x="1060" d="M12 836l303 61l33 -35q-5 -54 -19 -169.5t-22 -209t-8 -172.5q0 -119 20 -209q49 0 118.5 35t133.5 88t109 125.5t45 138.5l6 320l-61 -6q-34 -6 -115 -10l-2 43l301 61l37 -35q-7 -47 -12.5 -92t-9 -91.5t-6.5 -79t-5 -82.5t-3 -73t-2.5 -78.5t-2.5 -72.5 q-2 -49 -2 -156v-59q95 18 170 53l20 -39q-58 -39 -163.5 -75.5t-145.5 -36.5l-35 34q25 223 41 291l-16 4q-94 -124 -210.5 -211t-240.5 -118l-75 34q-25 100 -25 228q0 40 2 88t4.5 83t7 91t6.5 84q1 38 4 85.5t3 63.5q0 27 -5 72l-61 -6q-28 -5 -113 -10z" />
<glyph unicode="v" horiz-adv-x="905" d="M-23 829l254 68l45 -18q24 -276 107 -504q55 -161 84 -230h18l97 205q110 239 110 420q0 44 -10 82l168 45q4 -36 4 -61q0 -82 -44.5 -194.5t-158.5 -319.5l-176 -320l-74 -22q-102 215 -162.5 402t-105.5 421l-151 -17z" />
<glyph unicode="w" horiz-adv-x="1368" d="M-16 829l254 68l45 -18q16 -285 79 -504q31 -122 68 -230h19l206 533q-21 121 -28 180l147 39q13 -232 100 -514q38 -129 80 -238h19q178 410 178 619q0 61 -8 88l168 45q5 -27 5 -56q0 -75 -34 -165q-46 -124 -178 -390q-88 -178 -139 -284l-76 -22q-129 280 -201 555 l-248 -533l-75 -22q-141 299 -224 823l-53 -6q-15 -1 -49 -5.5t-51 -5.5z" />
<glyph unicode="x" horiz-adv-x="919" d="M20 821l236 76l45 -20l182 -340l6 8q132 156 132 301v6l167 45v-18q0 -46 -20.5 -90.5t-44 -72t-72.5 -79.5t-76 -84l-61 -74l213 -397q81 12 162 55l18 -41q-96 -75 -256 -116l-45 20l-192 360l-6 -6q-92 -113 -125 -173t-33 -132v-26l-164 -43q-4 24 -4 32q0 41 26 87 t57.5 80t80 84.5t73.5 82.5l64 74l-203 379l-53 -6q-56 -10 -100 -13z" />
<glyph unicode="y" horiz-adv-x="903" d="M-25 829l254 68l45 -18q14 -260 103 -504q49 -144 88 -230h18l97 205q110 239 110 420q0 44 -10 82l168 45q4 -12 4 -61q0 -83 -43.5 -194t-159.5 -320l-174 -320q-11 -18 -49 -86t-54 -95t-51 -85.5t-58 -89.5t-54.5 -72.5t-61 -70t-59.5 -48.5l-94 137 q125 71 222.5 159.5t182.5 228.5q-95 203 -162 395.5t-104 427.5l-153 -17z" />
<glyph unicode="z" horiz-adv-x="817" d="M25 29l567 743q-144 -16 -227 -16q-56 0 -170 4l-31 -142h-45l10 279q157 -16 320 -16q156 0 284 16l21 -41l-543 -715l424 -12l53 133h49q-19 -73 -34 -157t-23 -121l-551 55l-47 -59z" />
<glyph unicode="{" horiz-adv-x="561" d="M31 512l2 61l168 95q39 85 39 274v150q0 39 1.5 67t8 69.5t18 71.5t34 65t54 59.5t79.5 45.5t108 31l14 -51l-143 -66q-12 -30 -21.5 -82.5t-9.5 -93.5q0 -28 1 -87t1 -87q0 -51 -3 -91t-11 -91t-26 -92t-45 -82t-71 -75t-102 -58q119 -46 172 -141.5t53 -245.5 q0 -49 -9 -153.5t-9 -170.5q0 -22 2.5 -40.5t10 -49.5t9.5 -39l136 -70l-15 -51q-71 11 -123 37.5t-81 59t-46.5 76.5t-22.5 82t-5 85q0 43 7 131.5t7 137.5q0 152 -20 231z" />
<glyph unicode="|" horiz-adv-x="434" d="M168 -401v1955h98v-1955h-98z" />
<glyph unicode="}" horiz-adv-x="559" d="M0 -365l150 66q26 44 26 176q0 29 -2 87t-2 87q0 62 3.5 109t19 108.5t42 108t76.5 91.5t119 73q-119 48 -172 142.5t-53 244.5q0 50 8 153t8 170q0 47 -14 129l-143 70l16 51q70 -11 122 -37.5t81 -59t46 -76.5t22 -82t5 -85q0 -43 -7 -131t-7 -137q0 -154 21 -231 l161 -89l-2 -61l-168 -94q-39 -85 -39 -275v-149q0 -40 -1.5 -68t-8 -69.5t-18 -72t-34 -65.5t-54 -59t-79.5 -45t-108 -31z" />
<glyph unicode="~" horiz-adv-x="876" d="M98 510l183 199h59q140 -86 291 -115l45 41q57 53 86 74l31 -31l-193 -207h-61q-79 25 -134.5 56.5t-123.5 82.5l-56 -49q-73 -59 -98 -82z" />
<glyph unicode="&#xa1;" horiz-adv-x="421" d="M78 -545q20 129 47 392.5t29 279.5q20 239 26 344h60q0 -110 4 -344q0 -319 26 -672q-50 4 -96 4q-42 0 -96 -4zM123 713q4 31 6 73t2 43q2 14 2 37l148 31l34 -37q-10 -92 -10 -117q-2 -14 -2 -34l-143 -33z" />
<glyph unicode="&#xa2;" horiz-adv-x="765" d="M86 342q0 137 60.5 265.5t164.5 205.5q42 31 88 49l9 236h73l-8 -211q52 10 92 10q53 0 111 -12l-33 -123q-113 31 -166 33l-8 2l-23 -654l35 19q94 51 170 112l27 -36q-82 -77 -154 -127q-44 -31 -80 -54l-10 -280h-72l9 241q-38 -18 -92 -38l-76 34q-117 126 -117 328z M223 440q0 -100 23.5 -191t70.5 -145q28 3 58 13l22 684h-45q-63 -51 -96 -148t-33 -213z" />
<glyph unicode="&#xa3;" horiz-adv-x="980" d="M47 20q75 68 114.5 111t72 100t44 121t11.5 156q0 22 -1 46t-2.5 53.5t-2.5 47.5l-179 19l2 43q113 0 170 -2q-22 253 -22 272q0 137 147 273q84 79 158 119t154 40q39 0 72.5 -5t70.5 -14t51 -11l-35 -140q-168 76 -307 76q-77 -59 -110 -125t-33 -190q0 -26 4 -88 l14 -207q254 0 348 16l-40 -92q-56 -6 -121 -6q-24 0 -54 1t-67.5 2.5t-59.5 2.5v-29q0 -133 -44.5 -249t-125.5 -199l502 -37q39 61 64 166l43 -6q-4 -70 -38 -167t-61 -134l-47 -4l-561 73l-69 -73h-46z" />
<glyph unicode="&#xa4;" horiz-adv-x="1482" d="M100 133l199 199q-129 157 -129 364q0 210 135 377l-205 207l70 70l207 -207q160 137 358 137q212 0 375 -137l207 207l69 -70l-208 -209q139 -172 139 -375q0 -202 -131 -362l200 -201l-69 -70l-201 199q-159 -143 -381 -143q-103 0 -198 37t-170 104l-197 -197z M266 705q0 -130 64 -242t173.5 -178t237.5 -66q129 0 239 66t174.5 178t64.5 242q0 201 -141 345t-337 144q-128 0 -237.5 -66t-173.5 -178.5t-64 -244.5z" />
<glyph unicode="&#xa5;" horiz-adv-x="1431" d="M80 1331v58q5 -1 24.5 -4.5t32.5 -4.5q123 -6 164 -6q105 0 252 15v-58q-26 -2 -74.5 -5.5t-75.5 -6.5l353 -623h16l338 592l-149 43v58l49 -9q99 -6 147 -6q94 0 244 15v-58q-60 -9 -141 -12l-306 -479h258l-2 -70q-27 -2 -88 -2q-127 0 -215 -2l-92 -143h391l-4 -70 h-117l-280 -6l-14 -445l145 -45v-57l-53 6q-140 8 -152 8q-111 0 -248 -14v57q26 2 57 5.5t51.5 5.5t41.5 2l10 473q-258 -11 -397 -23l4 103h385l-78 135q-175 -10 -303 -21l4 103h252l-260 448z" />
<glyph unicode="&#xa6;" horiz-adv-x="452" d="M176 295h100v-696h-100v696zM176 858v696h100v-696h-100z" />
<glyph unicode="&#xa7;" horiz-adv-x="919" d="M82 799q0 110 34.5 221t95 202t152 148t195.5 57q90 0 180 -22l-4 -154q-165 74 -344 74q-13 -15 -24 -46.5t-11 -64.5q0 -57 34.5 -121t111.5 -167q66 -87 105 -141t88 -134t75.5 -144t45 -144.5t18.5 -161.5q0 -84 -22 -173t-66.5 -171.5t-105 -147.5t-143.5 -104 t-175 -39q-103 0 -181 22l4 154q168 -74 344 -74q35 35 35 109q0 88 -40.5 172.5t-137.5 206.5q-137 178 -200.5 320t-63.5 323zM178 889q0 -73 15.5 -142.5t47.5 -138t57.5 -112.5t68.5 -111q21 -32 64.5 -97t61.5 -92.5t46.5 -76.5t40.5 -78t22 -66t10 -69q0 -69 -12 -125 l21 -6q104 162 104 340q0 63 -11 121t-25.5 101.5t-48 103.5t-58.5 97.5t-76 112.5q-10 14 -56.5 73.5t-65 88t-48.5 81t-42.5 101t-12.5 99.5q0 6 1 33t1 59l-21 6q-43 -77 -63.5 -142.5t-20.5 -160.5z" />
<glyph unicode="&#xa8;" horiz-adv-x="700" d="M104 1198q11 94 11 111q2 12 2 34l135 29l33 -35q-11 -70 -11 -108q-2 -14 -2 -35l-133 -29zM418 1198q4 30 10 111v34l135 29l35 -35q-10 -64 -10 -108q-2 -14 -2 -35l-133 -29z" />
<glyph unicode="&#xa9;" horiz-adv-x="1644" d="M92 696q0 150 58 285.5t156.5 234t234.5 156.5t286 58q198 0 367 -98t268 -267.5t99 -368.5t-99 -368t-268 -267t-367 -98q-200 0 -369 98t-267.5 266.5t-98.5 368.5zM164 696q0 -135 52.5 -257.5t141 -211.5t211.5 -141.5t258 -52.5q178 0 331 89t243 242t90 332 q0 134 -53 257t-142.5 212t-212.5 142t-256 53q-180 0 -333 -89.5t-241.5 -242t-88.5 -332.5zM393 688q0 124 65.5 226.5t177.5 160.5t245 58q142 0 270 -35l-14 -197h-64l-10 111q-1 1 -11.5 6.5t-13.5 7l-14 7t-16 7.5t-16.5 6.5t-19.5 7t-20 5.5t-23 4.5t-24 2.5t-26 1 q-145 0 -251 -95.5t-106 -248.5q0 -92 33.5 -165t88.5 -116t120 -65.5t133 -22.5q92 0 205 29l16 -57q-58 -27 -131.5 -40.5t-132.5 -13.5q-127 0 -232.5 53t-167 148.5t-61.5 214.5z" />
<glyph unicode="&#xaa;" horiz-adv-x="872" d="M104 883q0 167 62 314.5t160 233t204 85.5q33 0 60 -3t62.5 -10t54.5 -10q-27 -262 -27 -631q53 6 131 43l18 -41q-44 -31 -134 -60.5t-126 -29.5l-30 29q15 131 26 321l-10 4q-68 -139 -158 -233.5t-186 -120.5l-100 29q-1 7 -4 35.5t-3 44.5zM229 973q0 -29 4 -99 q35 6 89 49t107.5 107t94.5 152.5t47 173.5l4 53q-70 18 -102 18q-118 0 -181 -123t-63 -331z" />
<glyph unicode="&#xab;" horiz-adv-x="944" d="M51 522l522 459l33 -31l-334 -428l303 -405l-32 -31zM438 522l396 379l22 -27l-209 -352l184 -354l-24 -23z" />
<glyph unicode="&#xac;" horiz-adv-x="1191" d="M160 598v98h880v-352h-98v254h-782z" />
<glyph unicode="&#xad;" horiz-adv-x="847" d="M135 430l4 117h566l-5 -117h-565z" />
<glyph unicode="&#xae;" horiz-adv-x="1116" d="M100 958q0 197 137.5 334.5t333.5 137.5q127 0 235.5 -63t172 -171.5t63.5 -237.5t-63.5 -237.5t-172 -171t-235.5 -62.5q-97 0 -184 37t-150 100t-100 150t-37 184zM156 956q0 -170 121.5 -291.5t291.5 -121.5q169 0 291.5 121.5t122.5 291.5q0 169 -122.5 291.5 t-291.5 122.5q-170 0 -291.5 -122.5t-121.5 -291.5zM350 694v45l56 4q1 43 4.5 111t3.5 74q10 212 10 258l-55 20v43q6 -2 22 -2h62q14 0 52 3t68 3q82 0 125 -42.5t43 -104.5q0 -64 -27 -102.5t-85 -65.5l119 -186l71 -25l-4 -33h-127l-135 228q-28 -4 -59 -4 q0 -34 -3.5 -95.5t-3.5 -64.5l56 -19v-45l-27 4q-28 4 -61 4q-40 0 -105 -8zM494 958h10q71 0 113 34t42 100q0 49 -26.5 82.5t-89.5 33.5q-25 0 -41 -2z" />
<glyph unicode="&#xaf;" horiz-adv-x="1181" d="M264 1180l4 116h566l-5 -116h-565z" />
<glyph unicode="&#xb0;" horiz-adv-x="583" d="M96 1217q0 92 62.5 154.5t154.5 62.5t154.5 -62.5t62.5 -154.5t-62.5 -155t-154.5 -63t-154.5 63t-62.5 155zM174 1217q0 -59 39.5 -99.5t99.5 -40.5q59 0 99.5 40.5t40.5 99.5q0 60 -40.5 99.5t-99.5 39.5q-60 0 -99.5 -39.5t-39.5 -99.5z" />
<glyph unicode="&#xb1;" horiz-adv-x="1202" d="M127 156v98h942v-98h-942zM127 682v98h422v422h98v-422h422v-98h-422v-328h-98v328h-422z" />
<glyph unicode="&#xb2;" horiz-adv-x="600" d="M63 852q140 144 185 198q145 175 145 316q0 60 -28.5 90.5t-73.5 30.5q-35 0 -75 -17.5t-71 -46.5l-26 33q85 98 211 98q73 0 125.5 -44.5t52.5 -127.5q0 -85 -65.5 -185.5t-249.5 -281.5l206 7q38 5 55 21t33 71l37 -8q-26 -104 -39 -181h-409z" />
<glyph unicode="&#xb3;" horiz-adv-x="577" d="M70 858l57 90q58 -65 127 -65q71 0 117.5 44.5t46.5 131.5q0 62 -33 96.5t-98 34.5q-29 0 -64 -12l-14 43l27 8q59 16 101 63t42 111q0 39 -22.5 61.5t-67.5 22.5q-62 0 -137 -64l-29 33q86 98 209 98q69 0 110 -33.5t41 -95.5q0 -104 -127 -176q78 -4 124 -51t46 -113 q0 -74 -50.5 -137.5t-125.5 -98t-151 -34.5q-80 0 -129 43z" />
<glyph unicode="&#xb4;" horiz-adv-x="581" d="M102 1165l252 379q45 -45 125 -88l-329 -323z" />
<glyph unicode="&#xb6;" horiz-adv-x="974" d="M76 1122q0 118 83.5 193.5t211.5 75.5q19 0 116.5 -4.5t178.5 -4.5q100 0 247 9v-58q-27 -3 -76 -6t-73 -6l-66 -1866h-96l64 1833h-172l-66 -1833h-96l49 1419h-29q-142 0 -209 72t-67 176z" />
<glyph unicode="&#xb7;" horiz-adv-x="417" d="M117 637q1 10 10 117q0 27 2 37l145 30l37 -37q-6 -44 -12 -114v-37l-145 -33z" />
<glyph unicode="&#xb8;" horiz-adv-x="542" d="M98 -422l4 113q88 -47 168 -47q87 0 117 77q-44 55 -186 117l35 205h73l-20 -127q160 -65 160 -158q0 -83 -74 -140.5t-174 -57.5q-53 0 -103 18z" />
<glyph unicode="&#xb9;" horiz-adv-x="497" d="M86 1395q133 61 223 159h41q-13 -476 -18 -575v-6q0 -60 15 -80t52 -25l29 -4v-39l-37 4q-57 5 -102 5q-67 0 -166 -9v39q27 1 57.5 4t42.5 4l19 562l-41 -27q-57 -32 -99 -47z" />
<glyph unicode="&#xba;" horiz-adv-x="727" d="M100 1077q0 74 26 151t72.5 141.5t118.5 105.5t156 41q57 0 98 -26t63 -71t32 -97t10 -114q0 -53 -15 -111.5t-46 -115.5t-72.5 -103t-100 -74t-123.5 -28q-58 0 -102 25t-68.5 68.5t-36.5 95t-12 112.5zM211 1151q0 -168 100 -279h138q47 31 80.5 105t33.5 166 q0 171 -102 278h-135q-46 -30 -80.5 -104.5t-34.5 -165.5z" />
<glyph unicode="&#xbb;" horiz-adv-x="942" d="M86 168l209 354l-184 352l24 27l369 -379l-393 -377zM338 117l332 405l-301 428l30 31l492 -459l-520 -436z" />
<glyph unicode="&#xbc;" horiz-adv-x="1224" d="M96 1192q131 61 223 160h41q-13 -475 -18 -576v-6q0 -60 15 -79.5t53 -24.5l28 -4v-39l-37 4q-46 4 -102 4q-78 0 -166 -8v39q27 1 57.5 4t42.5 4l19 561l-41 -27q-59 -33 -98 -47zM100 31l1004 1384l57 -39l-1003 -1392zM631 231l2 37l366 461l37 -16l-14 -420 q14 1 43 2t39 2l31 4l-25 -70h-90q0 -31 -0.5 -49t-1 -23.5t-0.5 -6.5q0 -36 4.5 -58t15.5 -32t19 -13t26 -6l33 -4v-39q-72 10 -145 10q-62 0 -160 -10v39q26 1 56 4t42 4l6 184h-284zM707 283q75 0 211 4l10 274z" />
<glyph unicode="&#xbd;" horiz-adv-x="1288" d="M96 1190q131 61 223 160h41q-13 -475 -18 -576v-6q0 -60 15 -79.5t53 -24.5l28 -5v-38l-37 4q-46 4 -102 4q-78 0 -166 -8v38q26 1 56.5 4.5t43.5 4.5l19 561l-41 -27q-59 -33 -98 -47zM100 31l1004 1384l57 -39l-1003 -1392zM741 27q140 144 185 198q145 175 145 316 q0 60 -28.5 90.5t-73.5 30.5q-35 0 -75 -17.5t-71 -46.5l-26 33q85 98 211 98q73 0 125.5 -44.5t52.5 -127.5q0 -85 -66 -185.5t-250 -281.5l207 6q38 5 55 21t33 71l37 -8q-27 -106 -39 -180h-409z" />
<glyph unicode="&#xbe;" horiz-adv-x="1255" d="M78 653l57 90q58 -65 127 -65q71 0 117.5 44.5t46.5 131.5q0 62 -33 96.5t-98 34.5q-29 0 -64 -12l-14 43l27 8q59 16 101 63t42 111q0 39 -22.5 61.5t-67.5 22.5q-63 0 -137 -63l-29 32q87 99 209 99q69 0 110.5 -33.5t41.5 -95.5q0 -105 -127 -177q78 -4 124 -50.5 t46 -112.5q0 -74 -51 -137.5t-126 -98.5t-151 -35q-80 0 -129 43zM131 31l1004 1384l57 -39l-1004 -1392zM662 231l2 37l366 461l37 -16l-14 -420q14 1 43 2t39 2l30 4l-24 -70h-90q0 -31 -0.5 -49t-1 -23.5t-0.5 -6.5q0 -36 4.5 -58t15.5 -32t19 -13t26 -6l33 -4v-39 q-72 10 -146 10q-61 0 -159 -10v39q26 1 56 4t42 4l6 184h-284zM737 283q75 0 211 4l10 274z" />
<glyph unicode="&#xbf;" horiz-adv-x="722" d="M41 -297q0 68 56 154.5t125 155t146.5 147t104.5 119.5q-4 24 -32 82t-52 94l39 32q133 -150 133 -229q0 -46 -53.5 -121t-122 -143.5t-148.5 -154.5t-116 -140q12 -119 194 -119q76 0 150 21.5t125 52.5l-4 -172q-79 -27 -211 -27q-144 0 -239 68.5t-95 179.5zM336 713 q2 11 10 116q0 27 2 35l146 33l36 -37q-7 -47 -12 -117q-3 -21 0 -36l-145 -31z" />
<glyph unicode="&#xc0;" horiz-adv-x="1265" d="M-53 0l2 57l53 6q15 1 45.5 4t40.5 3q121 253 267.5 629.5t258.5 719.5l80 23l414 -1340l170 -45l-2 -57q-102 12 -232 12q-135 0 -249 -12l2 57l141 13l-115 415h-39q-200 0 -422 -20l-129 -363l164 -45l-2 -57q-126 14 -207 14q-80 0 -241 -14zM279 1759q44 54 86 127 l358 -291l-39 -49zM395 555h408l-168 614h-29z" />
<glyph unicode="&#xc1;" horiz-adv-x="1265" d="M-53 0l2 57l53 6q15 1 45.5 4t40.5 3q121 253 267.5 629.5t258.5 719.5l80 23l414 -1340l170 -45l-2 -57q-102 12 -232 12q-135 0 -249 -12l2 57l141 13l-115 415h-39q-200 0 -422 -20l-129 -363l164 -45l-2 -57q-126 14 -207 14q-80 0 -241 -14zM395 555h408l-168 614 h-29zM608 1591l342 301q42 -72 99 -118l-404 -228z" />
<glyph unicode="&#xc2;" horiz-adv-x="1265" d="M-53 0l2 57l53 6q15 1 45.5 4t40.5 3q121 253 267.5 629.5t258.5 719.5l80 23l414 -1340l170 -45l-2 -57q-102 12 -232 12q-135 0 -249 -12l2 57l141 13l-115 415h-39q-200 0 -422 -20l-129 -363l164 -45l-2 -57q-126 14 -207 14q-80 0 -241 -14zM326 1587l307 268h82 l289 -268l-43 -41l-291 178l-305 -178zM395 555h408l-168 614h-29z" />
<glyph unicode="&#xc3;" horiz-adv-x="1265" d="M-53 0l2 57l53 6q15 1 45.5 4t40.5 3q121 253 267.5 629.5t258.5 719.5l80 23l414 -1340l170 -45l-2 -57q-102 12 -232 12q-135 0 -249 -12l2 57l141 13l-115 415h-39q-200 0 -422 -20l-129 -363l164 -45l-2 -57q-126 14 -207 14q-80 0 -241 -14zM352 1593l180 199h60 q145 -87 291 -115l45 41q11 10 86 74l30 -31l-190 -207h-63q-145 47 -259 140l-55 -49l-96 -82zM395 555h408l-168 614h-29z" />
<glyph unicode="&#xc4;" horiz-adv-x="1265" d="M-53 0l2 57l53 6q15 1 45.5 4t40.5 3q121 253 267.5 629.5t258.5 719.5l80 23l414 -1340l170 -45l-2 -57q-102 12 -232 12q-135 0 -249 -12l2 57l141 13l-115 415h-39q-200 0 -422 -20l-129 -363l164 -45l-2 -57q-126 14 -207 14q-80 0 -241 -14zM395 555h408l-168 614 h-29zM418 1581q10 85 10 111q2 12 2 34l135 29l33 -35q-10 -64 -10 -108q-2 -14 -2 -33l-133 -31zM766 1581q10 85 10 111q2 12 2 34l133 29l35 -35q-10 -64 -10 -108q-2 -14 -2 -33l-133 -31z" />
<glyph unicode="&#xc5;" horiz-adv-x="1265" d="M-53 0l2 57l53 6q15 1 45.5 4t40.5 3q121 253 267.5 629.5t258.5 719.5l80 23l414 -1340l170 -45l-2 -57q-102 12 -232 12q-135 0 -249 -12l2 57l141 13l-115 415h-39q-200 0 -422 -20l-129 -363l164 -45l-2 -57q-126 14 -207 14q-80 0 -241 -14zM395 555h408l-168 614 h-29zM459 1722q0 82 63 143.5t162 61.5q90 0 138 -48.5t48 -119.5q0 -89 -66 -151t-157 -62q-97 0 -142.5 51t-45.5 125zM543 1737q0 -50 32 -90.5t89 -40.5q55 0 86.5 34.5t31.5 96.5q0 48 -32 90.5t-88 42.5q-54 0 -86.5 -39t-32.5 -94z" />
<glyph unicode="&#xc6;" horiz-adv-x="1691" d="M-98 2l2 57l53 7q11 1 42 3.5t44 2.5l745 1216l-176 47l2 58q185 -21 482 -21q271 0 520 19l-33 -338h-59l-31 225l-436 31q-16 -173 -19 -322l-10 -225l426 22l-8 -127q-72 10 -152.5 17t-170 12t-99.5 6l-16 -614l450 16l103 211h61l-78 -325q-152 5 -361 18.5 t-245 13.5q-120 0 -238 -12l2 57q24 2 55 5.5t52 5.5t43 2l12 417q-196 0 -475 -22l-211 -363l172 -43l-2 -57q-126 14 -205 14q-80 0 -241 -14zM436 557h430l25 752h-17z" />
<glyph unicode="&#xc7;" horiz-adv-x="1411" d="M92 666q0 217 103.5 389t289 268t420.5 96q250 0 461 -57l-29 -334h-59l-27 221q-143 97 -331 97q-127 0 -241.5 -41.5t-203.5 -119t-141.5 -197.5t-52.5 -267q0 -130 39.5 -241t105 -188t151.5 -131.5t178 -80t185 -25.5q96 0 169 13.5t183 50.5l21 -58 q-97 -49 -218 -69.5t-227 -20.5q-39 0 -57 2l-8 -57q160 -64 160 -158q0 -83 -75 -140.5t-173 -57.5q-55 0 -105 18l4 113q96 -47 168 -47q87 0 117 77q-23 33 -68 59t-116 58l22 142q-18 3 -78 16q-252 56 -409.5 238t-157.5 432z" />
<glyph unicode="&#xc8;" horiz-adv-x="1052" d="M61 0l2 57q23 2 54.5 5.5t52.5 5.5t43 2l41 1218l-145 45v58q4 0 28 -4t41 -5q147 -6 232 -6h239q131 0 328 15l-33 -338h-59l-31 225l-436 31q-16 -173 -19 -322l-10 -225l426 22l-8 -127q-72 10 -152.5 17t-170 12t-99.5 6l-16 -614l450 16l103 211h61l-78 -325 q-152 5 -361 18.5t-245 13.5q-120 0 -238 -12zM322 1759q44 54 86 127l358 -291l-39 -49z" />
<glyph unicode="&#xc9;" horiz-adv-x="1052" d="M61 0l2 57q23 2 54.5 5.5t52.5 5.5t43 2l41 1218l-145 45v58q4 0 28 -4t41 -5q147 -6 232 -6h239q131 0 328 15l-33 -338h-59l-31 225l-436 31q-16 -173 -19 -322l-10 -225l426 22l-8 -127q-72 10 -152.5 17t-170 12t-99.5 6l-16 -614l450 16l103 211h61l-78 -325 q-152 5 -361 18.5t-245 13.5q-120 0 -238 -12zM393 1591l342 301q42 -72 99 -118l-404 -228z" />
<glyph unicode="&#xca;" horiz-adv-x="1052" d="M61 0l2 57q23 2 54.5 5.5t52.5 5.5t43 2l41 1218l-145 45v58q4 0 28 -4t41 -5q147 -6 232 -6h239q131 0 328 15l-33 -338h-59l-31 225l-436 31q-16 -173 -19 -322l-10 -225l426 22l-8 -127q-72 10 -152.5 17t-170 12t-99.5 6l-16 -614l450 16l103 211h61l-78 -325 q-152 5 -361 18.5t-245 13.5q-120 0 -238 -12zM256 1587l307 268h82l289 -268l-43 -41l-291 178l-305 -178z" />
<glyph unicode="&#xcb;" horiz-adv-x="1052" d="M61 0l2 57q23 2 54.5 5.5t52.5 5.5t43 2l41 1218l-145 45v58q4 0 28 -4t41 -5q147 -6 232 -6h239q131 0 328 15l-33 -338h-59l-31 225l-436 31q-16 -173 -19 -322l-10 -225l426 22l-8 -127q-72 10 -152.5 17t-170 12t-99.5 6l-16 -614l450 16l103 211h61l-78 -325 q-152 5 -361 18.5t-245 13.5q-120 0 -238 -12zM358 1581q11 93 11 111q2 12 2 34l135 29l33 -35q-11 -70 -11 -108q-2 -14 -2 -33l-133 -31zM707 1581q10 85 10 111q2 12 2 34l133 29l35 -35q-10 -64 -10 -108q-3 -21 -3 -33l-133 -31z" />
<glyph unicode="&#xcc;" horiz-adv-x="614" d="M-53 1759q44 54 86 127l358 -291l-39 -49zM63 0v57q23 2 54.5 5.5t52.5 5.5t43 2l41 1218l-145 45v58l22.5 -4.5t28.5 -4.5q105 -6 151 -6q101 0 248 15v-58q-27 -3 -74.5 -6t-72.5 -6l-41 -1219l143 -45v-57l-51 6q-140 8 -154 8q-109 0 -246 -14z" />
<glyph unicode="&#xcd;" horiz-adv-x="614" d="M63 0v57q23 2 54.5 5.5t52.5 5.5t43 2l41 1218l-145 45v58l22.5 -4.5t28.5 -4.5q105 -6 151 -6q101 0 248 15v-58q-27 -3 -74.5 -6t-72.5 -6l-41 -1219l143 -45v-57l-51 6q-140 8 -154 8q-109 0 -246 -14zM252 1591l342 301q42 -74 98 -118l-403 -228z" />
<glyph unicode="&#xce;" horiz-adv-x="614" d="M8 1587l307 268h82l289 -268l-43 -41l-291 178l-305 -178zM63 0v57q23 2 54.5 5.5t52.5 5.5t43 2l41 1218l-145 45v58l22.5 -4.5t28.5 -4.5q105 -6 151 -6q101 0 248 15v-58q-27 -3 -74.5 -6t-72.5 -6l-41 -1219l143 -45v-57l-51 6q-140 8 -154 8q-109 0 -246 -14z" />
<glyph unicode="&#xcf;" horiz-adv-x="614" d="M63 0v57q23 2 54.5 5.5t52.5 5.5t43 2l41 1218l-145 45v58l22.5 -4.5t28.5 -4.5q105 -6 151 -6q101 0 248 15v-58q-27 -3 -74.5 -6t-72.5 -6l-41 -1219l143 -45v-57l-51 6q-140 8 -154 8q-109 0 -246 -14zM84 1581q10 85 10 111q2 12 2 34l135 29l33 -35 q-10 -64 -10 -108q-2 -14 -2 -33l-133 -31zM432 1581q10 85 10 111q2 12 2 34l134 29l34 -35q-10 -64 -10 -108q-2 -14 -2 -33l-133 -31z" />
<glyph unicode="&#xd0;" horiz-adv-x="1638" d="M6 659l4 103h297l19 526l-146 45v58l64 -9q117 -6 149 -6q69 0 223.5 12.5t245.5 12.5q308 0 498 -193t190 -506q0 -64 -11 -130t-37.5 -137t-66 -134.5t-101.5 -121.5t-139 -100t-183 -66.5t-230 -24.5q-60 0 -201 12t-212 12q-107 0 -234 -12v57q26 2 56 5.5t50.5 5.5 t43.5 2l18 610q-179 -11 -297 -21zM440 102q149 -49 293 -49q49 0 98.5 5t114 22t120.5 44t112.5 75.5t96 112t64.5 158.5t25 210q0 67 -8 129t-29 128t-53 122t-83 106t-116 85.5t-155.5 56t-198.5 20.5q-156 0 -238 -10l-20 -555h366l-2 -70q-158 0 -366 -8z" />
<glyph unicode="&#xd1;" horiz-adv-x="1615" d="M51 0v57q82 13 150 13l26 772q4 152 4 258q0 203 -8 291l82 30l981 -1171l33 1038l-145 45v58l63 -7q117 -6 141 -6q84 0 195 13v-58q-68 -9 -150 -12q-2 -70 -11 -294.5t-13 -398.5t-4 -362q0 -74 4 -266l-86 -29l-981 1157l-27 -1026l146 -45v-57l-62 6q-117 6 -143 6 q-87 0 -195 -12zM530 1593l181 199h59q145 -87 291 -115l45 41q11 10 86 74l31 -31l-191 -207h-63q-143 46 -258 140l-56 -49l-96 -82z" />
<glyph unicode="&#xd2;" d="M94 690q0 155 54.5 290t151.5 231.5t237.5 152t304.5 55.5q117 0 221 -39t179.5 -106.5t130.5 -156t82.5 -188.5t27.5 -202q0 -163 -54.5 -305.5t-146.5 -240.5t-216 -154t-261 -56q-139 0 -256.5 40.5t-200 110t-141 161.5t-86 195.5t-27.5 211.5zM281 711 q0 -104 22 -201.5t66.5 -181.5t106.5 -147.5t147.5 -99.5t183.5 -36q118 0 211.5 47.5t152.5 131.5t90 194.5t31 240.5q0 191 -62 347.5t-175.5 248t-257.5 91.5q-60 0 -118 -13t-117.5 -41t-109 -78t-88.5 -117.5t-61 -166.5t-22 -219zM504 1759q44 54 86 127l358 -291 l-39 -49z" />
<glyph unicode="&#xd3;" d="M94 690q0 155 54.5 290t151.5 231.5t237.5 152t304.5 55.5q117 0 221 -39t179.5 -106.5t130.5 -156t82.5 -188.5t27.5 -202q0 -163 -54.5 -305.5t-146.5 -240.5t-216 -154t-261 -56q-139 0 -256.5 40.5t-200 110t-141 161.5t-86 195.5t-27.5 211.5zM281 711 q0 -104 22 -201.5t66.5 -181.5t106.5 -147.5t147.5 -99.5t183.5 -36q118 0 211.5 47.5t152.5 131.5t90 194.5t31 240.5q0 191 -62 347.5t-175.5 248t-257.5 91.5q-60 0 -118 -13t-117.5 -41t-109 -78t-88.5 -117.5t-61 -166.5t-22 -219zM692 1591l342 301q42 -72 99 -118 l-404 -228z" />
<glyph unicode="&#xd4;" d="M94 690q0 155 54.5 290t151.5 231.5t237.5 152t304.5 55.5q117 0 221 -39t179.5 -106.5t130.5 -156t82.5 -188.5t27.5 -202q0 -163 -54.5 -305.5t-146.5 -240.5t-216 -154t-261 -56q-139 0 -256.5 40.5t-200 110t-141 161.5t-86 195.5t-27.5 211.5zM281 711 q0 -104 22 -201.5t66.5 -181.5t106.5 -147.5t147.5 -99.5t183.5 -36q118 0 211.5 47.5t152.5 131.5t90 194.5t31 240.5q0 191 -62 347.5t-175.5 248t-257.5 91.5q-60 0 -118 -13t-117.5 -41t-109 -78t-88.5 -117.5t-61 -166.5t-22 -219zM489 1587l308 268h82l288 -268 l-43 -41l-290 178l-306 -178z" />
<glyph unicode="&#xd5;" d="M94 690q0 155 54.5 290t151.5 231.5t237.5 152t304.5 55.5q117 0 221 -39t179.5 -106.5t130.5 -156t82.5 -188.5t27.5 -202q0 -163 -54.5 -305.5t-146.5 -240.5t-216 -154t-261 -56q-139 0 -256.5 40.5t-200 110t-141 161.5t-86 195.5t-27.5 211.5zM281 711 q0 -104 22 -201.5t66.5 -181.5t106.5 -147.5t147.5 -99.5t183.5 -36q118 0 211.5 47.5t152.5 131.5t90 194.5t31 240.5q0 191 -62 347.5t-175.5 248t-257.5 91.5q-60 0 -118 -13t-117.5 -41t-109 -78t-88.5 -117.5t-61 -166.5t-22 -219zM500 1593l180 199h59 q145 -87 291 -115l45 41q11 10 86 74l31 -31l-191 -207h-63q-143 46 -258 140l-55 -49l-97 -82z" />
<glyph unicode="&#xd6;" d="M94 690q0 155 54.5 290t151.5 231.5t237.5 152t304.5 55.5q117 0 221 -39t179.5 -106.5t130.5 -156t82.5 -188.5t27.5 -202q0 -163 -54.5 -305.5t-146.5 -240.5t-216 -154t-261 -56q-139 0 -256.5 40.5t-200 110t-141 161.5t-86 195.5t-27.5 211.5zM281 711 q0 -104 22 -201.5t66.5 -181.5t106.5 -147.5t147.5 -99.5t183.5 -36q118 0 211.5 47.5t152.5 131.5t90 194.5t31 240.5q0 191 -62 347.5t-175.5 248t-257.5 91.5q-60 0 -118 -13t-117.5 -41t-109 -78t-88.5 -117.5t-61 -166.5t-22 -219zM563 1581q10 85 10 111q2 12 2 34 l136 29l32 -35q-10 -64 -10 -108q-2 -14 -2 -33l-133 -31zM911 1581q11 93 11 111q2 12 2 34l133 29l35 -35q-11 -70 -11 -108q-2 -14 -2 -33l-133 -31z" />
<glyph unicode="&#xd7;" horiz-adv-x="1069" d="M127 305l342 342l-342 342l70 70l342 -342l342 342l69 -70l-342 -342l342 -342l-69 -69l-342 342l-342 -342z" />
<glyph unicode="&#xd8;" d="M94 690q0 155 54.5 290t151.5 231.5t237.5 152t304.5 55.5q185 0 338 -98l123 182l63 -45l-123 -184q115 -102 177.5 -246t62.5 -301q0 -163 -54.5 -305.5t-146.5 -240.5t-216 -154t-261 -56q-215 0 -371 92l-155 -233l-64 41l156 233q-134 98 -205.5 256t-71.5 330z M281 711q0 -145 41.5 -274t121.5 -224l662 993q-131 140 -309 140q-60 0 -118 -13t-117.5 -41t-109 -78t-88.5 -117.5t-61 -166.5t-22 -219zM498 160q127 -115 309 -115q118 0 211.5 47.5t152.5 131.5t90 194.5t31 240.5q0 293 -137 484z" />
<glyph unicode="&#xd9;" horiz-adv-x="1497" d="M78 1333v58l51 -9q105 -6 154 -6q100 0 247 15v-58q-25 -2 -73.5 -5.5t-75.5 -6.5q-29 -818 -29 -850q0 -209 99.5 -311.5t308.5 -102.5q415 0 430 478l29 753l-148 45v58q6 -1 21.5 -4.5t25.5 -4.5q93 -6 144 -6q94 0 241 15v-58q-26 -2 -73 -5.5t-76 -6.5l-68 -797 q-48 -553 -541 -553q-260 0 -406 107.5t-146 322.5q0 85 12.5 424.5t19.5 462.5zM506 1759q44 54 86 127l358 -291l-39 -49z" />
<glyph unicode="&#xda;" horiz-adv-x="1497" d="M78 1333v58l51 -9q105 -6 154 -6q100 0 247 15v-58q-25 -2 -73.5 -5.5t-75.5 -6.5q-29 -818 -29 -850q0 -209 99.5 -311.5t308.5 -102.5q415 0 430 478l29 753l-148 45v58q6 -1 21.5 -4.5t25.5 -4.5q93 -6 144 -6q94 0 241 15v-58q-26 -2 -73 -5.5t-76 -6.5l-68 -797 q-48 -553 -541 -553q-260 0 -406 107.5t-146 322.5q0 85 12.5 424.5t19.5 462.5zM672 1591l342 301q42 -74 98 -118l-403 -228z" />
<glyph unicode="&#xdb;" horiz-adv-x="1497" d="M78 1333v58l51 -9q105 -6 154 -6q100 0 247 15v-58q-25 -2 -73.5 -5.5t-75.5 -6.5q-29 -818 -29 -850q0 -209 99.5 -311.5t308.5 -102.5q415 0 430 478l29 753l-148 45v58q6 -1 21.5 -4.5t25.5 -4.5q93 -6 144 -6q94 0 241 15v-58q-26 -2 -73 -5.5t-76 -6.5l-68 -797 q-48 -553 -541 -553q-260 0 -406 107.5t-146 322.5q0 85 12.5 424.5t19.5 462.5zM471 1587l307 268h82l289 -268l-43 -41l-291 178l-305 -178z" />
<glyph unicode="&#xdc;" horiz-adv-x="1497" d="M78 1333v58l51 -9q105 -6 154 -6q100 0 247 15v-58q-25 -2 -73.5 -5.5t-75.5 -6.5q-29 -818 -29 -850q0 -209 99.5 -311.5t308.5 -102.5q415 0 430 478l29 753l-148 45v58q6 -1 21.5 -4.5t25.5 -4.5q93 -6 144 -6q94 0 241 15v-58q-26 -2 -73 -5.5t-76 -6.5l-68 -797 q-48 -553 -541 -553q-260 0 -406 107.5t-146 322.5q0 85 12.5 424.5t19.5 462.5zM549 1581q10 85 10 111q2 12 2 34l135 29l33 -35q-10 -64 -10 -108q-2 -14 -2 -33l-133 -31zM897 1581q10 85 10 111q2 12 2 34l133 29l35 -35q-10 -64 -10 -108q-2 -14 -2 -33l-133 -31z" />
<glyph unicode="&#xdd;" horiz-adv-x="1243" d="M-23 1331v58q5 -1 26 -4.5t34 -4.5q117 -6 162 -6q105 0 252 15v-58q-39 -7 -86 -8.5t-64 -3.5l352 -623h17l338 592l-150 43v58l49 -9q99 -6 148 -6q96 0 243 15v-58q-60 -9 -141 -12l-452 -711l-17 -506l146 -45v-57l-54 6q-132 8 -151 8q-111 0 -248 -14v57 q26 2 56.5 5.5t51 5.5t41.5 2l13 536l-396 682zM504 1591l342 301q42 -74 98 -118l-403 -228z" />
<glyph unicode="&#xde;" horiz-adv-x="1091" d="M63 0v57q26 2 57 5.5t51.5 5.5t41.5 2l43 1218l-147 45v58q4 -1 22.5 -4.5t30.5 -4.5q99 -6 151 -6q101 0 248 15v-58q-26 -2 -73 -5.5t-76 -6.5l-9 -211q2 0 70.5 5t122.5 5q110 0 195.5 -31.5t137.5 -85.5t78.5 -122.5t26.5 -147.5q0 -120 -60 -218.5t-162 -154 t-224 -55.5q-61 0 -99 10l3 64q34 -6 67 -6q140 0 227.5 95.5t87.5 246.5q0 163 -90.5 251.5t-267.5 88.5q-54 0 -115 -11l-30 -942l145 -45v-57l-51 6q-140 8 -154 8q-111 0 -248 -14z" />
<glyph unicode="&#xdf;" horiz-adv-x="1087" d="M-205 -522l4 153q89 -33 183.5 -50t150.5 -17q61 158 72 456q0 397 22 768q-30 -3 -91 -7t-91 -7l4 103h180q1 53 9 155q10 133 49 236.5t97 164t124 91t137 30.5q115 0 180.5 -64t65.5 -165q0 -77 -27 -154t-71.5 -141t-92 -114.5t-98.5 -90.5q153 -102 280.5 -265 t127.5 -275q0 -79 -25.5 -139.5t-69.5 -95.5t-97.5 -52.5t-115.5 -17.5q-149 0 -251 69l34 234h47v-111q102 -102 232 -102q77 0 110 40t35 132q-30 74 -76 144t-109 138t-107.5 110.5t-116.5 106.5l4 62q35 43 60.5 77t64.5 96t64 118t44 130t19 144q-42 44 -115.5 71 t-132.5 27q-131 -110 -143 -446q0 -106 -14 -515.5t-21 -496.5q-20 -268 -117 -410.5t-238 -142.5q-98 0 -180 23z" />
<glyph unicode="&#xe0;" horiz-adv-x="978" d="M61 113q0 155 45.5 301t119 251t170 168.5t194.5 63.5q18 0 34 -0.5t33.5 -2.5t28 -3t30 -5t27 -5.5t31 -6t31.5 -6.5q-35 -353 -35 -790q76 10 168 53l16 -39q-58 -39 -162 -75.5t-147 -36.5l-35 34q8 51 20.5 180.5t16.5 219.5l-14 4q-87 -163 -212 -284t-249 -154 l-104 34q-7 39 -7 99zM209 217q0 -35 4 -113q37 5 90 34t112.5 83.5t111 124t87.5 165t41 196.5l7 65q-102 25 -146 25q-100 0 -170 -75.5t-103.5 -204t-33.5 -300.5zM333 1444q82 63 119 100l271 -373l-50 -38z" />
<glyph unicode="&#xe1;" horiz-adv-x="978" d="M61 113q0 155 45.5 301t119 251t170 168.5t194.5 63.5q18 0 34 -0.5t33.5 -2.5t28 -3t30 -5t27 -5.5t31 -6t31.5 -6.5q-35 -353 -35 -790q76 10 168 53l16 -39q-58 -39 -162 -75.5t-147 -36.5l-35 34q8 51 20.5 180.5t16.5 219.5l-14 4q-87 -163 -212 -284t-249 -154 l-104 34q-7 39 -7 99zM209 217q0 -35 4 -113q37 5 90 34t112.5 83.5t111 124t87.5 165t41 196.5l7 65q-102 25 -146 25q-100 0 -170 -75.5t-103.5 -204t-33.5 -300.5zM485 1165l252 379q45 -45 125 -88l-330 -323z" />
<glyph unicode="&#xe2;" horiz-adv-x="978" d="M61 113q0 155 45.5 301t119 251t170 168.5t194.5 63.5q18 0 34 -0.5t33.5 -2.5t28 -3t30 -5t27 -5.5t31 -6t31.5 -6.5q-35 -353 -35 -790q76 10 168 53l16 -39q-58 -39 -162 -75.5t-147 -36.5l-35 34q8 51 20.5 180.5t16.5 219.5l-14 4q-87 -163 -212 -284t-249 -154 l-104 34q-7 39 -7 99zM209 217q0 -35 4 -113q37 5 90 34t112.5 83.5t111 124t87.5 165t41 196.5l7 65q-102 25 -146 25q-100 0 -170 -75.5t-103.5 -204t-33.5 -300.5zM278 1174l269 319h82l245 -319l-43 -41l-247 243l-267 -243z" />
<glyph unicode="&#xe3;" horiz-adv-x="978" d="M61 113q0 155 45.5 301t119 251t170 168.5t194.5 63.5q18 0 34 -0.5t33.5 -2.5t28 -3t30 -5t27 -5.5t31 -6t31.5 -6.5q-35 -353 -35 -790q76 10 168 53l16 -39q-58 -39 -162 -75.5t-147 -36.5l-35 34q8 51 20.5 180.5t16.5 219.5l-14 4q-87 -163 -212 -284t-249 -154 l-104 34q-7 39 -7 99zM209 217q0 -35 4 -113q37 5 90 34t112.5 83.5t111 124t87.5 165t41 196.5l7 65q-102 25 -146 25q-100 0 -170 -75.5t-103.5 -204t-33.5 -300.5zM264 1210l180 199h60q145 -87 291 -115l45 41l86 74l30 -31l-190 -207h-64q-82 27 -138.5 59t-119.5 81 l-55 -49l-96 -82z" />
<glyph unicode="&#xe4;" horiz-adv-x="978" d="M61 113q0 155 45.5 301t119 251t170 168.5t194.5 63.5q18 0 34 -0.5t33.5 -2.5t28 -3t30 -5t27 -5.5t31 -6t31.5 -6.5q-35 -353 -35 -790q76 10 168 53l16 -39q-58 -39 -162 -75.5t-147 -36.5l-35 34q8 51 20.5 180.5t16.5 219.5l-14 4q-87 -163 -212 -284t-249 -154 l-104 34q-7 39 -7 99zM209 217q0 -35 4 -113q37 5 90 34t112.5 83.5t111 124t87.5 165t41 196.5l7 65q-102 25 -146 25q-100 0 -170 -75.5t-103.5 -204t-33.5 -300.5zM307 1198q11 94 11 111q2 12 2 34l135 29l33 -35q-11 -70 -11 -108q-2 -14 -2 -35l-133 -29zM621 1198 q3 30 10 111v34l135 29l35 -35q-10 -64 -10 -108q-2 -14 -2 -35l-133 -29z" />
<glyph unicode="&#xe5;" horiz-adv-x="978" d="M61 113q0 155 45.5 301t119 251t170 168.5t194.5 63.5q18 0 34 -0.5t33.5 -2.5t28 -3t30 -5t27 -5.5t31 -6t31.5 -6.5q-35 -353 -35 -790q76 10 168 53l16 -39q-58 -39 -162 -75.5t-147 -36.5l-35 34q8 51 20.5 180.5t16.5 219.5l-14 4q-87 -163 -212 -284t-249 -154 l-104 34q-7 39 -7 99zM209 217q0 -35 4 -113q37 5 90 34t112.5 83.5t111 124t87.5 165t41 196.5l7 65q-102 25 -146 25q-100 0 -170 -75.5t-103.5 -204t-33.5 -300.5zM342 1309q0 82 62.5 143t162.5 61q92 0 139.5 -47.5t47.5 -119.5q0 -90 -66 -151.5t-158 -61.5 q-96 0 -142 51t-46 125zM426 1323q0 -51 31 -91t90 -40q56 0 87.5 35t31.5 96q0 48 -31.5 90.5t-89.5 42.5q-55 0 -87 -39t-32 -94z" />
<glyph unicode="&#xe6;" horiz-adv-x="1163" d="M61 113q0 155 45.5 301t119 251t170 168.5t194.5 63.5q18 0 34 -0.5t33.5 -2.5t28 -3t30 -5t27 -5.5t31 -6t31.5 -6.5q76 29 147 29q97 0 142 -45l-2 -119q-45 -67 -111 -127q-144 -133 -358 -198q10 -203 96 -304q79 11 155 52t177 118l26 -36q-54 -49 -94.5 -83 t-127.5 -88t-175 -87l-78 34q-75 78 -102 201q-76 -92 -161.5 -153.5t-166.5 -81.5l-106 34q-5 83 -5 99zM209 217q0 -35 4 -113q50 5 126.5 57.5t147.5 135.5q-2 14 -2 45q0 116 48 232.5t126 197.5q-103 25 -143 25q-100 0 -170 -75.5t-103.5 -204t-33.5 -300.5zM623 459 q189 86 284 192q45 51 70 99q-86 51 -191 51q-18 0 -26 -2q-63 -45 -97.5 -137t-39.5 -203z" />
<glyph unicode="&#xe7;" horiz-adv-x="731" d="M72 342q0 81 21.5 161t63.5 151t98.5 125.5t133.5 86t162 31.5q53 0 111 -12l-33 -123q-142 39 -291 39q-64 -50 -96.5 -147t-32.5 -214q0 -100 23.5 -190t70.5 -146q79 11 156.5 52.5t177.5 117.5l27 -36q-44 -41 -68 -62t-83 -63.5t-116 -71.5l-55 -31l-14 -94 q159 -64 159 -158q0 -83 -74.5 -140.5t-172.5 -57.5q-56 0 -105 18l4 113q96 -47 168 -47q86 0 119 77q-44 55 -186 117l22 144l-74 32q-116 124 -116 328z" />
<glyph unicode="&#xe8;" horiz-adv-x="747" d="M70 342q0 138 57.5 264t166.5 208.5t243 82.5q91 0 143 -45l-2 -119q-45 -67 -111 -127q-147 -136 -358 -198q3 -193 92 -304q80 11 156 52t180 118l25 -36q-54 -50 -94.5 -83.5t-128 -87.5t-177.5 -87l-76 34q-116 124 -116 328zM209 461q188 84 283 190q45 51 67 99 q-86 51 -188 51q-19 0 -29 -2q-61 -49 -97 -141.5t-36 -196.5zM223 1444q82 63 119 100l270 -373l-49 -38z" />
<glyph unicode="&#xe9;" horiz-adv-x="747" d="M70 342q0 138 57.5 264t166.5 208.5t243 82.5q91 0 143 -45l-2 -119q-45 -67 -111 -127q-147 -136 -358 -198q3 -193 92 -304q80 11 156 52t180 118l25 -36q-54 -50 -94.5 -83.5t-128 -87.5t-177.5 -87l-76 34q-116 124 -116 328zM209 461q188 84 283 190q45 51 67 99 q-86 51 -188 51q-19 0 -29 -2q-61 -49 -97 -141.5t-36 -196.5zM416 1165l252 379q45 -45 125 -88l-330 -323z" />
<glyph unicode="&#xea;" horiz-adv-x="747" d="M70 342q0 138 57.5 264t166.5 208.5t243 82.5q91 0 143 -45l-2 -119q-45 -67 -111 -127q-147 -136 -358 -198q3 -193 92 -304q80 11 156 52t180 118l25 -36q-54 -50 -94.5 -83.5t-128 -87.5t-177.5 -87l-76 34q-116 124 -116 328zM209 461q188 84 283 190q45 51 67 99 q-86 51 -188 51q-19 0 -29 -2q-61 -49 -97 -141.5t-36 -196.5zM213 1174l268 319h82l246 -319l-43 -41l-248 243l-266 -243z" />
<glyph unicode="&#xeb;" horiz-adv-x="749" d="M70 342q0 138 57.5 264t166.5 208.5t243 82.5q91 0 143 -45l-2 -119q-45 -67 -111 -127q-147 -136 -358 -198q3 -193 92 -304q80 11 156 52t180 118l25 -36q-54 -50 -94.5 -83.5t-128 -87.5t-177.5 -87l-76 34q-116 124 -116 328zM209 461q188 84 283 190q45 51 67 99 q-86 51 -188 51q-19 0 -29 -2q-61 -49 -97 -141.5t-36 -196.5zM233 1198q11 94 11 111q2 12 2 34l135 29l33 -35q-11 -70 -11 -108q-2 -14 -2 -35l-133 -29zM547 1198q3 30 10 111v34l135 29l35 -35q-10 -64 -10 -108q-2 -14 -2 -35l-133 -29z" />
<glyph unicode="&#xec;" horiz-adv-x="526" d="M-70 1444q82 63 119 100l271 -373l-50 -38zM16 836l303 61l35 -35q-43 -336 -43 -784q95 16 170 53l23 -39q-63 -39 -169 -75.5t-149 -36.5l-34 34q20 143 30 295.5t11.5 244t1.5 255.5l-60 -6q-30 -5 -115 -10z" />
<glyph unicode="&#xed;" horiz-adv-x="526" d="M16 836l303 61l35 -35q-43 -336 -43 -784q95 16 170 53l23 -39q-63 -39 -169 -75.5t-149 -36.5l-34 34q20 143 30 295.5t11.5 244t1.5 255.5l-60 -6q-30 -5 -115 -10zM227 1165l252 379q45 -45 125 -88l-330 -323z" />
<glyph unicode="&#xee;" horiz-adv-x="524" d="M-16 1174l268 319h82l246 -319l-43 -41l-248 243l-266 -243zM16 836l303 61l35 -35q-43 -336 -43 -784q95 16 170 53l23 -39q-63 -39 -169 -75.5t-149 -36.5l-34 34q20 143 30 295.5t11.5 244t1.5 255.5l-60 -6q-30 -5 -115 -10z" />
<glyph unicode="&#xef;" horiz-adv-x="526" d="M16 836l303 61l35 -35q-43 -336 -43 -784q95 16 170 53l23 -39q-63 -39 -169 -75.5t-149 -36.5l-34 34q20 143 30 295.5t11.5 244t1.5 255.5l-60 -6q-30 -5 -115 -10zM35 1198q10 85 10 111q2 12 2 34l135 29l33 -35q-10 -64 -10 -108q-2 -14 -2 -35l-133 -29zM348 1198 q4 30 10 111v34l136 29l34 -35q-10 -64 -10 -108q-2 -14 -2 -35l-133 -29z" />
<glyph unicode="&#xf0;" horiz-adv-x="886" d="M70 354q0 86 32.5 180.5t88.5 176t141.5 134t181.5 52.5q71 0 129 -10q-31 203 -131 362q-122 -51 -242 -125l4 103q61 30 193 84q-92 115 -248 202l14 41q212 -59 347 -206q35 12 247 71l17 -39q-187 -70 -221 -84q180 -235 180 -618q0 -147 -29 -272.5t-85 -221 t-145.5 -150t-203.5 -54.5q-57 0 -103.5 21t-77 56t-51 83.5t-29.5 101.5t-9 112zM199 440q0 -216 129 -358h180q59 35 104 190t45 297v93q0 57 -2 92q-150 49 -249 49q-40 0 -60 -10q-61 -42 -104 -137t-43 -216z" />
<glyph unicode="&#xf1;" horiz-adv-x="1050" d="M6 836l303 61l33 -35q0 -32 -14 -148.5t-25 -142.5l16 -4q93 124 211.5 213t239.5 117l76 -35q24 -96 24 -233q0 -93 -14 -281.5t-14 -269.5q95 16 170 53l20 -39q-58 -39 -162.5 -75.5t-144.5 -36.5l-37 34q47 351 47 549q0 136 -16 211q-65 0 -161.5 -62t-170.5 -155 t-74 -170v-387h-159q43 258 43 584q0 140 -13 225l-59 -6q-30 -5 -115 -10zM258 1210l180 199h60q75 -45 140.5 -72t149.5 -43l46 41l86 74l30 -31l-190 -207h-64q-82 27 -138.5 59t-119.5 81l-55 -49l-96 -82z" />
<glyph unicode="&#xf2;" horiz-adv-x="864" d="M70 354q0 91 32 185.5t89 175t146 131.5t193 51q72 0 123 -32t78 -88.5t39 -120t12 -140.5q0 -67 -18 -140.5t-55.5 -144t-89 -126.5t-123.5 -90.5t-154 -34.5q-58 0 -105 21t-77.5 56t-51 83.5t-29.5 101.5t-9 112zM199 440q0 -218 129 -358h182q59 42 103 137.5 t44 214.5q0 217 -131 359h-180q-61 -42 -104 -137t-43 -216zM229 1444q82 63 119 100l271 -373l-50 -38z" />
<glyph unicode="&#xf3;" horiz-adv-x="864" d="M70 354q0 91 32 185.5t89 175t146 131.5t193 51q72 0 123 -32t78 -88.5t39 -120t12 -140.5q0 -67 -18 -140.5t-55.5 -144t-89 -126.5t-123.5 -90.5t-154 -34.5q-58 0 -105 21t-77.5 56t-51 83.5t-29.5 101.5t-9 112zM199 440q0 -218 129 -358h182q59 42 103 137.5 t44 214.5q0 217 -131 359h-180q-61 -42 -104 -137t-43 -216zM463 1165l252 379q45 -45 125 -88l-330 -323z" />
<glyph unicode="&#xf4;" horiz-adv-x="864" d="M70 354q0 91 32 185.5t89 175t146 131.5t193 51q72 0 123 -32t78 -88.5t39 -120t12 -140.5q0 -67 -18 -140.5t-55.5 -144t-89 -126.5t-123.5 -90.5t-154 -34.5q-58 0 -105 21t-77.5 56t-51 83.5t-29.5 101.5t-9 112zM199 440q0 -218 129 -358h182q59 42 103 137.5 t44 214.5q0 217 -131 359h-180q-61 -42 -104 -137t-43 -216zM211 1174l269 319h82l245 -319l-43 -41l-247 243l-267 -243z" />
<glyph unicode="&#xf5;" horiz-adv-x="864" d="M70 354q0 91 32 185.5t89 175t146 131.5t193 51q72 0 123 -32t78 -88.5t39 -120t12 -140.5q0 -67 -18 -140.5t-55.5 -144t-89 -126.5t-123.5 -90.5t-154 -34.5q-58 0 -105 21t-77.5 56t-51 83.5t-29.5 101.5t-9 112zM176 1210l180 199h60q145 -87 291 -115l45 41l86 74 l30 -31l-190 -207h-64q-82 27 -138.5 59t-119.5 81l-55 -49l-96 -82zM199 440q0 -218 129 -358h182q59 42 103 137.5t44 214.5q0 217 -131 359h-180q-61 -42 -104 -137t-43 -216z" />
<glyph unicode="&#xf6;" horiz-adv-x="864" d="M70 354q0 91 32 185.5t89 175t146 131.5t193 51q72 0 123 -32t78 -88.5t39 -120t12 -140.5q0 -67 -18 -140.5t-55.5 -144t-89 -126.5t-123.5 -90.5t-154 -34.5q-58 0 -105 21t-77.5 56t-51 83.5t-29.5 101.5t-9 112zM199 440q0 -218 129 -358h182q59 42 103 137.5 t44 214.5q0 217 -131 359h-180q-61 -42 -104 -137t-43 -216zM266 1198q11 94 11 111q2 12 2 34l135 29l33 -35q-11 -70 -11 -108q-2 -14 -2 -35l-133 -29zM580 1198q4 30 10 111v34l135 29l35 -35q-10 -64 -10 -108q-2 -14 -2 -35l-133 -29z" />
<glyph unicode="&#xf7;" horiz-adv-x="1185" d="M125 598v98h942v-98h-942zM483 213q6 56 11 117q0 27 2 37l145 30l37 -37q-6 -44 -12 -114q-3 -22 0 -37l-146 -33zM508 934q2 22 10 117q0 26 2 36l146 31l36 -37q-6 -44 -12 -114q-3 -22 0 -37l-145 -33z" />
<glyph unicode="&#xf8;" horiz-adv-x="952" d="M-45 -63l203 213q-35 83 -35 208q0 73 19.5 149.5t59.5 148t94 128.5t129 91t159 34q130 0 194 -112l164 170l49 -47l-184 -191q29 -102 29 -205q0 -69 -18.5 -143t-56.5 -145.5t-90 -128.5t-125 -92t-155 -35q-135 0 -201 106l-190 -197zM250 446q0 -97 22 -178l392 408 q-25 65 -84 127h-181q-61 -39 -105 -137t-44 -220zM299 201q22 -50 82 -117h178q61 40 105.5 137t44.5 219q0 78 -21 164z" />
<glyph unicode="&#xf9;" horiz-adv-x="1060" d="M12 836l303 61l33 -35q-5 -54 -19 -169.5t-22 -209t-8 -172.5q0 -119 20 -209q49 0 118.5 35t133.5 88t109 125.5t45 138.5l6 320l-61 -6q-34 -6 -115 -10l-2 43l301 61l37 -35q-7 -47 -12.5 -92t-9 -91.5t-6.5 -79t-5 -82.5t-3 -73t-2.5 -78.5t-2.5 -72.5 q-2 -49 -2 -156v-59q95 18 170 53l20 -39q-58 -39 -163.5 -75.5t-145.5 -36.5l-35 34q25 223 41 291l-16 4q-94 -124 -210.5 -211t-240.5 -118l-75 34q-25 100 -25 228q0 40 2 88t4.5 83t7 91t6.5 84q1 38 4 85.5t3 63.5q0 27 -5 72l-61 -6q-28 -5 -113 -10zM276 1444 q82 63 119 100l271 -373l-50 -38z" />
<glyph unicode="&#xfa;" horiz-adv-x="1060" d="M12 836l303 61l33 -35q-5 -54 -19 -169.5t-22 -209t-8 -172.5q0 -119 20 -209q49 0 118.5 35t133.5 88t109 125.5t45 138.5l6 320l-61 -6q-34 -6 -115 -10l-2 43l301 61l37 -35q-7 -47 -12.5 -92t-9 -91.5t-6.5 -79t-5 -82.5t-3 -73t-2.5 -78.5t-2.5 -72.5 q-2 -49 -2 -156v-59q95 18 170 53l20 -39q-58 -39 -163.5 -75.5t-145.5 -36.5l-35 34q25 223 41 291l-16 4q-94 -124 -210.5 -211t-240.5 -118l-75 34q-25 100 -25 228q0 40 2 88t4.5 83t7 91t6.5 84q1 38 4 85.5t3 63.5q0 27 -5 72l-61 -6q-28 -5 -113 -10zM492 1165 l251 379q45 -45 125 -88l-329 -323z" />
<glyph unicode="&#xfb;" horiz-adv-x="1060" d="M12 836l303 61l33 -35q-5 -54 -19 -169.5t-22 -209t-8 -172.5q0 -119 20 -209q49 0 118.5 35t133.5 88t109 125.5t45 138.5l6 320l-61 -6q-34 -6 -115 -10l-2 43l301 61l37 -35q-7 -47 -12.5 -92t-9 -91.5t-6.5 -79t-5 -82.5t-3 -73t-2.5 -78.5t-2.5 -72.5 q-2 -49 -2 -156v-59q95 18 170 53l20 -39q-58 -39 -163.5 -75.5t-145.5 -36.5l-35 34q25 223 41 291l-16 4q-94 -124 -210.5 -211t-240.5 -118l-75 34q-25 100 -25 228q0 40 2 88t4.5 83t7 91t6.5 84q1 38 4 85.5t3 63.5q0 27 -5 72l-61 -6q-28 -5 -113 -10zM278 1174 l269 319h82l245 -319l-43 -41l-247 243l-267 -243z" />
<glyph unicode="&#xfc;" horiz-adv-x="1060" d="M12 836l303 61l33 -35q-5 -54 -19 -169.5t-22 -209t-8 -172.5q0 -119 20 -209q49 0 118.5 35t133.5 88t109 125.5t45 138.5l6 320l-61 -6q-34 -6 -115 -10l-2 43l301 61l37 -35q-7 -47 -12.5 -92t-9 -91.5t-6.5 -79t-5 -82.5t-3 -73t-2.5 -78.5t-2.5 -72.5 q-2 -49 -2 -156v-59q95 18 170 53l20 -39q-58 -39 -163.5 -75.5t-145.5 -36.5l-35 34q25 223 41 291l-16 4q-94 -124 -210.5 -211t-240.5 -118l-75 34q-25 100 -25 228q0 40 2 88t4.5 83t7 91t6.5 84q1 38 4 85.5t3 63.5q0 27 -5 72l-61 -6q-28 -5 -113 -10zM326 1198 q10 85 10 111q2 12 2 34l135 29l33 -35q-10 -64 -10 -108q-2 -14 -2 -35l-134 -29zM639 1198q3 30 10 111v34l135 29l35 -35q-10 -64 -10 -108q-2 -14 -2 -35l-133 -29z" />
<glyph unicode="&#xfd;" horiz-adv-x="901" d="M-27 829l254 68l45 -18q14 -260 103 -504q49 -144 88 -230h18l97 205q110 239 110 420q0 44 -10 82l168 45q4 -12 4 -61q0 -83 -43.5 -194t-159.5 -320l-174 -320q-11 -18 -49 -86t-54 -95t-51 -85.5t-58 -89.5t-54.5 -72.5t-61 -70t-59.5 -48.5l-94 137 q125 71 222.5 159.5t182.5 228.5q-95 203 -162 395.5t-104 427.5l-154 -17zM387 1165l252 379q45 -45 125 -88l-330 -323z" />
<glyph unicode="&#xfe;" horiz-adv-x="901" d="M0 1485l303 61l33 -35q-4 -4 -11.5 -118.5t-20 -356.5t-21.5 -389l16 -4q86 102 176.5 162t206.5 92l86 -35q57 -120 57 -258q0 -156 -69.5 -300.5t-185 -234t-242.5 -89.5q-40 0 -76 4l-10 -441l59 6q17 1 57.5 5.5t57.5 5.5l4 -43l-303 -62l-35 35q72 786 96 1968 l-59 -8l-115 -8zM256 104q70 -24 143 -24q94 0 163 62t100.5 155t31.5 201q0 159 -63 276q-46 0 -106.5 -30.5t-118 -81t-98.5 -127.5t-44 -160z" />
<glyph unicode="&#xff;" horiz-adv-x="901" d="M-27 829l254 68l45 -18q14 -260 103 -504q49 -144 88 -230h18l97 205q110 239 110 420q0 44 -10 82l168 45q4 -12 4 -61q0 -83 -43.5 -194t-159.5 -320l-174 -320q-11 -18 -49 -86t-54 -95t-51 -85.5t-58 -89.5t-54.5 -72.5t-61 -70t-59.5 -48.5l-94 137 q125 71 222.5 159.5t182.5 228.5q-95 203 -162 395.5t-104 427.5l-154 -17zM268 1198q11 94 11 111q2 12 2 34l135 29l33 -35q-11 -70 -11 -108q-2 -14 -2 -35l-133 -29zM582 1198q4 30 10 111v34l135 29l35 -35q-10 -64 -10 -108q-2 -14 -2 -35l-134 -29z" />
<glyph unicode="&#x152;" horiz-adv-x="2064" d="M96 688q0 209 85.5 375.5t241 261t353.5 94.5q157 0 283.5 -81t200.5 -214l10 254q160 0 292 -1t148 -1q136 0 279 15l-31 -338h-64l-26 225l-441 31q-6 -64 -11.5 -181.5t-6.5 -140.5l-8 -225l426 22l-10 -127q-72 10 -152 17t-169.5 12t-98.5 6l-19 -614l455 16l98 211 h66l-78 -325q-116 4 -359 17t-337 13l6 174q-89 -101 -206.5 -157t-250.5 -56q-135 0 -248 41t-190.5 110t-132 161.5t-80 194.5t-25.5 210zM283 711q0 -101 20 -197.5t61 -181.5t99 -149t139.5 -101t177.5 -37q214 0 338.5 169t124.5 450q0 191 -59.5 346.5t-168 245.5 t-245.5 90q-48 0 -94 -8.5t-95 -29.5t-91.5 -53t-81 -82.5t-66 -115t-43.5 -153t-16 -193.5z" />
<glyph unicode="&#x153;" horiz-adv-x="1142" d="M70 354q0 91 32 185.5t89 175t146 131.5t193 51q107 0 170 -76q107 76 232 76q96 0 141 -45l-2 -119q-45 -67 -108 -127q-150 -138 -361 -198q11 -206 94 -304q79 11 156.5 52.5t177.5 117.5l27 -36q-54 -50 -94.5 -83.5t-128 -87.5t-177.5 -87l-75 34l-29 33 q-96 -67 -213 -67q-57 0 -103.5 21t-77 56t-51 83.5t-29.5 101.5t-9 112zM199 440q0 -216 129 -358h202q-65 105 -65 260q0 211 123 371q-19 37 -62 80h-180q-61 -42 -104 -137t-43 -216zM602 461q188 82 285 190q45 51 67 99q-86 51 -188 51q-21 0 -29 -2 q-60 -48 -95 -139.5t-40 -198.5z" />
<glyph unicode="&#x178;" horiz-adv-x="1243" d="M-23 1331v58q5 -1 26 -4.5t34 -4.5q117 -6 162 -6q105 0 252 15v-58q-39 -7 -86 -8.5t-64 -3.5l352 -623h17l338 592l-150 43v58l49 -9q99 -6 148 -6q96 0 243 15v-58q-60 -9 -141 -12l-452 -711l-17 -506l146 -45v-57l-54 6q-132 8 -151 8q-111 0 -248 -14v57 q26 2 56.5 5.5t51 5.5t41.5 2l13 536l-396 682zM358 1581q11 93 11 111q2 12 2 34l135 29l33 -35q-11 -70 -11 -108q-2 -14 -2 -33l-133 -31zM707 1581q10 85 10 111q2 12 2 34l133 29l35 -35q-10 -64 -10 -108q-3 -21 -3 -33l-133 -31z" />
<glyph unicode="&#x2c6;" horiz-adv-x="800" d="M102 1174l269 319h82l245 -319l-43 -41l-247 243l-267 -243z" />
<glyph unicode="&#x2dc;" horiz-adv-x="897" d="M102 1210l181 199h59q145 -87 291 -115l45 41l86 74l31 -31l-191 -207h-63q-82 27 -138.5 59t-119.5 81l-56 -49l-96 -82z" />
<glyph unicode="&#x2000;" horiz-adv-x="963" />
<glyph unicode="&#x2001;" horiz-adv-x="1927" />
<glyph unicode="&#x2002;" horiz-adv-x="963" />
<glyph unicode="&#x2003;" horiz-adv-x="1927" />
<glyph unicode="&#x2004;" horiz-adv-x="642" />
<glyph unicode="&#x2005;" horiz-adv-x="481" />
<glyph unicode="&#x2006;" horiz-adv-x="321" />
<glyph unicode="&#x2007;" horiz-adv-x="321" />
<glyph unicode="&#x2008;" horiz-adv-x="240" />
<glyph unicode="&#x2009;" horiz-adv-x="385" />
<glyph unicode="&#x200a;" horiz-adv-x="107" />
<glyph unicode="&#x2010;" horiz-adv-x="847" d="M135 430l4 115h566l-5 -115h-565z" />
<glyph unicode="&#x2011;" horiz-adv-x="847" d="M135 430l4 115h566l-5 -115h-565z" />
<glyph unicode="&#x2012;" horiz-adv-x="847" d="M135 430l4 115h566l-5 -115h-565z" />
<glyph unicode="&#x2013;" horiz-adv-x="1193" d="M135 430l4 115h914l-4 -115h-914z" />
<glyph unicode="&#x2014;" horiz-adv-x="1536" d="M135 430l4 115h1256l-4 -115h-1256z" />
<glyph unicode="&#x2018;" horiz-adv-x="378" d="M102 1081q8 213 260 473l31 -30q-61 -87 -82.5 -169.5t-21.5 -187.5q0 -26 4 -92l-152 -33z" />
<glyph unicode="&#x2019;" horiz-adv-x="362" d="M92 1073q62 87 83.5 170t21.5 187q0 26 -4 92l151 32l39 -38q-4 -113 -77.5 -237t-182.5 -237z" />
<glyph unicode="&#x201a;" horiz-adv-x="405" d="M-6 -281q59 90 80.5 171.5t21.5 185.5q0 26 -4 92l154 33l39 -39q-13 -215 -260 -473z" />
<glyph unicode="&#x201c;" horiz-adv-x="681" d="M102 1081q8 213 260 473l31 -30q-61 -87 -82.5 -169.5t-21.5 -187.5q0 -26 4 -92l-152 -33zM408 1081q13 215 260 473l30 -30q-60 -92 -81 -172.5t-21 -184.5q0 -13 1 -44t1 -48l-152 -33z" />
<glyph unicode="&#x201d;" horiz-adv-x="665" d="M92 1073q62 87 83.5 170t21.5 187q0 26 -4 92l151 32l39 -38q-4 -113 -77.5 -237t-182.5 -237zM397 1073q60 91 82.5 173t22.5 184q0 26 -4 92l151 32l39 -38q-13 -216 -260 -474z" />
<glyph unicode="&#x201e;" horiz-adv-x="710" d="M-6 -281q59 90 80.5 171.5t21.5 185.5q0 26 -4 92l154 33l39 -39q-13 -215 -260 -473zM299 -281q59 90 80.5 171.5t21.5 185.5q0 26 -4 92l154 33l39 -39q-13 -215 -260 -473z" />
<glyph unicode="&#x2022;" horiz-adv-x="624" d="M143 696q0 71 49.5 121.5t122.5 50.5q72 0 122 -50.5t50 -121.5q0 -72 -50 -122t-122 -50q-73 0 -122.5 50t-49.5 122z" />
<glyph unicode="&#x202f;" horiz-adv-x="385" />
<glyph unicode="&#x2039;" horiz-adv-x="667" d="M49 522l522 459l33 -31l-334 -428l303 -405l-30 -31z" />
<glyph unicode="&#x203a;" horiz-adv-x="665" d="M59 117l332 405l-301 428l33 31l489 -459l-520 -436z" />
<glyph unicode="&#x205f;" horiz-adv-x="481" />
<glyph unicode="&#x20ac;" horiz-adv-x="1320" d="M68 520l4 103h196v36q0 25 4 91q-93 -3 -196 -13l4 103h205q32 177 130 310.5t230 201t277 67.5q168 0 319 -57l-27 -334h-63l-23 229q-39 39 -98 64t-129 25q-76 0 -149 -34.5t-133 -97t-102 -160t-54 -214.5h676l-27 -70q-63 -2 -207 -2q-363 -6 -448 -10v-39 q0 -65 2 -96h604l-27 -70h-176q-275 -5 -393 -10q20 -132 67.5 -229.5t112.5 -152t136 -80.5t149 -26q68 0 120.5 13.5t135.5 50.5l18 -58q-136 -90 -323 -90q-244 0 -409.5 149.5t-197.5 414.5q-30 -2 -101.5 -7t-106.5 -8z" />
<glyph unicode="&#x25fc;" horiz-adv-x="901" d="M0 0v901h901v-901h-901z" />
</font>
</defs>
</svg>
