<?xml version="1.0" standalone="no"?>
<!DOCTYPE svg PUBLIC "-//W3C//DTD SVG 1.1//EN" "http://www.w3.org/Graphics/SVG/1.1/DTD/svg11.dtd" >
<svg xmlns="http://www.w3.org/2000/svg" xmlns:xlink="http://www.w3.org/1999/xlink" version="1.1">
<metadata></metadata>
<defs>
<font id="simonettablack_italic" horiz-adv-x="1595" >
<font-face units-per-em="2048" ascent="1638" descent="-410" />
<missing-glyph horiz-adv-x="446" />
<glyph unicode="&#xfb01;" horiz-adv-x="1259" d="M-188 -526l10 309q71 -45 158 -77t159 -32q34 84 47 418l25 633q-96 5 -176 16l4 156h178l4 68q12 285 154 448.5t393 163.5q113 0 236 -27l-15 -311q-93 41 -217 75t-203 34q-32 -97 -45 -420l-2 -29q446 14 496 27l74 -119q-31 -213 -31 -408q0 -63 4 -141q43 7 143 33 l54 -158q-83 -58 -230 -110t-205 -52l-102 99q29 245 29 379q0 31 -3 124t-3 121q-130 3 -232 11l-22 -646q-5 -173 -69.5 -311.5t-181 -219.5t-263.5 -81q-66 0 -168 27z" />
<glyph unicode="&#xfb02;" horiz-adv-x="1423" d="M-188 -526l10 309q71 -45 158 -77t159 -32q34 84 47 418l25 631q-146 13 -176 18l4 156h178l4 68q12 284 153.5 448t344.5 164q61 0 119.5 -12t150.5 -52l221 64l74 -119q-55 -463 -55 -987q0 -36 1 -106.5t1 -106.5q90 15 139 33l55 -158q-91 -62 -234.5 -112 t-203.5 -50l-100 99q33 212 48 516.5t15 519.5q0 47 -4 133q-81 40 -194 74.5t-183 34.5q-15 -38 -25 -122t-12.5 -133t-7.5 -165l-2 -27q170 8 283 25l-39 -238q-127 0 -250 8l-22 -637q-5 -173 -69.5 -311.5t-181 -219.5t-263.5 -81q-66 0 -168 27z" />
<glyph unicode="&#xfb03;" horiz-adv-x="1945" d="M-188 -526l10 309q71 -45 158 -77t159 -32q34 84 47 418l27 635q-166 12 -178 14l4 156h180q10 154 60 271.5t130 187.5t179.5 104.5t216.5 34.5q125 0 287 -51q142 133 362 133q113 0 236 -27l-15 -311q-89 40 -216 74.5t-204 34.5q-7 -15 -12.5 -35t-9.5 -51.5 t-7 -53.5t-6 -69t-4 -69t-4 -82t-4 -81q458 11 496 19l74 -119q-31 -213 -31 -408q0 -34 1 -79.5t1 -61.5q48 8 145 33l54 -158q-83 -58 -230 -110t-205 -52l-100 99q27 228 27 379q0 182 -6 241l-234 6l-20 -555q-6 -158 -55.5 -278t-131.5 -191.5t-182.5 -107 t-216.5 -35.5q-127 0 -289 51q-136 -133 -325 -133q-66 0 -168 27zM455 -172q91 -37 194.5 -63.5t175.5 -26.5q18 56 29.5 136t15 134.5t7.5 149.5l20 547q-197 3 -381 12l-22 -658q-3 -118 -39 -231zM524 897q9 0 142.5 2t236.5 2l4 64q3 124 37 231q-89 36 -196.5 63 t-174.5 27q-36 -83 -49 -389z" />
<glyph unicode="&#xfb04;" horiz-adv-x="2109" d="M-188 -526l10 309q71 -45 158 -77t159 -32q34 84 47 418l27 635q-168 12 -178 14l4 156h180q10 154 60 271.5t130 187.5t179.5 104.5t216.5 34.5q136 0 285 -49q137 131 315 131q61 0 119.5 -12t150.5 -52l221 64l74 -119q-55 -471 -55 -999q0 -34 1 -100.5t1 -100.5 q90 15 139 33l55 -158q-90 -62 -234.5 -112t-203.5 -50l-100 99q33 211 48 516t15 520q0 47 -4 133q-81 40 -194 74.5t-183 34.5q-9 -23 -16 -58t-12 -87t-7.5 -88t-6 -106t-5.5 -98q268 11 283 15l-41 -238q-20 0 -250 4l-20 -551q-6 -158 -55.5 -278t-131.5 -191.5 t-182.5 -107t-216.5 -35.5q-127 0 -289 51q-136 -133 -325 -133q-66 0 -168 27zM455 -172q91 -37 194.5 -63.5t175.5 -26.5q18 56 29.5 136t15 134.5t7.5 149.5l20 542q-165 3 -381 13l-22 -654q-3 -118 -39 -231zM524 897q213 0 379 6l4 62q2 100 37 231q-89 35 -197 62.5 t-174 27.5q-36 -83 -49 -389z" />
<glyph horiz-adv-x="0" />
<glyph unicode="&#xd;" horiz-adv-x="477" />
<glyph unicode=" "  horiz-adv-x="446" />
<glyph unicode="&#x09;" horiz-adv-x="446" />
<glyph unicode="&#xa0;" horiz-adv-x="446" />
<glyph unicode="!" horiz-adv-x="610" d="M129 47q5 42 10 158q0 13 1 36.5t1 34.5l236 66l78 -76q-10 -95 -13 -157q0 -14 -1 -38.5t-1 -35.5l-231 -66zM164 1389q6 0 65 -4.5t103 -4.5q47 0 168 9q-41 -269 -74 -596q-18 -177 -25 -269h-200l-6 269q-14 362 -31 596z" />
<glyph unicode="&#x22;" horiz-adv-x="825" d="M104 1483h306l-91 -539h-161zM477 1483h303l-88 -539h-164z" />
<glyph unicode="#" horiz-adv-x="1566" d="M41 338l6 205h330l51 295q-223 -12 -291 -17l6 205h318l65 365h236l-66 -365h260l66 365h235l-65 -365h297l-8 -172h-90q-134 0 -230 -2l-53 -309h285l-7 -172h-88q-131 0 -221 -2l-65 -369h-236l66 367q-42 0 -262 -5l-64 -362h-235l61 354q-281 -14 -301 -16zM612 543 h260l54 307l-260 -4z" />
<glyph unicode="$" horiz-adv-x="1236" d="M66 16l14 449h231l31 -225q102 -52 231 -52q92 0 148.5 30t56.5 89q0 54 -46 97.5t-140 91.5l-195 104q-54 29 -96 56.5t-84 66t-69.5 79.5t-44.5 94.5t-17 113.5q0 59 11.5 110.5t42 104t79 92t127 69.5t180.5 41v150h254l-10 -150q202 -15 350 -53l-28 -448h-232 l-29 215q-85 61 -210 61q-80 0 -126 -30t-46 -89t47 -105.5t135 -92.5l174 -92q57 -30 101 -57t90 -66.5t76 -81.5t49.5 -98t19.5 -119q0 -66 -23.5 -127.5t-71.5 -117t-131.5 -96.5t-193.5 -59v-213h-254l12 203q-240 9 -413 55z" />
<glyph unicode="%" horiz-adv-x="1517" d="M43 932q0 56 17.5 114t52.5 112.5t83 97.5t114 68.5t139 25.5q79 0 141 -33q101 -45 227 -45q158 0 293 51l90 125l119 -90l-1004 -1393l-118 98l813 1121q-103 -47 -234 -47q-22 0 -76 4q11 -48 11 -111q0 -67 -26.5 -139.5t-73.5 -135.5t-123.5 -104t-165.5 -41 q-95 0 -160 47t-92 117.5t-27 157.5zM289 987q0 -118 57 -217h66q25 31 42 85.5t17 117.5q0 119 -57 215h-68q-57 -72 -57 -201zM768 322q0 69 28.5 142t78.5 134.5t129 101t170 39.5q74 0 127 -27t81.5 -74t41 -100.5t12.5 -117.5q0 -67 -26.5 -139.5t-73.5 -135.5 t-123.5 -104t-165.5 -41q-95 0 -160 47t-92 117.5t-27 157.5zM1014 377q0 -118 57 -217h66q25 32 42 86t17 116q0 120 -57 216h-68q-24 -27 -40.5 -82t-16.5 -119z" />
<glyph unicode="&#x26;" horiz-adv-x="1304" d="M80 373q0 150 80.5 254t201.5 161q-135 114 -135 287q0 61 25.5 121.5t76.5 114.5t140.5 87.5t204.5 33.5q176 0 287 -86l-15 -328h-229l-23 162q-75 28 -162 28h-20q-6 -30 -6 -61q0 -87 47.5 -161.5t124.5 -106.5l-10 -160q-123 -23 -183.5 -103.5t-60.5 -185.5 q0 -118 63 -225h177q63 66 96 223l-103 14l7 195q98 -4 143 -4q250 0 481 53l-8 -289q-152 0 -215 2q-32 -92 -79.5 -169t-112.5 -139t-152.5 -97t-188.5 -35q-201 0 -326.5 107.5t-125.5 306.5z" />
<glyph unicode="'" horiz-adv-x="452" d="M106 1483h304l-88 -539h-164z" />
<glyph unicode="(" horiz-adv-x="780" d="M59 526q0 295 181.5 558.5t468.5 400.5l84 -127q-453 -325 -453 -832q0 -125 17.5 -225.5t60.5 -202t119.5 -200t191.5 -201.5l-88 -129q-287 177 -434.5 412t-147.5 546z" />
<glyph unicode=")" horiz-adv-x="780" d="M-14 -305q452 330 452 831q0 125 -17.5 226t-61 203t-120 200.5t-190.5 200.5l88 129q286 -177 434 -413t148 -546q0 -295 -181 -558t-468 -400z" />
<glyph unicode="*" horiz-adv-x="937" d="M45 895l272 121l-266 121q65 88 101 166l233 -168l-20 290q55 -6 100 -6q53 0 94 6l-39 -295q46 29 141.5 95t106.5 73q42 -95 88 -165l-268 -117q51 -24 144.5 -70.5t113.5 -56.5q-11 -13 -32 -45t-44.5 -71t-28.5 -46l-229 176q2 -79 16 -295q-9 0 -47 1t-47 1 q-8 0 -48 -1t-48 -1l43 291l-248 -170z" />
<glyph unicode="+" horiz-adv-x="1062" d="M41 549v188h377v377h188v-377h377v-188h-377v-377h-188v377h-377z" />
<glyph unicode="," horiz-adv-x="532" d="M-18 -166q66 91 94 174.5t28 198.5q0 24 -4 86l246 67l82 -79q-4 -139 -86 -286t-215 -284z" />
<glyph unicode="-" horiz-adv-x="819" d="M119 389l10 229h565l-10 -229h-565z" />
<glyph unicode="." horiz-adv-x="536" d="M86 51q5 50 10 166q2 27 2 76l246 67l82 -79q-8 -83 -12 -166q-2 -27 -2 -76l-244 -68z" />
<glyph unicode="/" horiz-adv-x="1157" d="M10 -356l881 1829h213l-881 -1829h-213z" />
<glyph unicode="0" horiz-adv-x="1280" d="M63 662q0 93 13.5 182t40.5 176.5t73.5 161t108.5 130t149 88.5t191 32q114 0 206 -39.5t153 -106.5t102.5 -158t59.5 -190.5t18 -208.5q0 -92 -13.5 -181.5t-41.5 -177t-75.5 -161t-109.5 -130t-149.5 -88.5t-190.5 -32q-113 0 -204.5 39.5t-152 106t-101.5 157.5 t-59 190.5t-18 209.5zM397 725q0 -89 11 -178t34.5 -177t70 -143t108.5 -55q54 0 96 36t65 88.5t38 123.5t19.5 130t4.5 118q0 70 -6 140.5t-22 146.5t-40 133.5t-64.5 95t-90.5 37.5q-56 0 -98 -36t-65.5 -88.5t-37.5 -123.5t-18.5 -129.5t-4.5 -118.5z" />
<glyph unicode="1" horiz-adv-x="872" d="M10 1112q67 39 139.5 88.5t114 81t108.5 85.5t81 65l186 -76q-8 -146 -19.5 -544.5t-11.5 -526.5l170 -115l-8 -176l-115 8q-15 0 -98.5 4t-128.5 4q-190 0 -340 -16l8 194l56 7q93 6 110 6q11 135 20 406t9 419l-185 -94z" />
<glyph unicode="2" horiz-adv-x="1128" d="M2 190q37 39 102.5 104.5t106.5 108t99 104t95 105.5t78.5 99t65.5 97.5t39.5 88t15.5 84.5q0 80 -46.5 131t-119.5 51q-136 0 -248 -106l-116 153q107 107 222.5 164.5t268.5 57.5q182 0 292 -101t110 -287q0 -90 -42.5 -183t-135 -198t-206.5 -208t-288 -244l475 76 l102 219l166 -27q-21 -121 -57 -479h-889z" />
<glyph unicode="3" horiz-adv-x="1128" d="M-4 86l156 281q86 -86 164 -119t173 -33q84 0 140.5 56t56.5 157q0 84 -51 135t-137 51t-166 -39l-64 193l111 43q86 34 150.5 95t64.5 136q0 45 -28.5 76t-86.5 31q-117 0 -266 -119l-123 150q233 252 512 252q182 0 270.5 -78.5t88.5 -212.5q0 -88 -62 -176.5 t-143 -126.5q119 -18 199.5 -108t80.5 -220q0 -113 -55.5 -216.5t-145.5 -176t-205.5 -115.5t-232.5 -43q-246 0 -401 127z" />
<glyph unicode="4" horiz-adv-x="1220" d="M0 393l6 221l721 818l203 -76q-13 -204 -29 -731q43 1 105.5 6t78.5 6l72 4l-67 -248h-193v-108l170 -115l-6 -176l-123 8q-13 0 -100.5 4t-132.5 4q-179 0 -326 -16l6 194l55 7q99 6 113 6q1 22 5 86.5t5 105.5h-563zM264 602q201 0 307 6q7 151 7 334z" />
<glyph unicode="5" horiz-adv-x="1105" d="M-18 72l153 280q123 -137 287 -137q98 0 159.5 60.5t61.5 181.5q0 86 -59.5 148.5t-171.5 62.5q-80 0 -150 -25l-100 127l78 627h528l100 151l172 -73q-12 -33 -23 -68.5t-17.5 -58.5t-20 -74t-21.5 -78l-524 -63l-31 -248q73 20 164 20q82 0 157.5 -24t137 -70 t98.5 -120.5t37 -166.5q0 -153 -87 -283t-236.5 -206t-325.5 -76q-99 0 -199.5 29t-166.5 84z" />
<glyph unicode="6" horiz-adv-x="1153" d="M49 469q0 135 47 262t127 230t190 194t232 158.5t258 118.5l84 -179q-159 -67 -293.5 -183t-214.5 -259q103 29 185 29q73 0 141 -22t126.5 -66t94 -119.5t35.5 -171.5q0 -114 -43.5 -210t-115 -159t-162 -98t-187.5 -35q-142 0 -255 57.5t-181 175t-68 277.5zM383 453 q0 -132 48 -201.5t128 -69.5q74 0 120 60t46 168q0 221 -186 221q-67 0 -140 -27q-16 -78 -16 -151z" />
<glyph unicode="7" horiz-adv-x="1058" d="M8 936q54 223 101 461h870l78 -109q-145 -311 -347.5 -764.5t-252.5 -564.5l-322 170q34 53 132.5 204.5t140 217.5t115 186.5t131.5 226t116 220.5l-475 -58l-102 -219z" />
<glyph unicode="8" horiz-adv-x="1169" d="M53 315q0 68 20.5 129t60.5 114.5t83.5 95.5t104.5 89q-197 166 -197 326q0 91 42.5 162.5t112.5 114t153.5 64.5t172.5 22q113 0 207 -33.5t156.5 -108t62.5 -178.5q0 -106 -50 -184t-148 -166q107 -92 169 -180.5t62 -186.5q0 -99 -46 -182.5t-123 -138t-176 -85 t-206 -30.5q-85 0 -165 22t-147 64t-108 112t-41 158zM315 344q0 -90 57 -140t148 -50q81 0 131.5 45t50.5 125q0 69 -54.5 133.5t-162.5 150.5q-170 -130 -170 -264zM481 1122q0 -36 28.5 -77t61.5 -71t97 -81q29 26 44.5 42t34.5 40.5t27 50.5t8 57q0 72 -45 114t-114 42 q-57 0 -99.5 -30.5t-42.5 -86.5z" />
<glyph unicode="9" horiz-adv-x="1153" d="M53 930q0 114 43.5 210.5t115 159t162 97.5t187.5 35q106 0 197 -33.5t159 -96.5t107 -160.5t39 -219.5q0 -134 -47 -261t-127 -230.5t-190 -194.5t-232 -158.5t-258 -118.5l-84 178q161 65 294 180.5t214 262.5q-92 -29 -182 -29q-72 0 -140.5 22.5t-127 66.5 t-94.5 119.5t-36 170.5zM389 981q0 -221 186 -221q73 0 138 24q16 82 16 154q0 131 -48.5 200.5t-127.5 69.5q-71 0 -117.5 -60.5t-46.5 -166.5z" />
<glyph unicode=":" horiz-adv-x="571" d="M117 47q5 42 10 158q2 25 2 71l236 66l77 -76q-8 -77 -12 -157q-2 -27 -2 -74l-231 -66zM135 631q5 46 10 157q2 25 2 72l236 66l78 -76q-8 -79 -12 -158q-3 -41 -3 -74l-233 -63z" />
<glyph unicode=";" horiz-adv-x="573" d="M2 -166q66 92 94.5 175.5t28.5 197.5q0 24 -4 86l246 67l82 -79q-4 -137 -86.5 -284.5t-215.5 -285.5zM139 631q7 63 11 157q2 25 2 72l233 66l80 -76q-8 -79 -12 -158q-2 -27 -2 -74l-234 -63z" />
<glyph unicode="&#x3c;" horiz-adv-x="1091" d="M37 565v131l852 432l82 -159l-668 -338l668 -336l-82 -160z" />
<glyph unicode="=" horiz-adv-x="1214" d="M117 369v188h942v-188h-942zM117 737v189h942v-189h-942z" />
<glyph unicode="&#x3e;" horiz-adv-x="1091" d="M82 295l663 336l-663 338l82 159l852 -432v-131l-852 -430z" />
<glyph unicode="?" horiz-adv-x="794" d="M80 1069l12 307q42 13 115.5 24t138.5 11q163 0 269 -72.5t106 -195.5q0 -74 -30 -143t-77.5 -121t-94 -92t-91 -74t-57.5 -49l22 -185l-180 -43q-76 144 -76 246q0 36 30 79t78.5 87t99.5 85t105 86.5t82 78.5q-24 63 -147 63q-68 0 -154.5 -27t-150.5 -65zM147 47 q6 58 11 158q2 25 2 71l235 66l78 -76q-4 -41 -10 -157q-2 -27 -2 -74l-234 -66z" />
<glyph unicode="@" horiz-adv-x="1540" d="M59 369q0 164 62 308t168 246.5t254 162t315 59.5q271 0 435.5 -151t164.5 -410q0 -156 -74 -279.5t-200 -190.5t-281 -67l-61 98l43 174l-11 7q-164 -238 -286 -279l-150 49q-20 78 -20 135q0 126 37 239.5t96 191t134 123.5t151 46q139 0 282 -43q-6 -83 -9.5 -170.5 t-6 -202.5t-4.5 -167q97 20 154 113t57 223q0 84 -28.5 160t-83.5 137t-146.5 97t-206.5 36q-162 0 -297.5 -80.5t-214 -223.5t-78.5 -319q0 -124 35.5 -227.5t103.5 -180t175 -119t243 -42.5q112 0 212.5 27.5t231.5 89.5l48 -107q-276 -151 -529 -151q-147 0 -279 51.5 t-228 141.5t-152 219t-56 276zM645 328q0 -41 2 -64q26 0 65 29.5t77.5 77.5t69.5 117.5t38 140.5l2 59q-50 12 -84 12q-53 0 -92 -52.5t-58.5 -136t-19.5 -183.5z" />
<glyph unicode="A" horiz-adv-x="1476" d="M-31 -6l8 194q93 13 119 13l529 1190l256 41l434 -1147l170 -115l-8 -176q-176 16 -328 16q-158 0 -358 -16l8 194q117 13 166 13l-64 207q-180 -3 -446 -19l-37 -104l133 -115l-8 -176q-176 16 -287 16q-146 0 -287 -16zM539 635h292l-118 385h-41z" />
<glyph unicode="B" horiz-adv-x="1388" d="M72 -6l8 194l53 7q99 6 113 6q11 133 20.5 443.5t9.5 461.5l-170 115l9 176l92 -6q192 -7 196 -7q70 0 185.5 7.5t165.5 7.5q230 0 351.5 -92.5t121.5 -251.5q0 -94 -37 -177.5t-90 -127.5q107 -48 165 -128.5t58 -213.5q0 -191 -137 -309.5t-379 -118.5q-75 0 -224.5 15 t-215.5 15q-111 0 -295 -16zM590 244q33 -22 83 -32.5t85 -10.5q85 0 140.5 53t55.5 152q0 87 -60.5 136.5t-184.5 49.5q-86 0 -113 -6zM604 807q10 2 101 2q43 0 137 -4q59 70 59 158q0 100 -61 156.5t-166 56.5q-43 0 -53 -2l-7 -127q-1 -36 -5 -118.5t-5 -121.5z" />
<glyph unicode="C" horiz-adv-x="1404" d="M78 670q0 237 102.5 410.5t285 262.5t423.5 89q39 0 76 -1.5t65 -3.5t62 -6.5t52.5 -7t52.5 -9.5t46 -9.5t48 -10.5t44 -10l-16 -448h-252l-29 215q-73 69 -219 69q-74 0 -141 -32t-120.5 -92t-85.5 -156t-32 -215q0 -109 29 -196.5t78 -145.5t116.5 -96.5t141.5 -55 t156 -16.5q182 0 317 43l55 -203q-254 -86 -491 -86q-232 0 -402.5 80.5t-266 241.5t-95.5 389z" />
<glyph unicode="D" horiz-adv-x="1619" d="M72 -6l8 194q97 13 166 13q30 401 30 905l-170 115l9 176q78 -10 92 -11q65 -8 160 -8q76 0 231 11.5t250 11.5q327 0 514.5 -183t187.5 -499q0 -66 -10 -131.5t-35 -139t-63.5 -138t-101 -124.5t-142 -103.5t-191 -69t-243.5 -25.5q-63 0 -201 11t-217 11 q-96 0 -274 -16zM586 250q111 -33 215 -33q45 0 92 12.5t100.5 48.5t94.5 90.5t68.5 148t27.5 212.5q0 58 -10 115t-38.5 120t-73 110.5t-120 78.5t-172.5 31q-121 0 -154 -6z" />
<glyph unicode="E" horiz-adv-x="1384" d="M72 -6l8 194l59 7q105 6 107 6q11 133 20.5 443.5t9.5 461.5l-170 115l9 176q176 -17 542 -17q359 0 646 17l-31 -471h-232l-26 213l-393 39l-17 -373l400 16l-11 -248l-397 27l-6 -377l403 29l66 227h239l-59 -499q-368 30 -713 30q-195 0 -454 -16z" />
<glyph unicode="F" horiz-adv-x="1288" d="M72 -6l8 194l61 7q12 1 35 2.5t40.5 2.5t29.5 1q11 133 20.5 443.5t9.5 461.5l-170 115l9 176q176 -17 532 -17q355 0 635 17l-31 -471h-231l-27 215l-372 37l-19 -414l402 16l-11 -248l-397 27l-4 -274l170 -115l-8 -176q-187 16 -359 16q-163 0 -323 -16z" />
<glyph unicode="G" horiz-adv-x="1589" d="M76 672q0 178 63 322.5t175 240t265 146.5t334 51q91 0 183 -10t141.5 -20t132.5 -28l-16 -448h-252l-29 215q-87 69 -244 69q-70 0 -137 -30.5t-124.5 -89.5t-92.5 -158.5t-35 -224.5q0 -233 120 -379t294 -146q123 0 188 43l9 230l-174 114l8 176l112 -8q88 -8 211 -8 q212 0 353 16l-9 -194l-55 -6q-99 -6 -111 -6l-16 -494q-97 -34 -240 -60t-241 -26q-173 0 -320.5 46.5t-257.5 135t-172.5 225t-62.5 306.5z" />
<glyph unicode="H" horiz-adv-x="1748" d="M72 -6l8 194l53 7q99 6 113 6q11 132 19.5 439.5t8.5 465.5l-170 115l11 176q192 -17 317 -17q209 0 365 17l-11 -195l-55 -6q-93 -6 -110 -6q-9 -117 -19 -361h561q4 230 4 277l-170 115l9 176q196 -17 319 -17q209 0 363 17l-9 -195l-55 -6q-99 -6 -111 -6 q-11 -129 -20 -438.5t-8 -466.5l170 -115l-10 -176q-178 16 -320 16q-215 0 -362 -16l10 194l53 7q99 6 113 6q6 92 18 401q-303 0 -561 -18q-4 -250 -4 -299l170 -115l-8 -176q-184 16 -322 16q-215 0 -360 -16z" />
<glyph unicode="I" horiz-adv-x="858" d="M72 -6l8 194l53 7q99 6 113 6q11 132 19.5 439.5t8.5 465.5l-170 115l11 176q192 -17 317 -17q209 0 365 17l-11 -195l-55 -6q-93 -6 -110 -6q-11 -130 -20 -440.5t-9 -464.5l170 -115l-8 -176q-184 16 -322 16q-215 0 -360 -16z" />
<glyph unicode="J" horiz-adv-x="798" d="M-113 -375q80 68 148 142q151 163 172 296q22 130 33.5 482.5t11.5 560.5l-170 115l6 176q196 -17 322 -17q208 0 360 17l-6 -195l-55 -6q-99 -6 -111 -6q-11 -214 -27 -599t-16 -507q-2 -80 -30 -154.5t-89.5 -155.5t-169 -165.5t-260.5 -169.5z" />
<glyph unicode="K" horiz-adv-x="1558" d="M72 -6l8 194l53 7q99 6 113 6q11 132 19.5 439.5t8.5 465.5l-170 115l11 176q192 -17 317 -17q209 0 365 17l-11 -195l-55 -6q-93 -6 -110 -6q-11 -130 -20 -440.5t-9 -464.5l170 -115l-8 -176q-184 16 -322 16q-215 0 -360 -16zM668 659l2 68l358 465l-82 6l-43 4l8 195 q125 -17 283 -17q163 0 299 17l-10 -193l-215 -96l-285 -322l342 -501l211 -115l-6 -170h-416z" />
<glyph unicode="L" horiz-adv-x="1320" d="M72 -6l8 194l57 7q105 6 109 6q11 132 19.5 439.5t8.5 465.5l-170 115l11 176q243 -17 348 -17q168 0 334 17l-11 -195q-54 -10 -114 -10q-18 -2 -51 -2q-3 -46 -6 -136t-9.5 -321t-17.5 -510l385 29l63 227h260l-59 -499q-312 27 -682 30q-280 -3 -483 -16z" />
<glyph unicode="M" horiz-adv-x="1966" d="M8 -6l8 194q93 13 166 13l148 1190l278 41l361 -861h41l321 820l328 41l104 -1147l162 -115l-6 -176q-176 16 -309 16q-193 0 -353 -16l9 194q89 10 166 13l-52 649h-41l-313 -795h-201l-325 795h-41l-15 -565l170 -115l-8 -176q-180 16 -305 16t-293 -16z" />
<glyph unicode="N" horiz-adv-x="1648" d="M53 -6l8 194q93 13 148 13l22 643q13 336 13 479v68l198 41l725 -889l37 6l-20 559l-191 115l8 176q167 -19 308 -19q143 0 293 17l-9 -195q-59 -10 -143 -10l-25 -635q-10 -248 -10 -555l-207 -43l-723 889l-36 -6l22 -557l191 -115l-9 -176q-180 16 -309 16 q-123 0 -291 -16z" />
<glyph unicode="O" d="M76 688q0 155 55 291t153.5 236.5t244.5 158.5t319 58q129 0 240 -37.5t191.5 -104t137.5 -155.5t85 -193t28 -217q0 -207 -95.5 -382.5t-263.5 -279.5t-370 -104q-145 0 -265.5 38t-204.5 104.5t-142 158.5t-85.5 199.5t-27.5 228.5zM440 735q0 -151 44.5 -276.5 t130.5 -201t196 -75.5q86 0 154.5 42t110 111t63.5 152.5t22 171.5q0 149 -44 273.5t-129.5 201t-196.5 76.5q-69 0 -127.5 -28t-99 -75.5t-69 -109t-42 -128t-13.5 -134.5z" />
<glyph unicode="P" horiz-adv-x="1320" d="M72 -6l8 194l53 7q99 6 113 6q11 133 20.5 443.5t9.5 461.5l-170 115l9 176q195 -17 268 -17q92 0 217 9.5t188 9.5q247 0 378.5 -110t131.5 -306q0 -89 -30.5 -166t-81.5 -130.5t-117 -92t-136.5 -56.5t-141.5 -18q-57 0 -109 12l10 218q21 -5 49 -5q82 0 137.5 59 t55.5 159q0 103 -65.5 158t-182.5 55q-25 0 -65 -5q-11 -138 -20 -425.5t-9 -460.5l170 -115l-8 -176q-184 16 -320 16q-217 0 -362 -16z" />
<glyph unicode="Q" d="M76 688q0 155 55 291t153.5 236.5t244.5 158.5t319 58q129 0 240 -37.5t191.5 -104t137.5 -155.5t85 -193t28 -217q0 -207 -95.5 -382.5t-263.5 -279.5t-370 -104q-145 0 -265.5 38t-204.5 104.5t-142 158.5t-85.5 199.5t-27.5 228.5zM348 -184q69 37 147.5 60.5 t129.5 23.5q69 0 175.5 -39.5t223 -95.5t150.5 -68l186 70l78 -164q-136 -149 -289 -197q-62 0 -149 37t-150.5 77.5t-148.5 99t-103 69.5l-192 -56zM440 735q0 -151 44.5 -276.5t130.5 -201t196 -75.5q86 0 154.5 42t110 111t63.5 152.5t22 171.5q0 149 -44 273.5 t-129.5 201t-196.5 76.5q-69 0 -127.5 -28t-99 -75.5t-69 -109t-42 -128t-13.5 -134.5z" />
<glyph unicode="R" horiz-adv-x="1470" d="M72 -6l8 194l53 7q99 6 113 6q11 133 20.5 443.5t9.5 461.5l-170 115l9 176q221 -17 288 -17q55 0 184.5 9.5t198.5 9.5q248 0 380 -110.5t132 -307.5q0 -133 -65.5 -227.5t-177.5 -143.5l182 -325l211 -115l-8 -170h-436l-285 539q-14 -2 -43 -2q-17 0 -44 1t-34 1 q-4 -208 -4 -254l168 -115l-8 -176q-181 16 -346 16q-191 0 -336 -16zM604 750q57 -5 72 -5q125 0 192.5 55.5t67.5 162.5q0 109 -70.5 161t-183.5 52q-39 0 -55 -2q-17 -264 -23 -424z" />
<glyph unicode="S" horiz-adv-x="1253" d="M94 16l15 449h231l31 -225q102 -52 231 -52q92 0 148.5 30t56.5 89q0 54 -46 97.5t-140 91.5l-195 104q-54 29 -96 56.5t-84 66t-69.5 79.5t-44.5 94.5t-17 113.5q0 53 10 100.5t33 97t64.5 88.5t99.5 70.5t144 48.5t193 17q281 0 490 -58l-29 -448h-231l-29 215 q-85 61 -211 61q-80 0 -126 -30t-46 -89q0 -57 47.5 -104.5t134.5 -93.5l175 -92q57 -29 101 -57t90 -67t76 -81t49 -98t19 -119q0 -60 -19 -117t-63.5 -111t-109.5 -94.5t-165.5 -65t-223.5 -24.5q-132 0 -266.5 16t-227.5 41z" />
<glyph unicode="T" horiz-adv-x="1384" d="M55 926l15 471l192 -8q169 -9 387 -9q194 0 284 1t210 6t237 16l-30 -477h-254l-27 182l-188 16q-17 -233 -27 -839l170 -115l-6 -176l-98 8q-236 8 -238 8q-201 0 -346 -16l6 194l55 7q99 6 113 6q3 81 10.5 256t13 316t5.5 220v168l-197 17l-33 -252h-254z" />
<glyph unicode="U" horiz-adv-x="1593" d="M59 1221l9 176l96 -8q95 -9 254 -9q156 0 323 17l-8 -197q-42 -5 -166 -10q-20 -499 -20 -676q0 -169 82.5 -250.5t218.5 -81.5q183 0 276 125l9 799l-170 115l8 176q150 -17 313 -17q168 0 318 17l-9 -195q-22 -3 -83 -6t-83 -6l-55 -680q-48 -549 -598 -549 q-261 0 -413 131.5t-152 356.5q0 242 20 657z" />
<glyph unicode="V" horiz-adv-x="1460" d="M0 1221l10 176q187 -17 326 -17q188 0 358 17l-8 -195q-74 -8 -166 -12l252 -817h41l250 735l-133 113l8 176q150 -17 291 -17q126 0 272 17l-8 -195q-17 -2 -104 -10l-529 -1192l-256 -41l-434 1147z" />
<glyph unicode="W" horiz-adv-x="2021" d="M20 1221l9 176q187 -17 331 -17q132 0 345 17l-9 -195q-51 -8 -145 -12l137 -725h41l244 758l231 37l217 -801h33l168 649l-133 113l8 176q150 -17 307 -17q124 0 267 17l-9 -195q-18 -5 -33.5 -6.5t-34.5 -2.5t-36 -3l-471 -1190l-275 -43l-165 635h-31l-223 -592 l-283 -41l-320 1147z" />
<glyph unicode="X" horiz-adv-x="1568" d="M41 -6l6 194q47 8 111 11l450 454l-375 453l-153 115l8 176q187 -17 315 -17q133 0 345 17l-9 -199q-13 -2 -141 -8l233 -287l162 203l-149 115l8 176q150 -17 342 -17q190 0 340 17l-8 -195q-20 -3 -47 -5t-49 -5l-467 -451l372 -456l170 -115l-8 -176q-176 16 -311 16 q-148 0 -348 -16l8 194q58 9 141 13l-244 291l-155 -207l133 -115l-8 -176q-184 16 -344 16t-328 -16z" />
<glyph unicode="Y" horiz-adv-x="1443" d="M12 1219l11 178q187 -17 337 -17q134 0 347 17l-11 -195q-74 -8 -166 -12l242 -424h39l199 340l-133 113l8 178q150 -17 291 -17q157 0 307 17l-8 -193q-24 -6 -58 -8t-49 -4l-479 -688q0 -46 -2 -124t-2 -95l170 -115l-6 -176l-103 8q-3 0 -92 4t-139 4q-199 0 -344 -16 l6 194l53 7q99 6 113 6q3 32 7.5 133t6.5 139l-385 633z" />
<glyph unicode="Z" horiz-adv-x="1378" d="M61 -2l9 215l782 956l-432 -28l-37 -244h-258l18 500q338 -17 578 -17q230 0 575 17l-14 -240l-788 -934l444 33l68 223h299l-60 -518l-280 16q-34 2 -138.5 7t-169 8t-167 5.5t-193.5 2.5q-156 0 -236 -2z" />
<glyph unicode="[" horiz-adv-x="688" d="M133 -356l64 1829h473l-2 -173h-228l-53 -1484h227l-8 -172h-473z" />
<glyph unicode="\" horiz-adv-x="1159" d="M12 1473h213l883 -1829h-213z" />
<glyph unicode="]" horiz-adv-x="692" d="M16 -356l7 172h229l51 1484h-227l6 173h477l-65 -1829h-478z" />
<glyph unicode="^" horiz-adv-x="899" d="M61 877l330 514h117l330 -514h-211l-176 274l-177 -274h-213z" />
<glyph unicode="_" horiz-adv-x="1642" d="M193 -401l4 118h1187l-4 -118h-1187z" />
<glyph unicode="`" horiz-adv-x="593" d="M61 1403q30 23 91.5 78.5t89.5 83.5l270 -373l-111 -100z" />
<glyph unicode="a" horiz-adv-x="1079" d="M47 195q0 153 43.5 290.5t115 233t165.5 151.5t194 56q155 0 342 -54q-10 -101 -15 -198t-8.5 -221t-6.5 -195q57 3 149 33l53 -158q-78 -57 -232 -109.5t-212 -52.5l-74 119l49 193l-14 6q-79 -119 -169 -205.5t-175 -112.5l-180 58q-11 30 -18 80.5t-7 85.5zM348 379 q0 -43 2 -66q27 0 69 27t85 71t75 110.5t35 135.5l2 58q-38 12 -84 12q-83 0 -133.5 -100.5t-50.5 -247.5z" />
<glyph unicode="b" horiz-adv-x="1007" d="M-27 1454l420 123l74 -119l-84 -784l14 -8q133 179 305 260l181 -58q33 -63 50 -148t17 -147q0 -150 -72 -289t-196 -226t-264 -87q-165 0 -338 54q18 116 39.5 509t21.5 601q0 24 -2 86t-2 71q-76 -8 -147 -8zM410 182q34 -12 77 -12q49 0 88 46.5t57.5 108t18.5 117.5 q0 50 -8 99.5t-16 62.5q-27 -4 -61 -24t-68.5 -52.5t-59 -85.5t-26.5 -114z" />
<glyph unicode="c" horiz-adv-x="817" d="M49 301q0 113 37.5 224t104 200.5t168 145t219.5 55.5q80 0 202 -39l-78 -305q-62 41 -140.5 71.5t-137.5 38.5q-78 -122 -78 -309q0 -95 25 -172q59 5 161 25.5t166 42.5l52 -146q-75 -56 -219 -106.5t-232 -55.5l-180 58q-70 119 -70 272z" />
<glyph unicode="d" horiz-adv-x="1091" d="M47 195q0 197 69.5 365.5t190 267t262.5 98.5h80q0 130 -18 366q-73 -8 -146 -8l-16 170l420 123l74 -119q-64 -661 -76 -1200q92 16 147 33l56 -158q-77 -56 -238 -109t-217 -53l-74 119l49 193l-14 6q-79 -119 -169 -205.5t-175 -112.5l-180 58q-25 86 -25 166z M346 379q0 -43 2 -66q27 0 70 27t86 71t75 110.5t35 135.5l2 58q-38 12 -84 12q-83 0 -134.5 -101t-51.5 -247z" />
<glyph unicode="e" horiz-adv-x="892" d="M51 324q0 89 22 176.5t65 164t101.5 135t136.5 92.5t165 34q179 0 278 -82l-10 -322q-40 -26 -129 -73q-173 -87 -328 -132q0 -35 19 -86q73 4 186.5 26.5t190.5 47.5l57 -166q-78 -55 -241.5 -108.5t-256.5 -59.5l-180 58q-76 131 -76 295zM346 512q103 44 180 109 q29 23 58 59q-76 37 -144 37q-16 0 -24 -2q-31 -29 -50 -83t-20 -120z" />
<glyph unicode="f" horiz-adv-x="792" d="M-188 -526l10 309q71 -45 158 -77t159 -32q34 84 47 418l25 631q-146 13 -176 18l4 156h178l4 68q6 143 49 260t111 193t155 117.5t183 41.5q84 0 176 -27l-8 -311q-67 40 -163.5 74.5t-154.5 34.5q-32 -97 -45 -420l-2 -27q170 8 283 25l-39 -238q-127 0 -250 8 l-22 -637q-5 -173 -69.5 -311.5t-181 -219.5t-263.5 -81q-66 0 -168 27z" />
<glyph unicode="g" horiz-adv-x="1040" d="M47 195q0 202 68 370t188 264.5t266 96.5q82 0 187 -15t182 -39q-8 -104 -14 -216t-8.5 -182t-6.5 -211t-6 -208q-12 -289 -157 -449.5t-373 -160.5q-44 0 -127.5 10.5t-153.5 28.5l17 311q89 -37 143.5 -58t141 -42t157.5 -21q23 49 36 253t13 356l-12 6 q-179 -269 -334 -318l-180 58q-27 69 -27 166zM348 379q0 -43 2 -66q30 2 71.5 29t83 70.5t72.5 109t37 135.5l4 58q-38 12 -86 12q-86 0 -135 -99.5t-49 -248.5z" />
<glyph unicode="h" horiz-adv-x="1107" d="M-27 1454l420 123l74 -119l-84 -784l14 -8q79 102 187.5 170.5t189.5 89.5l137 -60q27 -115 27 -258q0 -85 -23 -350q19 0 73 11.5t79 21.5l53 -158q-79 -57 -235 -109.5t-213 -52.5l-101 99q47 315 47 440q0 53 -2 84q-31 -9 -72.5 -36.5t-77.5 -72t-36 -86.5l-8 -399 h-344q16 132 39.5 528.5t23.5 597.5q0 37 -2 99t-2 67q-76 -8 -147 -8z" />
<glyph unicode="i" horiz-adv-x="679" d="M12 803l424 123l74 -119q-31 -213 -31 -408q0 -63 4 -141q56 10 144 33l53 -158q-83 -58 -230 -110t-204 -52l-101 99q27 228 27 379q0 168 -4 194q-71 -8 -139 -8zM180 1149q10 100 13 166q2 27 2 76l245 67l82 -80q-7 -53 -12 -166q-2 -27 -2 -75l-246 -68z" />
<glyph unicode="j" horiz-adv-x="600" d="M-49 -403l49 73q48 74 71 112.5t52 104.5t33 113q14 195 14 469q0 127 -2 174q-71 -8 -139 -8l-17 168l424 123l74 -119q-15 -148 -22.5 -267t-15 -289.5t-11.5 -250.5q-3 -78 -63.5 -189t-108 -173t-137.5 -170q-11 -14 -17 -21zM180 1149q10 100 13 166q2 27 2 76 l245 67l82 -80q-7 -53 -12 -166q-2 -27 -2 -75l-246 -68z" />
<glyph unicode="k" horiz-adv-x="1077" d="M-27 1454l420 123l74 -119l-84 -784l14 -8q166 200 379 260l158 -60q8 -31 8 -88q0 -94 -39 -195t-123 -173l97 -148q14 1 106 29l55 -158q-82 -60 -203.5 -111t-172.5 -51l-183 361q158 136 158 295q-56 -9 -131.5 -76t-75.5 -131l-8 -420h-344q16 132 39.5 528.5 t23.5 597.5q0 26 -2 92.5t-2 73.5q-76 -8 -147 -8z" />
<glyph unicode="l" horiz-adv-x="612" d="M-29 1454l428 123l74 -119q-53 -488 -53 -966q0 -156 2 -234q86 15 137 33l55 -158q-91 -62 -234.5 -112t-203.5 -50l-100 99q33 212 48 516.5t15 519.5q0 30 -3 103t-3 83q-73 -8 -145 -8z" />
<glyph unicode="m" horiz-adv-x="1644" d="M25 803l356 123l74 -119l-49 -193l14 -6q56 88 139 160.5t147.5 108.5t112.5 49l137 -60q4 -18 27 -198q61 88 158 160.5t168 97.5l137 -60q27 -115 27 -258q0 -85 -23 -350q19 0 73 11.5t79 21.5l53 -158q-78 -56 -230.5 -109t-207.5 -53l-101 99q47 315 47 440 q0 53 -2 84q-53 -15 -117.5 -73.5t-68.5 -121.5l-8 -399h-340q43 349 43 594q-54 -16 -119.5 -74t-65.5 -121l-8 -399h-334q43 349 43 594v49q-71 -8 -145 -8z" />
<glyph unicode="n" horiz-adv-x="1173" d="M23 803l358 123l74 -119l-52 -193l17 -6q71 112 188 198t232 120l137 -60q24 -131 24 -258q0 -33 -3.5 -93t-9 -137.5t-7.5 -119.5q16 0 70 11.5t79 21.5l56 -158q-79 -56 -236.5 -109t-214.5 -53l-98 99q45 301 45 440v84q-53 -15 -117.5 -73.5t-68.5 -121.5l-11 -399 h-344q43 304 43 522v121q-71 -8 -143 -8z" />
<glyph unicode="o" horiz-adv-x="974" d="M51 385q0 90 36 184t100.5 174.5t166 131.5t219.5 51q78 0 138 -23.5t97.5 -62.5t61.5 -94t33.5 -112t9.5 -122q0 -86 -34.5 -179t-95.5 -174.5t-159.5 -134.5t-213.5 -53q-94 0 -165 34t-112.5 93.5t-61.5 131.5t-20 155zM365 457q0 -148 73 -279h86q31 39 53.5 110.5 t22.5 149.5q0 146 -74 279h-86q-32 -41 -53.5 -111t-21.5 -149z" />
<glyph unicode="p" horiz-adv-x="1073" d="M23 803l358 123l74 -119l-52 -191l17 -8q74 119 166.5 204t181.5 114l178 -58q34 -63 52 -146t18 -142q0 -156 -74.5 -297t-201 -226.5t-269.5 -85.5h-29q-8 -73 -8 -241q79 8 168 8l16 -168l-440 -123l-74 119q80 774 80 1044v33q-71 -8 -143 -8zM455 180q29 -10 80 -10 q81 0 130.5 87t49.5 204q0 81 -25 143q-64 -6 -143 -94.5t-86 -212.5z" />
<glyph unicode="q" horiz-adv-x="1036" d="M47 195q0 196 72.5 365t195.5 267.5t265 98.5q78 0 179 -15t179 -39q-12 -105 -22.5 -391t-10.5 -497q0 -175 8 -248q73 8 142 8l16 -174l-440 -123l-74 119l64 717l-15 6q-76 -114 -172.5 -202.5t-181.5 -115.5l-180 58q-25 92 -25 166zM348 379q0 -43 2 -66 q61 6 150.5 108.5t105.5 235.5l2 58q-34 12 -78 12q-77 0 -129.5 -102t-52.5 -246z" />
<glyph unicode="r" horiz-adv-x="839" d="M23 803l358 123l74 -119l-52 -191l17 -8q85 145 188 231.5t213 86.5l-14 -322q-5 0 -18.5 1t-18.5 1q-131 0 -200 -67.5t-74 -159.5l-11 -379h-344q43 304 43 522v121q-71 -8 -143 -8z" />
<glyph unicode="s" horiz-adv-x="907" d="M57 0l11 324h168l20 -97q94 -67 233 -67q60 0 109 14q-39 36 -125 86t-162.5 90t-145 96t-85.5 109l59 236q211 135 455 135q98 0 227 -29l-12 -324h-168l-20 97q-123 53 -252 53q-53 0 -68 -4q38 -36 125.5 -86.5t166.5 -92t152.5 -99.5t96.5 -111l-70 -217 q-200 -142 -459 -142q-111 0 -256 29z" />
<glyph unicode="t" horiz-adv-x="796" d="M39 741l4 156h156v51q0 132 -6 195l282 80l76 -119l-7 -52.5t-9.5 -76t-8.5 -74.5q142 8 254 25l-35 -238q-122 0 -239 8q-14 -157 -14 -254q0 -132 12 -186q79 13 147 35l56 -158q-81 -58 -232 -110t-211 -52l-98 99q-4 82 -4 133q0 67 4.5 151t12.5 195t11 176 q-72 3 -151 16z" />
<glyph unicode="u" horiz-adv-x="1175" d="M12 803l432 123l74 -119q-45 -301 -45 -408q0 -53 2 -84q22 6 52.5 24.5t61.5 44t52 60t21 66.5l8 387h344q-45 -425 -45 -639q114 21 147 33l55 -158q-80 -57 -189.5 -100t-205.5 -62l-74 119l50 193l-15 6q-172 -234 -420 -318l-137 60q-26 111 -26 258q0 101 22 354 q-73 -8 -147 -8z" />
<glyph unicode="v" horiz-adv-x="1001" d="M4 803l352 123l93 -97q7 -102 39.5 -243t66.5 -230q94 154 94 316q0 79 -20 145q-4 15 -21 55l338 54q23 -67 23 -117q0 -89 -54 -204t-186 -326l-154 -248l-186 -60q-88 182 -147 334.5t-105 337.5l-76 -6q-24 0 -38 -2z" />
<glyph unicode="w" horiz-adv-x="1458" d="M4 803l346 123l92 -97q7 -101 40 -242t67 -231l96 203q-37 150 -63 313l329 54q7 -135 36.5 -302.5t62.5 -269.5q96 153 96 322q0 72 -21 141l-18 55l338 54q20 -56 20 -117q0 -93 -53.5 -210t-183.5 -320l-160 -248l-178 -60q-84 193 -127 328l-154 -268l-180 -60 q-161 333 -252 672l-76 -6q-24 0 -38 -2z" />
<glyph unicode="x" horiz-adv-x="1048" d="M45 803l289 123l119 -97l131 -204q34 48 34 108q0 44 -20 98q-13 31 -20 41l337 54q17 -66 17 -105q0 -83 -56.5 -168t-191.5 -188l145 -225l129 30l72 -149q-144 -102 -323 -150l-109 47l-158 248q-57 -57 -57 -139q0 -47 12 -82q3 -17 13 -33l-338 -53q-7 47 -7 76 q0 95 60 177.5t215 211.5l-143 225q-42 -10 -86 -10l-48 -4z" />
<glyph unicode="y" horiz-adv-x="1003" d="M-49 -289q124 44 232 123t188 182q-85 177 -135.5 308.5t-96.5 318.5l-45 -4q-50 -4 -71 -4l-17 168l350 123l93 -97q7 -102 39.5 -243t66.5 -230q96 160 96 322q0 71 -20 141q-4 13 -21 53l338 54q21 -49 21 -109q0 -102 -63 -235t-201 -359l-136 -223 q-121 -191 -230.5 -332.5t-219.5 -220.5z" />
<glyph unicode="z" horiz-adv-x="976" d="M43 123l492 545q-76 -17 -250 -17l-29 -141h-170l16 416q180 -19 406 -19q190 0 338 19l69 -135l-469 -521h261l43 146l168 -19q-22 -245 -74 -426l-580 80l-71 -80z" />
<glyph unicode="{" horiz-adv-x="716" d="M43 444l4 172l150 64q19 59 26.5 125.5t7.5 212.5q0 85 20.5 155t66.5 132.5t129.5 108t201.5 69.5l43 -144l-141 -71q-14 -38 -20.5 -95t-6.5 -200q0 -70 -6 -124t-24.5 -118t-60.5 -116.5t-105 -88.5q168 -103 168 -358q0 -44 -6.5 -133.5t-6.5 -138.5q0 -70 13 -111 l139 -72l-53 -143q-387 77 -387 418q0 31 6 108.5t6 120.5q0 95 -21 156z" />
<glyph unicode="|" horiz-adv-x="536" d="M168 -401v1955h201v-1955h-201z" />
<glyph unicode="}" horiz-adv-x="712" d="M18 -287l144 72q13 34 18.5 92.5t5.5 202.5q0 71 6 124t24.5 117t60.5 116t106 89q-168 101 -168 359q0 43 6 132t6 138q0 63 -12 113l-137 71l51 144q387 -79 387 -420q0 -36 -5 -110t-5 -115q0 -81 18 -158l144 -72l-4 -172l-150 -63q-19 -58 -27 -125.5t-8 -212.5 q0 -379 -418 -465z" />
<glyph unicode="~" horiz-adv-x="894" d="M76 524l203 228h92q123 -66 225 -99l133 117l98 -100l-217 -236h-86q-33 12 -65 26.5t-51.5 25t-52 29t-50.5 28.5l-141 -123z" />
<glyph unicode="&#xa1;" horiz-adv-x="540" d="M76 -492q9 73 26 204.5t29 226.5t19 165q15 146 24 269h201l6 -269q14 -362 31 -596q-7 0 -65 4.5t-103 4.5q-56 0 -168 -9zM121 631q5 43 10 155q2 27 2 74l236 66l77 -76q-7 -53 -12 -160q-2 -27 -2 -72l-233 -63z" />
<glyph unicode="&#xa2;" horiz-adv-x="876" d="M57 299q0 165 74.5 317t204.5 238v244h231l-12 -172h29q80 0 202 -39l-77 -305q-62 41 -141 71.5t-138 38.5q-78 -122 -78 -309q0 -95 25 -172q64 5 166.5 25t161.5 43l51 -146q-72 -53 -236 -110v-254h-231l12 202l-176 58q-68 116 -68 270z" />
<glyph unicode="&#xa3;" horiz-adv-x="1159" d="M51 109q128 128 173.5 242.5t45.5 266.5q0 20 -4 56l-145 16l6 187h98q-22 90 -22 167q0 114 73 204t189.5 137t251.5 47q98 0 315 -31l-14 -344q-103 76 -218 124t-222 48q-64 -57 -64 -180q0 -66 18 -172q108 0 222.5 6t156.5 14l-80 -244q-61 -6 -135 -6q-80 0 -123 2 q7 -36 7 -71q0 -89 -45.5 -177.5t-100.5 -154.5l354 10q44 78 70 193l195 -21q0 -80 -34 -249.5t-67 -219.5l-690 92l-86 -92z" />
<glyph unicode="&#xa4;" horiz-adv-x="1443" d="M61 225l177 174q-88 139 -88 299q0 165 92 310l-181 180l160 160l180 -181q139 93 297 93q167 0 306 -93l180 181l159 -160l-180 -180q94 -143 94 -310q0 -157 -90 -299l176 -174l-159 -159l-172 172q-148 -97 -314 -97q-160 0 -305 97l-172 -172zM377 705 q0 -136 95.5 -236t229.5 -100q135 0 231.5 100t96.5 236q0 139 -96 238t-232 99q-135 0 -230 -99.5t-95 -237.5z" />
<glyph unicode="&#xa5;" horiz-adv-x="1583" d="M41 1219l10 178q187 -17 338 -17q133 0 346 17l-10 -195q-74 -8 -166 -12l242 -424h39l198 340l-133 113l8 178q150 -17 291 -17q157 0 307 17l-8 -193q-26 -6 -58.5 -8t-47.5 -4l-250 -361h207l-6 -172h-103q-61 0 -221 -4l-100 -143h419l-6 -172h-125l-299 -4v-51 l170 -115l-6 -176l-102 8q-2 0 -92 4t-140 4q-197 0 -344 -16l7 194l55 7q93 6 110 6q0 4 4 51t5 76q-260 -10 -408 -21l8 205h383l-82 133q-257 -15 -295 -18l9 204h174l-168 275z" />
<glyph unicode="&#xa6;" horiz-adv-x="555" d="M176 295h203v-696h-203v696zM176 858v696h203v-696h-203z" />
<glyph unicode="&#xa7;" horiz-adv-x="935" d="M47 778q0 132 41 253.5t109 209t160 139.5t190 52q106 0 211 -31v-238q-185 80 -357 92q-12 -21 -12 -53q0 -28 8 -56.5t32.5 -69.5t39.5 -62.5t57 -80.5q4 -5 6 -8l5 -7.5t6 -8.5l69 -93t62.5 -89.5t59.5 -95.5t46.5 -94t39.5 -105t22.5 -108t9.5 -121q0 -167 -73 -315 t-194 -236t-257 -88q-118 0 -217 30v238q174 -79 352 -92q8 14 8 57q0 77 -38 156.5t-126 191.5q-129 170 -194.5 317t-65.5 316zM203 895q0 -131 60 -261.5t183 -303.5l21 -29q96 -136 124 -190q32 -61 46 -121l37 8q4 36 4 70q0 84 -13.5 155.5t-44.5 141.5t-65 127.5 t-90 140.5q-11 15 -40 53t-42.5 55.5t-37.5 52t-38.5 58.5t-32 56.5t-30.5 64.5l-37 -8q-4 -36 -4 -70z" />
<glyph unicode="&#xa8;" horiz-adv-x="788" d="M63 1198q1 30 5 72.5t4 48.5v45l209 57l65 -104q-8 -65 -8 -123q-2 -18 -2 -47l-207 -55zM444 1198q1 30 5 72.5t4 48.5v45l209 57l65 -104q-8 -65 -8 -123q-2 -18 -2 -47l-207 -55z" />
<glyph unicode="&#xa9;" horiz-adv-x="1615" d="M53 696q0 150 58 285.5t156.5 234t234.5 156.5t286 58t285.5 -58t234 -156.5t156.5 -234t58 -285.5t-58 -285.5t-156.5 -233.5t-234 -156t-285.5 -58q-200 0 -369 98t-267.5 266.5t-98.5 368.5zM125 696q0 -179 89 -332t242 -242t332 -89q178 0 330.5 89t242 242 t89.5 332q0 134 -53 257t-142 212t-211.5 142t-255.5 53q-134 0 -257 -53t-212 -142t-141.5 -212t-52.5 -257zM354 688q0 110 41 197t110.5 140t157 80.5t185.5 27.5q120 0 264 -33l-6 -262h-162l-14 118q-43 43 -125 43q-90 0 -154.5 -74.5t-64.5 -209.5q0 -79 26 -138 t70.5 -92t98 -49t114.5 -16q114 0 184 24l33 -120q-139 -52 -287 -52q-208 0 -339.5 109t-131.5 307z" />
<glyph unicode="&#xaa;" horiz-adv-x="948" d="M109 1010q0 119 33.5 225.5t89 180.5t128.5 117.5t150 43.5q126 0 266 -41q-13 -102 -17.5 -270.5t-6.5 -206.5q60 4 116 24l41 -122q-66 -42 -183.5 -83.5t-160.5 -41.5l-57 92l37 149l-10 6q-60 -91 -131 -158.5t-136 -88.5l-141 45q-18 63 -18 129zM342 1151 q0 -33 2 -49q20 0 52.5 21t66 54.5t58.5 85.5t28 105l2 45q-30 10 -66 10q-65 0 -104 -77.5t-39 -194.5z" />
<glyph unicode="&#xab;" horiz-adv-x="995" d="M41 524l539 465l88 -86l-303 -379l274 -379l-88 -86zM463 524l368 353l66 -66l-188 -287l168 -288l-68 -66z" />
<glyph unicode="&#xac;" horiz-adv-x="1120" d="M92 549v188h881v-413h-189v225h-692z" />
<glyph unicode="&#xad;" horiz-adv-x="817" d="M119 389l10 229h565l-10 -229h-565z" />
<glyph unicode="&#xae;" horiz-adv-x="1077" d="M47 958q0 196 138 334t333 138q127 0 235.5 -63t172 -171.5t63.5 -237.5t-63.5 -237.5t-172 -171t-235.5 -62.5q-195 0 -333 137.5t-138 333.5zM104 956q0 -111 56 -206.5t151 -151t205 -55.5q172 0 294 121.5t122 291.5q0 169 -122.5 291.5t-293.5 122.5 q-167 0 -289.5 -122.5t-122.5 -291.5zM252 696l4 76q6 2 20 2q28 4 46 4q0 38 6 181t6 178l-70 45l4 69q12 -2 37 -2q25 -2 80 -2q23 0 73.5 3t76.5 3q98 0 151 -44.5t53 -121.5q0 -101 -98 -147l74 -129l84 -45l-4 -68h-172l-113 213h-18h-31q-2 -41 -2 -100l67 -45l-4 -70 q-16 1 -41.5 2.5t-48.5 2.5t-47 1q-76 0 -133 -6zM463 995q8 -2 29 -2q50 0 77 22.5t27 63.5q0 42 -28 63t-74 21h-23q-6 -108 -8 -168z" />
<glyph unicode="&#xaf;" horiz-adv-x="1181" d="M260 1108l8 188h566l-7 -188h-567z" />
<glyph unicode="&#xb0;" horiz-adv-x="720" d="M94 1151q0 119 82.5 200t206.5 81q119 0 200 -81t81 -200q0 -124 -81 -206.5t-200 -82.5q-125 0 -207 82t-82 207zM256 1151q0 -55 34 -91t93 -36q54 0 87.5 35.5t33.5 91.5q0 54 -33.5 88.5t-87.5 34.5q-59 0 -93 -34t-34 -89z" />
<glyph unicode="&#xb1;" horiz-adv-x="1138" d="M78 59v189h942v-189h-942zM78 737v189h377v377h188v-377h377v-189h-377v-377h-188v377h-377z" />
<glyph unicode="&#xb2;" horiz-adv-x="712" d="M76 909q15 15 61 62.5t65 68t56.5 62t55.5 66t39.5 57.5t30.5 60t9 50q0 40 -24.5 63t-63.5 23q-61 0 -121 -57l-71 94q112 119 264 119q100 0 160.5 -54.5t60.5 -154.5q0 -64 -40.5 -131.5t-110 -134.5t-193.5 -168l229 39l54 106l100 -14l-31 -258h-483z" />
<glyph unicode="&#xb3;" horiz-adv-x="675" d="M68 868l94 154q50 -50 88.5 -70t85.5 -20q43 0 69.5 28t26.5 82q0 44 -25.5 71.5t-68.5 27.5q-48 0 -88 -21l-35 109l61 22q43 13 78 47t35 74q0 51 -61 51q-62 0 -138 -63l-67 84q64 64 124 98.5t146 34.5q95 0 143 -42t48 -112q0 -47 -32.5 -92.5t-76.5 -66.5 q63 -8 105.5 -56t42.5 -118q0 -126 -102.5 -209.5t-235.5 -83.5q-132 0 -217 71z" />
<glyph unicode="&#xb4;" horiz-adv-x="581" d="M82 1186l252 379q35 -35 96 -86t90 -64l-330 -323z" />
<glyph unicode="&#xb5;" horiz-adv-x="1236" d="M100 -512q30 269 45 415t36 442.5t26 551.5h328q-58 -388 -58 -498q0 -53 2 -84q22 6 52.5 24.5t61.5 44t52 60t21 66.5l8 387h344q-38 -360 -45 -639q96 14 147 33l56 -158q-80 -57 -197 -103t-199 -59l-73 119l49 193l-15 6q-67 -85 -129.5 -145t-156.5 -113l-11 -543 h-344z" />
<glyph unicode="&#xb6;" horiz-adv-x="1163" d="M29 1071q0 64 19.5 120.5t58 103.5t104 74.5t149.5 27.5q73 0 202 -8.5t200 -8.5q173 0 305 17l-8 -215q-132 -13 -148 -13l-57 -1683h-199l58 1683h-131l-60 -1683h-198l45 1288h-33q-81 0 -142.5 26t-96 70t-51.5 94.5t-17 106.5z" />
<glyph unicode="&#xb7;" horiz-adv-x="536" d="M86 580q5 50 10 165q2 27 2 76l246 68l82 -80q-8 -83 -12 -166q-2 -27 -2 -76l-244 -67z" />
<glyph unicode="&#xb8;" horiz-adv-x="542" d="M66 -412l4 187q114 -64 192 -64q48 0 62 31q-10 8 -22.5 16t-23.5 14t-29 15t-28 13.5t-32.5 15t-32.5 14.5l41 248h143l-21 -131q144 -56 144 -160q0 -98 -79.5 -162.5t-186.5 -64.5q-70 0 -131 28z" />
<glyph unicode="&#xb9;" horiz-adv-x="585" d="M86 1407q30 17 57.5 35t57.5 40.5t43.5 32.5t45.5 36l32 26l116 -39q-16 -102 -16 -563l90 -62l-4 -106l-68 4q-117 6 -121 6q-104 0 -192 -10l6 117l29 4q7 0 27 1t32 1q15 255 15 420l-95 -52z" />
<glyph unicode="&#xba;" horiz-adv-x="813" d="M98 1159q0 69 28.5 141.5t78.5 134.5t129 102t170 40q74 0 127 -27t81.5 -74.5t41 -101t12.5 -117.5q0 -53 -16 -110.5t-49 -112.5t-78 -98.5t-109 -70.5t-137 -27t-128 26.5t-87 72.5t-48 102t-16 120zM344 1214q0 -118 57 -217h66q24 29 41.5 85.5t17.5 117.5 q0 119 -57 215h-68q-57 -82 -57 -201z" />
<glyph unicode="&#xbb;" horiz-adv-x="995" d="M94 238l191 286l-168 289l67 66l346 -355l-368 -352zM326 145l303 379l-275 379l88 86l510 -465l-538 -465z" />
<glyph unicode="&#xbc;" horiz-adv-x="1431" d="M39 1221q30 17 58 35.5t56.5 39.5t44.5 33.5t43.5 35t32.5 26.5l117 -39q-16 -102 -16 -564l90 -61l-4 -106l-68 4q-117 6 -121 6q-104 0 -192 -10l6 116l29 4q7 0 27 1t32 1q14 238 14 420l-94 -51zM158 63l1003 1385l119 -90l-1004 -1393zM731 215l2 119l385 436 l119 -39q-14 -163 -14 -387l92 6l37 4l-37 -139h-94v-47l90 -62l-4 -106l-68 4l-123 6q-104 0 -188 -10l4 117l29 4q8 0 27.5 1t31.5 1l6 92h-295zM879 334q49 0 151 4q0 32 1 89t1 75z" />
<glyph unicode="&#xbd;" horiz-adv-x="1484" d="M39 1221q30 17 58 35.5t56.5 39.5t44.5 33.5t43.5 35t32.5 26.5l117 -39q-16 -102 -16 -564l90 -61l-4 -106l-68 4q-117 6 -121 6q-104 0 -192 -10l6 116l29 4q7 0 27 1t32 1q14 238 14 420l-94 -51zM158 63l1003 1385l119 -90l-1004 -1393zM840 102q15 15 61 62.5t65 68 t56.5 62t55.5 66t39.5 57.5t30.5 60t9 50q0 40 -24.5 63t-63.5 23q-61 0 -121 -57l-71 94q112 119 264 119q100 0 160.5 -54.5t60.5 -154.5q0 -64 -40.5 -131.5t-110 -134.5t-193.5 -168l229 39l53 106l101 -14l-31 -258h-483z" />
<glyph unicode="&#xbe;" horiz-adv-x="1480" d="M35 682l94 154q50 -50 88.5 -70.5t85.5 -20.5q43 0 69.5 28.5t26.5 82.5q0 44 -25.5 71t-68.5 27q-49 0 -88 -20l-35 108l62 23q43 13 77.5 47t34.5 74q0 51 -61 51t-137 -63l-68 83q64 64 124 99t146 35q95 0 143 -42t48 -112q0 -47 -32.5 -93t-76.5 -67 q63 -8 105.5 -56t42.5 -118q0 -126 -102.5 -209.5t-235.5 -83.5q-131 0 -217 72zM203 63l1003 1385l119 -90l-1003 -1393zM774 215l2 119l385 436l119 -39q-14 -163 -14 -387l92 6l37 4l-37 -139h-94v-47l90 -62l-4 -106l-68 4q-14 1 -40 2.5t-46.5 2.5t-36.5 1 q-104 0 -188 -10l4 117l29 4q8 0 27.5 1t31.5 1l6 92h-295zM922 334q49 0 151 4q0 32 1 89t1 75z" />
<glyph unicode="&#xbf;" horiz-adv-x="772" d="M29 -211q0 74 30 143t77.5 121t94 92t91 74t57.5 49l-23 185l181 43q75 -138 75 -246q0 -36 -30 -79t-78.5 -87t-99.5 -85t-105 -86.5t-82 -78.5q24 -63 148 -63q68 0 154.5 27t150.5 65l-13 -307q-42 -13 -115.5 -24t-138.5 -11q-163 0 -268.5 72t-105.5 196zM274 631 q6 61 11 155q2 27 2 74l235 66l78 -76q-9 -83 -12 -160q-2 -27 -2 -72l-234 -63z" />
<glyph unicode="&#xc0;" horiz-adv-x="1476" d="M-31 -6l8 194q93 13 119 13l529 1190l256 41l434 -1147l170 -115l-8 -176q-176 16 -328 16q-158 0 -358 -16l8 194q117 13 166 13l-64 207q-180 -3 -446 -19l-37 -104l133 -115l-8 -176q-176 16 -287 16q-146 0 -287 -16zM422 1733q18 23 71 101t66 95l350 -301l-86 -125 zM539 635h292l-118 385h-41z" />
<glyph unicode="&#xc1;" horiz-adv-x="1476" d="M-31 -6l8 194q93 13 119 13l529 1190l256 41l434 -1147l170 -115l-8 -176q-176 16 -328 16q-158 0 -358 -16l8 194q117 13 166 13l-64 207q-180 -3 -446 -19l-37 -104l133 -115l-8 -176q-176 16 -287 16q-146 0 -287 -16zM539 635h292l-118 385h-41zM653 1618l326 317 q26 -42 74.5 -104t74.5 -80l-389 -248z" />
<glyph unicode="&#xc2;" horiz-adv-x="1476" d="M-31 -6l8 194q93 13 119 13l529 1190l256 41l434 -1147l170 -115l-8 -176q-176 16 -328 16q-158 0 -358 -16l8 194q117 13 166 13l-64 207q-180 -3 -446 -19l-37 -104l133 -115l-8 -176q-176 16 -287 16q-146 0 -287 -16zM455 1606l268 282h123l246 -282l-105 -103 l-207 166l-225 -166zM539 635h292l-118 385h-41z" />
<glyph unicode="&#xc3;" horiz-adv-x="1476" d="M-31 -6l8 194q93 13 119 13l529 1190l256 41l434 -1147l170 -115l-8 -176q-176 16 -328 16q-158 0 -358 -16l8 194q117 13 166 13l-64 207q-180 -3 -446 -19l-37 -104l133 -115l-8 -176q-176 16 -287 16q-146 0 -287 -16zM420 1602l205 227h90q123 -66 225 -98l135 116 l99 -100l-218 -236h-86q-109 41 -219 109l-143 -123zM539 635h292l-118 385h-41z" />
<glyph unicode="&#xc4;" horiz-adv-x="1476" d="M-31 -6l8 194q93 13 119 13l529 1190l256 41l434 -1147l170 -115l-8 -176q-176 16 -328 16q-158 0 -358 -16l8 194q117 13 166 13l-64 207q-180 -3 -446 -19l-37 -104l133 -115l-8 -176q-176 16 -287 16q-146 0 -287 -16zM434 1604q1 22 3.5 62.5t2.5 57.5q2 16 2 45 l209 58l66 -105q-8 -68 -8 -123q-2 -18 -2 -47l-207 -55zM539 635h292l-118 385h-41zM856 1604q1 22 3.5 62.5t2.5 57.5q2 16 2 45l209 58l66 -105q-7 -58 -11 -123v-47l-206 -55z" />
<glyph unicode="&#xc5;" horiz-adv-x="1476" d="M-31 -6l8 194q93 13 119 13l529 1190l256 41l434 -1147l170 -115l-8 -176q-176 16 -328 16q-158 0 -358 -16l8 194q117 13 166 13l-64 207q-180 -3 -446 -19l-37 -104l133 -115l-8 -176q-176 16 -287 16q-146 0 -287 -16zM522 1716q0 102 79 178t202 76q113 0 172 -60 t59 -149q0 -110 -82 -187t-196 -77q-119 0 -176.5 64.5t-57.5 154.5zM539 635h292l-118 385h-41zM678 1733q0 -45 26 -78t76 -33q45 0 72 29t27 82q0 44 -25.5 78t-75.5 34q-48 0 -74 -31.5t-26 -80.5z" />
<glyph unicode="&#xc6;" horiz-adv-x="2052" d="M-55 -6l8 192q69 13 115 15l542 905l-192 115l8 176q176 -17 764 -17q534 0 782 17l-30 -471h-232l-27 213l-393 39l-16 -373l399 16l-10 -248l-397 27l-6 -377l403 29l66 227h239l-59 -499q-365 30 -713 30q-193 0 -455 -16l9 194l61 7q99 6 104 6q0 1 5 77.5t6 129.5 q-188 -4 -426 -23l-54 -102l134 -113l-9 -176q-147 16 -333 16q-125 0 -293 -16zM633 635h303q2 73 6.5 264t7.5 256h-41z" />
<glyph unicode="&#xc7;" horiz-adv-x="1404" d="M78 670q0 237 102.5 410.5t285 262.5t423.5 89q39 0 76 -1.5t65 -3.5t62 -6.5t52.5 -7t52.5 -9.5t46 -9.5t48 -10.5t44 -10l-16 -448h-252l-29 215q-73 69 -219 69q-74 0 -141 -32t-120.5 -92t-85.5 -156t-32 -215q0 -109 29 -196.5t78 -145.5t116.5 -96.5t141.5 -55 t156 -16.5q182 0 317 43l55 -203q-250 -86 -479 -86l-6 -53q143 -56 143 -160q0 -98 -79.5 -162.5t-186.5 -64.5q-70 0 -131 28l4 187q114 -64 193 -64q47 0 61 31q-9 7 -18.5 13.5t-22.5 13.5t-21.5 11.5t-25 12.5t-24 11.5t-28.5 13t-28 12.5l29 176q-295 33 -465 215.5 t-170 489.5z" />
<glyph unicode="&#xc8;" horiz-adv-x="1384" d="M72 -6l8 194l59 7q105 6 107 6q11 133 20.5 443.5t9.5 461.5l-170 115l9 176q176 -17 542 -17q359 0 646 17l-31 -471h-232l-26 213l-393 39l-17 -373l400 16l-11 -248l-397 27l-6 -377l403 29l66 227h239l-59 -499q-368 30 -713 30q-195 0 -454 -16zM465 1733 q18 23 71 101t66 95l350 -301l-86 -125z" />
<glyph unicode="&#xc9;" horiz-adv-x="1384" d="M72 -6l8 194l59 7q105 6 107 6q11 133 20.5 443.5t9.5 461.5l-170 115l9 176q176 -17 542 -17q359 0 646 17l-31 -471h-232l-26 213l-393 39l-17 -373l400 16l-11 -248l-397 27l-6 -377l403 29l66 227h239l-59 -499q-368 30 -713 30q-195 0 -454 -16zM596 1618l326 317 q26 -42 74.5 -104t74.5 -80l-389 -248z" />
<glyph unicode="&#xca;" horiz-adv-x="1384" d="M72 -6l8 194l59 7q105 6 107 6q11 133 20.5 443.5t9.5 461.5l-170 115l9 176q176 -17 542 -17q359 0 646 17l-31 -471h-232l-26 213l-393 39l-17 -373l400 16l-11 -248l-397 27l-6 -377l403 29l66 227h239l-59 -499q-368 30 -713 30q-195 0 -454 -16zM475 1606l268 282 h123l246 -282l-104 -103l-207 166l-226 -166z" />
<glyph unicode="&#xcb;" horiz-adv-x="1384" d="M72 -6l8 194l59 7q105 6 107 6q11 133 20.5 443.5t9.5 461.5l-170 115l9 176q176 -17 542 -17q359 0 646 17l-31 -471h-232l-26 213l-393 39l-17 -373l400 16l-11 -248l-397 27l-6 -377l403 29l66 227h239l-59 -499q-368 30 -713 30q-195 0 -454 -16zM449 1604 q1 22 3.5 62.5t2.5 57.5q2 16 2 45l209 58l65 -105q-8 -68 -8 -123q-2 -18 -2 -47l-207 -55zM870 1604q1 24 4 64t3 56q2 16 2 45l208 58l66 -105q-5 -39 -10 -123v-47l-207 -55z" />
<glyph unicode="&#xcc;" horiz-adv-x="858" d="M72 -6l8 194l53 7q99 6 113 6q11 132 19.5 439.5t8.5 465.5l-170 115l11 176q192 -17 317 -17q209 0 365 17l-11 -195l-55 -6q-93 -6 -110 -6q-11 -130 -20 -440.5t-9 -464.5l170 -115l-8 -176q-184 16 -322 16q-215 0 -360 -16zM119 1733q18 23 71 101t66 95l350 -301 l-86 -125z" />
<glyph unicode="&#xcd;" horiz-adv-x="858" d="M72 -6l8 194l53 7q99 6 113 6q11 132 19.5 439.5t8.5 465.5l-170 115l11 176q192 -17 317 -17q209 0 365 17l-11 -195l-55 -6q-93 -6 -110 -6q-11 -130 -20 -440.5t-9 -464.5l170 -115l-8 -176q-184 16 -322 16q-215 0 -360 -16zM330 1618l325 317q26 -41 75 -103.5 t75 -80.5l-389 -248z" />
<glyph unicode="&#xce;" horiz-adv-x="858" d="M72 -6l8 194l53 7q99 6 113 6q11 132 19.5 439.5t8.5 465.5l-170 115l11 176q192 -17 317 -17q209 0 365 17l-11 -195l-55 -6q-93 -6 -110 -6q-11 -130 -20 -440.5t-9 -464.5l170 -115l-8 -176q-184 16 -322 16q-215 0 -360 -16zM156 1606l268 282h123l246 -282 l-105 -103l-207 166l-225 -166z" />
<glyph unicode="&#xcf;" horiz-adv-x="858" d="M72 -6l8 194l53 7q99 6 113 6q11 132 19.5 439.5t8.5 465.5l-170 115l11 176q192 -17 317 -17q209 0 365 17l-11 -195l-55 -6q-93 -6 -110 -6q-11 -130 -20 -440.5t-9 -464.5l170 -115l-8 -176q-184 16 -322 16q-215 0 -360 -16zM123 1604q1 22 3.5 62.5t2.5 57.5 q2 16 2 45l209 58l66 -105q-9 -76 -9 -123q-2 -18 -2 -47l-207 -55zM545 1604q1 22 3.5 62.5t2.5 57.5q2 16 2 45l209 58l65 -105q-5 -39 -10 -123v-47l-207 -55z" />
<glyph unicode="&#xd0;" horiz-adv-x="1632" d="M70 571l10 258h194q1 41 2 102.5t2 103.5t1 71l-170 115l8 176q150 -17 252 -17q76 0 231 10.5t250 10.5q329 0 522 -183.5t193 -498.5q0 -65 -10.5 -131t-36.5 -139t-66 -138t-103.5 -125t-144 -103.5t-193 -69t-245.5 -25.5q-65 0 -202.5 11t-215.5 11q-96 0 -274 -16 l8 194q98 13 166 13q0 5 18 385q-46 -1 -196 -15zM588 250q97 -33 215 -33q45 0 92.5 12.5t103.5 48.5t99 90.5t71.5 148t28.5 212.5q0 57 -11 114.5t-41.5 120.5t-76.5 110.5t-123 78.5t-174 31q-121 0 -154 -6l-12 -349h232l-7 -225q-18 -2 -63 -2q-98 0 -170 -2z" />
<glyph unicode="&#xd1;" horiz-adv-x="1648" d="M53 -6l8 194q93 13 148 13l22 643q13 336 13 479v68l198 41l725 -889l37 6l-20 559l-191 115l8 176q167 -19 308 -19q143 0 293 17l-9 -195q-59 -10 -143 -10l-25 -635q-10 -248 -10 -555l-207 -43l-723 889l-36 -6l22 -557l191 -115l-9 -176q-180 16 -309 16 q-123 0 -291 -16zM563 1602l205 227h90q123 -66 225 -98l136 116l98 -100l-217 -236h-86q-109 41 -219 109l-144 -123z" />
<glyph unicode="&#xd2;" d="M76 688q0 155 55 291t153.5 236.5t244.5 158.5t319 58q129 0 240 -37.5t191.5 -104t137.5 -155.5t85 -193t28 -217q0 -207 -95.5 -382.5t-263.5 -279.5t-370 -104q-145 0 -265.5 38t-204.5 104.5t-142 158.5t-85.5 199.5t-27.5 228.5zM440 735q0 -151 44.5 -276.5 t130.5 -201t196 -75.5q86 0 154.5 42t110 111t63.5 152.5t22 171.5q0 149 -44 273.5t-129.5 201t-196.5 76.5q-69 0 -127.5 -28t-99 -75.5t-69 -109t-42 -128t-13.5 -134.5zM492 1733q18 23 71 101t66 95l350 -301l-86 -125z" />
<glyph unicode="&#xd3;" d="M76 688q0 155 55 291t153.5 236.5t244.5 158.5t319 58q129 0 240 -37.5t191.5 -104t137.5 -155.5t85 -193t28 -217q0 -207 -95.5 -382.5t-263.5 -279.5t-370 -104q-145 0 -265.5 38t-204.5 104.5t-142 158.5t-85.5 199.5t-27.5 228.5zM440 735q0 -151 44.5 -276.5 t130.5 -201t196 -75.5q86 0 154.5 42t110 111t63.5 152.5t22 171.5q0 149 -44 273.5t-129.5 201t-196.5 76.5q-69 0 -127.5 -28t-99 -75.5t-69 -109t-42 -128t-13.5 -134.5zM702 1618l326 317q26 -41 75 -103.5t75 -80.5l-390 -248z" />
<glyph unicode="&#xd4;" d="M76 688q0 155 55 291t153.5 236.5t244.5 158.5t319 58q129 0 240 -37.5t191.5 -104t137.5 -155.5t85 -193t28 -217q0 -207 -95.5 -382.5t-263.5 -279.5t-370 -104q-145 0 -265.5 38t-204.5 104.5t-142 158.5t-85.5 199.5t-27.5 228.5zM440 735q0 -151 44.5 -276.5 t130.5 -201t196 -75.5q86 0 154.5 42t110 111t63.5 152.5t22 171.5q0 149 -44 273.5t-129.5 201t-196.5 76.5q-69 0 -127.5 -28t-99 -75.5t-69 -109t-42 -128t-13.5 -134.5zM518 1606l268 282h123l246 -282l-104 -103l-207 166l-226 -166z" />
<glyph unicode="&#xd5;" d="M76 688q0 155 55 291t153.5 236.5t244.5 158.5t319 58q129 0 240 -37.5t191.5 -104t137.5 -155.5t85 -193t28 -217q0 -207 -95.5 -382.5t-263.5 -279.5t-370 -104q-145 0 -265.5 38t-204.5 104.5t-142 158.5t-85.5 199.5t-27.5 228.5zM440 735q0 -151 44.5 -276.5 t130.5 -201t196 -75.5q86 0 154.5 42t110 111t63.5 152.5t22 171.5q0 149 -44 273.5t-129.5 201t-196.5 76.5q-69 0 -127.5 -28t-99 -75.5t-69 -109t-42 -128t-13.5 -134.5zM461 1602l205 227h90q123 -66 225 -98l135 116l98 -100l-217 -236h-86q-109 41 -219 109l-143 -123 z" />
<glyph unicode="&#xd6;" d="M76 688q0 155 55 291t153.5 236.5t244.5 158.5t319 58q129 0 240 -37.5t191.5 -104t137.5 -155.5t85 -193t28 -217q0 -207 -95.5 -382.5t-263.5 -279.5t-370 -104q-145 0 -265.5 38t-204.5 104.5t-142 158.5t-85.5 199.5t-27.5 228.5zM440 735q0 -151 44.5 -276.5 t130.5 -201t196 -75.5q86 0 154.5 42t110 111t63.5 152.5t22 171.5q0 149 -44 273.5t-129.5 201t-196.5 76.5q-69 0 -127.5 -28t-99 -75.5t-69 -109t-42 -128t-13.5 -134.5zM506 1604q1 22 3.5 62.5t2.5 57.5q2 16 2 45l209 58l65 -105q-8 -68 -8 -123q-2 -18 -2 -47 l-207 -55zM928 1604q1 22 3.5 62.5t2.5 57.5q2 16 2 45l209 58l65 -105q-5 -39 -10 -123v-47l-207 -55z" />
<glyph unicode="&#xd7;" horiz-adv-x="1062" d="M70 338l309 309l-309 309l133 134l309 -310l307 310l133 -134l-309 -309l309 -309l-133 -133l-307 309l-309 -309z" />
<glyph unicode="&#xd8;" d="M76 688q0 155 55 291t153.5 236.5t244.5 158.5t319 58q169 0 311 -66l121 180l127 -88l-119 -178q117 -97 179.5 -242.5t62.5 -312.5q0 -207 -95.5 -382.5t-263.5 -279.5t-370 -104q-192 0 -348 70l-144 -217l-123 84l140 210q-124 96 -187 247t-63 335zM440 735 q0 -196 74 -344l485 731q-91 88 -208 88q-69 0 -127.5 -28t-99 -75.5t-69 -109t-42 -128t-13.5 -134.5zM610 262q90 -80 201 -80q86 0 154.5 42t110 111t63.5 152.5t22 171.5q0 185 -67 328z" />
<glyph unicode="&#xd9;" horiz-adv-x="1593" d="M59 1221l9 176l96 -8q95 -9 254 -9q156 0 323 17l-8 -197q-42 -5 -166 -10q-20 -499 -20 -676q0 -169 82.5 -250.5t218.5 -81.5q183 0 276 125l9 799l-170 115l8 176q150 -17 313 -17q168 0 318 17l-9 -195q-22 -3 -83 -6t-83 -6l-55 -680q-48 -549 -598 -549 q-261 0 -413 131.5t-152 356.5q0 242 20 657zM547 1733q18 23 71 101t66 95l350 -301l-86 -125z" />
<glyph unicode="&#xda;" horiz-adv-x="1593" d="M59 1221l9 176l96 -8q95 -9 254 -9q156 0 323 17l-8 -197q-42 -5 -166 -10q-20 -499 -20 -676q0 -169 82.5 -250.5t218.5 -81.5q183 0 276 125l9 799l-170 115l8 176q150 -17 313 -17q168 0 318 17l-9 -195q-22 -3 -83 -6t-83 -6l-55 -680q-48 -549 -598 -549 q-261 0 -413 131.5t-152 356.5q0 242 20 657zM717 1618l325 317q26 -41 75 -103.5t75 -80.5l-389 -248z" />
<glyph unicode="&#xdb;" horiz-adv-x="1593" d="M59 1221l9 176l96 -8q95 -9 254 -9q156 0 323 17l-8 -197q-42 -5 -166 -10q-20 -499 -20 -676q0 -169 82.5 -250.5t218.5 -81.5q183 0 276 125l9 799l-170 115l8 176q150 -17 313 -17q168 0 318 17l-9 -195q-22 -3 -83 -6t-83 -6l-55 -680q-48 -549 -598 -549 q-261 0 -413 131.5t-152 356.5q0 242 20 657zM559 1606l268 282h123l246 -282l-104 -103l-207 166l-226 -166z" />
<glyph unicode="&#xdc;" horiz-adv-x="1593" d="M59 1221l9 176l96 -8q95 -9 254 -9q156 0 323 17l-8 -197q-42 -5 -166 -10q-20 -499 -20 -676q0 -169 82.5 -250.5t218.5 -81.5q183 0 276 125l9 799l-170 115l8 176q150 -17 313 -17q168 0 318 17l-9 -195q-22 -3 -83 -6t-83 -6l-55 -680q-48 -549 -598 -549 q-261 0 -413 131.5t-152 356.5q0 242 20 657zM539 1604q1 22 3.5 62.5t2.5 57.5q2 16 2 45l209 58l65 -105q-8 -68 -8 -123q-2 -18 -2 -47l-207 -55zM961 1604q1 22 3.5 62.5t2.5 57.5q2 16 2 45l209 58l65 -105q-5 -39 -10 -123v-47l-207 -55z" />
<glyph unicode="&#xdd;" horiz-adv-x="1443" d="M12 1219l11 178q187 -17 337 -17q134 0 347 17l-11 -195q-74 -8 -166 -12l242 -424h39l199 340l-133 113l8 178q150 -17 291 -17q157 0 307 17l-8 -193q-24 -6 -58 -8t-49 -4l-479 -688q0 -46 -2 -124t-2 -95l170 -115l-6 -176l-103 8q-3 0 -92 4t-139 4q-199 0 -344 -16 l6 194l53 7q99 6 113 6q3 32 7.5 133t6.5 139l-385 633zM627 1618l325 317q26 -41 75 -103.5t75 -80.5l-389 -248z" />
<glyph unicode="&#xde;" horiz-adv-x="1282" d="M72 -6l8 192l53 7q99 6 113 6q9 98 15 224.5t8 218t4 243.5t3 221l-170 115l9 176q195 -17 319 -17q209 0 363 17l-9 -195l-55 -6q-99 -6 -112 -6l-3 -92q51 6 158 6q235 0 351 -94t116 -271q0 -107 -41.5 -191.5t-109.5 -134.5t-148.5 -76t-165.5 -26q-54 0 -108 13 l10 233q36 -4 49 -4q150 0 150 164q0 143 -207 143q-36 0 -64 -4q-10 -167 -14 -573l170 -115l-8 -174q-181 16 -346 16q-193 0 -338 -16z" />
<glyph unicode="&#xdf;" horiz-adv-x="1312" d="M-152 -526l11 309q180 -107 315 -109q34 84 47 418l23 588q-43 -6 -120 -18.5t-93 -14.5l10 250h213l2 68q12 288 158 450t377 162q80 0 144 -25t102.5 -66.5t58.5 -92t20 -105.5q0 -128 -70.5 -232.5t-171.5 -158.5q166 -102 272.5 -248t106.5 -291 q0 -168 -106.5 -277.5t-280.5 -109.5q-32 0 -61 1.5t-58.5 5.5t-44 6t-45 7.5t-34.5 6.5l10 309q101 -57 177.5 -81.5t170.5 -28.5q-28 166 -110.5 283t-227.5 220l6 197q68 63 114 171t46 226q-132 54 -207 54q-33 -121 -45 -420l-27 -869q-5 -173 -69.5 -311.5 t-181 -219.5t-263.5 -81q-66 0 -168 27z" />
<glyph unicode="&#xe0;" horiz-adv-x="1079" d="M47 195q0 153 43.5 290.5t115 233t165.5 151.5t194 56q155 0 342 -54q-10 -101 -15 -198t-8.5 -221t-6.5 -195q57 3 149 33l53 -158q-78 -57 -232 -109.5t-212 -52.5l-74 119l49 193l-14 6q-79 -119 -169 -205.5t-175 -112.5l-180 58q-11 30 -18 80.5t-7 85.5zM327 1403 q30 23 91.5 78.5t89.5 83.5l270 -373l-111 -100zM348 379q0 -43 2 -66q27 0 69 27t85 71t75 110.5t35 135.5l2 58q-38 12 -84 12q-83 0 -133.5 -100.5t-50.5 -247.5z" />
<glyph unicode="&#xe1;" horiz-adv-x="1079" d="M47 195q0 153 43.5 290.5t115 233t165.5 151.5t194 56q155 0 342 -54q-10 -101 -15 -198t-8.5 -221t-6.5 -195q57 3 149 33l53 -158q-78 -57 -232 -109.5t-212 -52.5l-74 119l49 193l-14 6q-79 -119 -169 -205.5t-175 -112.5l-180 58q-11 30 -18 80.5t-7 85.5zM348 379 q0 -43 2 -66q27 0 69 27t85 71t75 110.5t35 135.5l2 58q-38 12 -84 12q-83 0 -133.5 -100.5t-50.5 -247.5zM436 1186l252 379q35 -35 96 -86t90 -64l-329 -323z" />
<glyph unicode="&#xe2;" horiz-adv-x="1079" d="M47 195q0 153 43.5 290.5t115 233t165.5 151.5t194 56q155 0 342 -54q-10 -101 -15 -198t-8.5 -221t-6.5 -195q57 3 149 33l53 -158q-78 -57 -232 -109.5t-212 -52.5l-74 119l49 193l-14 6q-79 -119 -169 -205.5t-175 -112.5l-180 58q-11 30 -18 80.5t-7 85.5zM266 1194 l268 319h123l246 -319l-105 -102l-206 202l-226 -202zM348 379q0 -43 2 -66q27 0 69 27t85 71t75 110.5t35 135.5l2 58q-38 12 -84 12q-83 0 -133.5 -100.5t-50.5 -247.5z" />
<glyph unicode="&#xe3;" horiz-adv-x="1079" d="M47 195q0 153 43.5 290.5t115 233t165.5 151.5t194 56q155 0 342 -54q-10 -101 -15 -198t-8.5 -221t-6.5 -195q57 3 149 33l53 -158q-78 -57 -232 -109.5t-212 -52.5l-74 119l49 193l-14 6q-79 -119 -169 -205.5t-175 -112.5l-180 58q-11 30 -18 80.5t-7 85.5zM203 1196 l205 227h90q120 -66 225 -98l135 117l98 -101l-217 -235h-86q-31 12 -63.5 27t-52.5 25.5t-54.5 29.5t-48.5 26l-143 -122zM348 379q0 -43 2 -66q27 0 69 27t85 71t75 110.5t35 135.5l2 58q-38 12 -84 12q-83 0 -133.5 -100.5t-50.5 -247.5z" />
<glyph unicode="&#xe4;" horiz-adv-x="1079" d="M47 195q0 153 43.5 290.5t115 233t165.5 151.5t194 56q155 0 342 -54q-10 -101 -15 -198t-8.5 -221t-6.5 -195q57 3 149 33l53 -158q-78 -57 -232 -109.5t-212 -52.5l-74 119l49 193l-14 6q-79 -119 -169 -205.5t-175 -112.5l-180 58q-11 30 -18 80.5t-7 85.5zM262 1198 q1 30 5 72.5t4 48.5v45l209 57l65 -104q-8 -65 -8 -123q-2 -18 -2 -47l-207 -55zM348 379q0 -43 2 -66q27 0 69 27t85 71t75 110.5t35 135.5l2 58q-38 12 -84 12q-83 0 -133.5 -100.5t-50.5 -247.5zM643 1198q1 30 5 72.5t4 48.5v45l209 57l65 -104q-8 -65 -8 -123 q-2 -18 -2 -47l-207 -55z" />
<glyph unicode="&#xe5;" horiz-adv-x="1079" d="M47 195q0 153 43.5 290.5t115 233t165.5 151.5t194 56q155 0 342 -54q-10 -101 -15 -198t-8.5 -221t-6.5 -195q57 3 149 33l53 -158q-78 -57 -232 -109.5t-212 -52.5l-74 119l49 193l-14 6q-79 -119 -169 -205.5t-175 -112.5l-180 58q-11 30 -18 80.5t-7 85.5zM334 1311 q0 104 77.5 179t202.5 75q114 0 173 -59.5t59 -149.5q0 -111 -82 -187.5t-197 -76.5q-119 0 -176 64t-57 155zM348 379q0 -43 2 -66q27 0 69 27t85 71t75 110.5t35 135.5l2 58q-38 12 -84 12q-83 0 -133.5 -100.5t-50.5 -247.5zM489 1327q0 -42 26.5 -76t76.5 -34 q47 0 72.5 28t25.5 82q0 43 -25 78t-75 35q-48 0 -74.5 -32t-26.5 -81z" />
<glyph unicode="&#xe6;" horiz-adv-x="1337" d="M47 195q0 153 43.5 290.5t115 233t165.5 151.5t194 56q113 0 260 -33q70 33 162 33q180 0 279 -82l-11 -322q-40 -26 -129 -73q-165 -84 -327 -132q3 -11 9 -43t9 -43q71 4 185 27t192 47l57 -166q-77 -53 -241 -107.5t-256 -60.5l-181 58q-45 79 -59 149 q-143 -171 -262 -207l-180 58q-11 30 -18 80.5t-7 85.5zM348 379q0 -43 2 -66q28 2 71.5 31t82.5 76q21 159 112 295q-38 12 -84 12q-83 0 -133.5 -100.5t-50.5 -247.5zM793 512q95 41 180 109q26 21 57 59q-81 37 -143 37q-17 0 -25 -2q-59 -56 -69 -203z" />
<glyph unicode="&#xe7;" horiz-adv-x="817" d="M49 301q0 113 37.5 224t104 200.5t168 145t219.5 55.5q80 0 202 -39l-78 -305q-62 41 -140.5 71.5t-137.5 38.5q-78 -122 -78 -309q0 -95 25 -172q59 5 161 25.5t166 42.5l52 -146q-91 -68 -301 -133l-9 -53q144 -51 144 -160q0 -98 -80 -162.5t-187 -64.5q-70 0 -131 28 l4 187q114 -64 193 -64q47 0 61 31q-10 8 -22.5 16t-23.5 14t-29 15t-28 13.5t-32.5 15t-32.5 14.5l23 141l-180 58q-70 119 -70 272z" />
<glyph unicode="&#xe8;" horiz-adv-x="892" d="M51 324q0 89 22 176.5t65 164t101.5 135t136.5 92.5t165 34q179 0 278 -82l-10 -322q-40 -26 -129 -73q-173 -87 -328 -132q0 -35 19 -86q73 4 186.5 26.5t190.5 47.5l57 -166q-78 -55 -241.5 -108.5t-256.5 -59.5l-180 58q-76 131 -76 295zM172 1403q30 23 91.5 78.5 t89.5 83.5l270 -373l-111 -100zM346 512q103 44 180 109q29 23 58 59q-76 37 -144 37q-16 0 -24 -2q-31 -29 -50 -83t-20 -120z" />
<glyph unicode="&#xe9;" horiz-adv-x="892" d="M51 324q0 89 22 176.5t65 164t101.5 135t136.5 92.5t165 34q179 0 278 -82l-10 -322q-40 -26 -129 -73q-173 -87 -328 -132q0 -35 19 -86q73 4 186.5 26.5t190.5 47.5l57 -166q-78 -55 -241.5 -108.5t-256.5 -59.5l-180 58q-76 131 -76 295zM346 512q103 44 180 109 q29 23 58 59q-76 37 -144 37q-16 0 -24 -2q-31 -29 -50 -83t-20 -120zM375 1186l252 379q35 -35 96 -86t90 -64l-330 -323z" />
<glyph unicode="&#xea;" horiz-adv-x="892" d="M51 324q0 89 22 176.5t65 164t101.5 135t136.5 92.5t165 34q179 0 278 -82l-10 -322q-40 -26 -129 -73q-173 -87 -328 -132q0 -35 19 -86q73 4 186.5 26.5t190.5 47.5l57 -166q-78 -55 -241.5 -108.5t-256.5 -59.5l-180 58q-76 131 -76 295zM209 1194l268 319h123 l246 -319l-105 -102l-206 202l-226 -202zM346 512q103 44 180 109q29 23 58 59q-76 37 -144 37q-16 0 -24 -2q-31 -29 -50 -83t-20 -120z" />
<glyph unicode="&#xeb;" horiz-adv-x="892" d="M51 324q0 89 22 176.5t65 164t101.5 135t136.5 92.5t165 34q179 0 278 -82l-10 -322q-40 -26 -129 -73q-173 -87 -328 -132q0 -35 19 -86q73 4 186.5 26.5t190.5 47.5l57 -166q-78 -55 -241.5 -108.5t-256.5 -59.5l-180 58q-76 131 -76 295zM211 1198q1 23 2.5 45l3 44 t2.5 32v45l209 57l66 -104q-9 -73 -9 -123q-2 -18 -2 -47l-207 -55zM346 512q103 44 180 109q29 23 58 59q-76 37 -144 37q-16 0 -24 -2q-31 -29 -50 -83t-20 -120zM592 1198q1 23 2.5 45l3 44t2.5 32v45l209 57l65 -104q-8 -65 -8 -123q-2 -18 -2 -47l-207 -55z" />
<glyph unicode="&#xec;" horiz-adv-x="679" d="M12 803l424 123l74 -119q-3 -27 -9.5 -87.5t-9 -88t-6 -72.5t-5 -83t-1.5 -77q0 -102 6 -141q46 8 144 33l51 -158q-83 -58 -229.5 -110t-202.5 -52l-101 99q25 211 25 379t-4 194q-71 -8 -137 -8zM49 1403q30 23 91.5 78.5t89.5 83.5l270 -373l-111 -100z" />
<glyph unicode="&#xed;" horiz-adv-x="679" d="M12 803l424 123l74 -119q-3 -27 -9.5 -87.5t-9 -88t-6 -72.5t-5 -83t-1.5 -77q0 -102 6 -141q46 8 144 33l51 -158q-83 -58 -229.5 -110t-202.5 -52l-101 99q25 211 25 379t-4 194q-71 -8 -137 -8zM274 1186l252 379q34 -34 96 -85t91 -65l-330 -323z" />
<glyph unicode="&#xee;" horiz-adv-x="679" d="M12 803l424 123l74 -119q-3 -27 -9.5 -87.5t-9 -88t-6 -72.5t-5 -83t-1.5 -77q0 -102 6 -141q46 8 144 33l51 -158q-83 -58 -229.5 -110t-202.5 -52l-101 99q25 211 25 379t-4 194q-71 -8 -137 -8zM64 1194l268 319h123l246 -319l-105 -102l-206 202l-226 -202z" />
<glyph unicode="&#xef;" horiz-adv-x="679" d="M12 803l424 123l74 -119q-3 -27 -9.5 -87.5t-9 -88t-6 -72.5t-5 -83t-1.5 -77q0 -102 6 -141q46 8 144 33l51 -158q-83 -58 -229.5 -110t-202.5 -52l-101 99q25 211 25 379t-4 194q-71 -8 -137 -8zM51 1198q1 23 2.5 45l3 44t2.5 32v45l209 57l66 -104q-8 -65 -8 -123 q-2 -18 -2 -47l-207 -55zM432 1198q1 23 2.5 45l3 44t2.5 32v45l209 57l66 -104q-8 -65 -8 -123q-2 -18 -2 -47l-207 -55z" />
<glyph unicode="&#xf0;" horiz-adv-x="993" d="M51 383q0 90 36 184.5t100 175t166 132t222 51.5h7q-27 99 -86 194q-186 -86 -279 -145l8 211q34 16 158 71q-94 87 -186 134l77 186q215 -58 379 -219q100 34 207 61l49 -127l-151 -57q174 -249 174 -557q0 -198 -59.5 -356t-181.5 -254.5t-290 -96.5q-114 0 -194.5 56 t-118 147.5t-37.5 208.5zM367 451q0 -147 73 -273h86q90 109 90 475q0 23 -2 37q-63 29 -135 29q-23 0 -37 -2q-31 -35 -53 -107.5t-22 -158.5z" />
<glyph unicode="&#xf1;" horiz-adv-x="1173" d="M23 803l358 123l74 -119l-52 -193l17 -6q71 112 188 198t232 120l137 -60q24 -131 24 -258q0 -33 -3.5 -93t-9 -137.5t-7.5 -119.5q16 0 70 11.5t79 21.5l56 -158q-79 -56 -236.5 -109t-214.5 -53l-98 99q45 301 45 440v84q-53 -15 -117.5 -73.5t-68.5 -121.5l-11 -399 h-344q43 304 43 522v121q-71 -8 -143 -8zM227 1196l205 227h90q120 -66 225 -98l135 117l99 -101l-217 -235h-86q-31 12 -63.5 27t-52.5 25.5t-54.5 29.5t-48.5 26l-144 -122z" />
<glyph unicode="&#xf2;" horiz-adv-x="974" d="M51 385q0 90 36 184t100.5 174.5t166 131.5t219.5 51q78 0 138 -23.5t97.5 -62.5t61.5 -94t33.5 -112t9.5 -122q0 -86 -34.5 -179t-95.5 -174.5t-159.5 -134.5t-213.5 -53q-94 0 -165 34t-112.5 93.5t-61.5 131.5t-20 155zM245 1403q30 23 91.5 78.5t89.5 83.5l270 -373 l-111 -100zM365 457q0 -148 73 -279h86q31 39 53.5 110.5t22.5 149.5q0 146 -74 279h-86q-32 -41 -53.5 -111t-21.5 -149z" />
<glyph unicode="&#xf3;" horiz-adv-x="974" d="M51 385q0 90 36 184t100.5 174.5t166 131.5t219.5 51q78 0 138 -23.5t97.5 -62.5t61.5 -94t33.5 -112t9.5 -122q0 -86 -34.5 -179t-95.5 -174.5t-159.5 -134.5t-213.5 -53q-94 0 -165 34t-112.5 93.5t-61.5 131.5t-20 155zM365 457q0 -148 73 -279h86q31 39 53.5 110.5 t22.5 149.5q0 146 -74 279h-86q-32 -41 -53.5 -111t-21.5 -149zM428 1186l252 379q35 -35 96 -86t90 -64l-329 -323z" />
<glyph unicode="&#xf4;" horiz-adv-x="974" d="M51 385q0 90 36 184t100.5 174.5t166 131.5t219.5 51q78 0 138 -23.5t97.5 -62.5t61.5 -94t33.5 -112t9.5 -122q0 -86 -34.5 -179t-95.5 -174.5t-159.5 -134.5t-213.5 -53q-94 0 -165 34t-112.5 93.5t-61.5 131.5t-20 155zM195 1194l268 319h123l246 -319l-105 -102 l-206 202l-226 -202zM365 457q0 -148 73 -279h86q31 39 53.5 110.5t22.5 149.5q0 146 -74 279h-86q-32 -41 -53.5 -111t-21.5 -149z" />
<glyph unicode="&#xf5;" horiz-adv-x="974" d="M51 385q0 90 36 184t100.5 174.5t166 131.5t219.5 51q78 0 138 -23.5t97.5 -62.5t61.5 -94t33.5 -112t9.5 -122q0 -86 -34.5 -179t-95.5 -174.5t-159.5 -134.5t-213.5 -53q-94 0 -165 34t-112.5 93.5t-61.5 131.5t-20 155zM135 1196l205 227h90q120 -66 225 -98l136 117 l98 -101l-217 -235h-86q-31 12 -63.5 27t-52.5 25.5t-54.5 29.5t-48.5 26l-144 -122zM365 457q0 -148 73 -279h86q31 39 53.5 110.5t22.5 149.5q0 146 -74 279h-86q-32 -41 -53.5 -111t-21.5 -149z" />
<glyph unicode="&#xf6;" horiz-adv-x="974" d="M51 385q0 90 36 184t100.5 174.5t166 131.5t219.5 51q78 0 138 -23.5t97.5 -62.5t61.5 -94t33.5 -112t9.5 -122q0 -86 -34.5 -179t-95.5 -174.5t-159.5 -134.5t-213.5 -53q-94 0 -165 34t-112.5 93.5t-61.5 131.5t-20 155zM204 1198q1 30 5 72.5t4 48.5v45l209 57 l65 -104q-8 -65 -8 -123q-2 -18 -2 -47l-207 -55zM365 457q0 -148 73 -279h86q31 39 53.5 110.5t22.5 149.5q0 146 -74 279h-86q-32 -41 -53.5 -111t-21.5 -149zM585 1198q1 30 5 72.5t4 48.5v45l209 57l65 -104q-8 -65 -8 -123q-2 -18 -2 -47l-207 -55z" />
<glyph unicode="&#xf7;" horiz-adv-x="1067" d="M43 549v188h942v-188h-942zM356 180q7 56 11 146q2 23 2 65l211 60l71 -70q-5 -40 -10 -143q-2 -23 -2 -68l-211 -57zM379 905q1 13 8 146q2 23 2 65l213 60l72 -70q-5 -40 -10 -143q-2 -23 -2 -68l-211 -57z" />
<glyph unicode="&#xf8;" horiz-adv-x="1007" d="M-37 -23l166 173q-49 101 -49 235q0 90 36 184t100.5 174.5t166 131.5t219.5 51q127 0 209 -66l121 127l88 -88l-129 -135q51 -97 51 -252q0 -86 -34.5 -179t-96 -174.5t-160 -134.5t-213.5 -53q-142 0 -233 78l-154 -160zM395 426l201 211q-8 21 -39 80h-86 q-32 -42 -54 -112t-22 -148v-31zM424 276q17 -50 45 -98h86q32 42 54 112t22 148q0 36 -2 54z" />
<glyph unicode="&#xf9;" horiz-adv-x="1175" d="M12 803l432 123l74 -119q-45 -301 -45 -408q0 -53 2 -84q22 6 52.5 24.5t61.5 44t52 60t21 66.5l8 387h344q-45 -425 -45 -639q114 21 147 33l55 -158q-80 -57 -189.5 -100t-205.5 -62l-74 119l50 193l-15 6q-172 -234 -420 -318l-137 60q-26 111 -26 258q0 101 22 354 q-73 -8 -147 -8zM315 1403q30 23 91.5 78.5t89.5 83.5l270 -373l-111 -100z" />
<glyph unicode="&#xfa;" horiz-adv-x="1175" d="M12 803l432 123l74 -119q-45 -301 -45 -408q0 -53 2 -84q22 6 52.5 24.5t61.5 44t52 60t21 66.5l8 387h344q-45 -425 -45 -639q114 21 147 33l55 -158q-80 -57 -189.5 -100t-205.5 -62l-74 119l50 193l-15 6q-172 -234 -420 -318l-137 60q-26 111 -26 258q0 101 22 354 q-73 -8 -147 -8zM485 1186l252 379q34 -34 96 -85t91 -65l-330 -323z" />
<glyph unicode="&#xfb;" horiz-adv-x="1175" d="M12 803l432 123l74 -119q-45 -301 -45 -408q0 -53 2 -84q22 6 52.5 24.5t61.5 44t52 60t21 66.5l8 387h344q-45 -425 -45 -639q114 21 147 33l55 -158q-80 -57 -189.5 -100t-205.5 -62l-74 119l50 193l-15 6q-172 -234 -420 -318l-137 60q-26 111 -26 258q0 101 22 354 q-73 -8 -147 -8zM272 1194l268 319h123l246 -319l-105 -102l-206 202l-226 -202z" />
<glyph unicode="&#xfc;" horiz-adv-x="1175" d="M12 803l432 123l74 -119q-45 -301 -45 -408q0 -53 2 -84q22 6 52.5 24.5t61.5 44t52 60t21 66.5l8 387h344q-45 -425 -45 -639q114 21 147 33l55 -158q-80 -57 -189.5 -100t-205.5 -62l-74 119l50 193l-15 6q-172 -234 -420 -318l-137 60q-26 111 -26 258q0 101 22 354 q-73 -8 -147 -8zM283 1198q1 23 2.5 45l3 44t2.5 32v45l209 57l65 -104q-8 -65 -8 -123q-2 -18 -2 -47l-207 -55zM664 1198q1 23 2.5 45l3 44t2.5 32v45l209 57l65 -104q-8 -65 -8 -123q-2 -18 -2 -47l-207 -55z" />
<glyph unicode="&#xfd;" horiz-adv-x="1003" d="M-49 -289q124 44 232 123t188 182q-85 177 -135.5 308.5t-96.5 318.5l-45 -4q-50 -4 -71 -4l-17 168l350 123l93 -97q7 -102 39.5 -243t66.5 -230q96 160 96 322q0 71 -20 141q-4 13 -21 53l338 54q21 -49 21 -109q0 -102 -63 -235t-201 -359l-136 -223 q-121 -191 -230.5 -332.5t-219.5 -220.5zM391 1186l252 379q35 -35 96 -86t90 -64l-330 -323z" />
<glyph unicode="&#xfe;" horiz-adv-x="1005" d="M-27 1454l420 123l74 -119l-86 -784l14 -8q164 212 303 260l181 -58q67 -143 67 -286q0 -119 -45 -232t-119 -195.5t-174 -133t-205 -50.5h-28q0 -31 -4 -130.5t-4 -110.5q73 8 168 8l16 -168l-440 -123l-74 119q104 1038 104 1560q0 23 -2 90t-2 76q-76 -8 -147 -8z M385 180q31 -10 82 -10q81 0 129.5 87t48.5 204q0 95 -22 143q-65 -6 -145 -94.5t-87 -212.5z" />
<glyph unicode="&#xff;" horiz-adv-x="1003" d="M-49 -289q124 44 232 123t188 182q-85 177 -135.5 308.5t-96.5 318.5l-45 -4q-50 -4 -71 -4l-17 168l350 123l93 -97q7 -102 39.5 -243t66.5 -230q96 160 96 322q0 71 -20 141q-4 13 -21 53l338 54q21 -49 21 -109q0 -102 -63 -235t-201 -359l-136 -223 q-121 -191 -230.5 -332.5t-219.5 -220.5zM215 1198q1 23 2.5 45l3 44t2.5 32v45l209 57l66 -104q-9 -73 -9 -123q-2 -18 -2 -47l-206 -55zM596 1198q1 23 2.5 45l3 44t2.5 32v45l209 57l66 -104q-9 -74 -9 -123q-2 -18 -2 -47l-206 -55z" />
<glyph unicode="&#x152;" horiz-adv-x="2195" d="M76 688q0 154 53.5 290.5t149 237t235.5 158.5t305 58q133 0 246 -46q90 -6 403 -6q359 0 646 17l-31 -471h-232l-26 213l-393 39l-17 -373l400 16l-11 -248l-397 27l-6 -377l403 29l66 227h239l-59 -499q-368 30 -713 30q-70 0 -136 -2t-124.5 -4.5t-81.5 -3.5 q-112 -41 -221 -41q-171 0 -306 57.5t-219.5 158.5t-128.5 231.5t-44 281.5zM440 731q0 -153 39 -276.5t118 -198t185 -74.5q81 0 144.5 40.5t101.5 109t57 150t19 171.5q0 153 -38.5 278t-117.5 202t-186 77q-65 0 -119.5 -28.5t-91.5 -76t-62.5 -110.5t-37 -129.5 t-11.5 -134.5z" />
<glyph unicode="&#x153;" horiz-adv-x="1380" d="M51 385q0 90 36 184t100.5 174.5t166 131.5t219.5 51q144 0 224 -74q114 72 233 72q180 0 279 -82l-11 -322q-49 -32 -129 -74q-160 -82 -327 -131q3 -11 9 -43t9 -43q71 4 185 27t192 47l57 -166q-77 -53 -241 -107.5t-256 -60.5l-174 56q-103 -54 -213 -54 q-94 0 -165 34t-112.5 93.5t-61.5 131.5t-20 155zM367 457q0 -148 73 -279h117q-16 75 -16 146q0 128 47 249q-22 79 -60 144h-86q-33 -36 -54 -107.5t-21 -152.5zM836 510q100 44 180 108q24 19 57 60q-81 37 -143 37q-17 0 -25 -2q-59 -56 -69 -203z" />
<glyph unicode="&#x178;" horiz-adv-x="1443" d="M12 1219l11 178q187 -17 337 -17q134 0 347 17l-11 -195q-74 -8 -166 -12l242 -424h39l199 340l-133 113l8 178q150 -17 291 -17q157 0 307 17l-8 -193q-24 -6 -58 -8t-49 -4l-479 -688q0 -46 -2 -124t-2 -95l170 -115l-6 -176l-103 8q-3 0 -92 4t-139 4q-199 0 -344 -16 l6 194l53 7q99 6 113 6q3 32 7.5 133t6.5 139l-385 633zM451 1604q1 22 3.5 62.5t2.5 57.5q2 16 2 45l209 58l65 -105q-8 -68 -8 -123q-2 -18 -2 -47l-207 -55zM872 1604q1 24 4 64t3 56q2 16 2 45l209 58l65 -105q-5 -39 -10 -123v-47l-207 -55z" />
<glyph unicode="&#x2c6;" horiz-adv-x="800" d="M82 1194l268 319h123l246 -319l-105 -102l-206 202l-226 -202z" />
<glyph unicode="&#x2dc;" horiz-adv-x="897" d="M47 1196l205 227h90q120 -66 225 -98l135 117l99 -101l-217 -235h-86q-31 12 -63.5 27t-52.5 25.5t-54.5 29.5t-48.5 26l-144 -122z" />
<glyph unicode="&#x2000;" horiz-adv-x="985" />
<glyph unicode="&#x2001;" horiz-adv-x="1970" />
<glyph unicode="&#x2002;" horiz-adv-x="985" />
<glyph unicode="&#x2003;" horiz-adv-x="1970" />
<glyph unicode="&#x2004;" horiz-adv-x="656" />
<glyph unicode="&#x2005;" horiz-adv-x="492" />
<glyph unicode="&#x2006;" horiz-adv-x="328" />
<glyph unicode="&#x2007;" horiz-adv-x="328" />
<glyph unicode="&#x2008;" horiz-adv-x="246" />
<glyph unicode="&#x2009;" horiz-adv-x="394" />
<glyph unicode="&#x200a;" horiz-adv-x="109" />
<glyph unicode="&#x2010;" horiz-adv-x="819" d="M119 389l10 229h565l-10 -229h-565z" />
<glyph unicode="&#x2011;" horiz-adv-x="819" d="M119 389l10 229h565l-10 -229h-565z" />
<glyph unicode="&#x2012;" horiz-adv-x="819" d="M119 389l10 229h565l-10 -229h-565z" />
<glyph unicode="&#x2013;" horiz-adv-x="1187" d="M129 410l8 188h912l-7 -188h-913z" />
<glyph unicode="&#x2014;" horiz-adv-x="1529" d="M129 410l8 188h1256l-7 -188h-1257z" />
<glyph unicode="&#x2018;" horiz-adv-x="530" d="M96 1008q4 139 85.5 285.5t215.5 283.5l146 -123q-67 -96 -95 -177.5t-28 -195.5q0 -24 4 -86l-246 -67z" />
<glyph unicode="&#x2019;" horiz-adv-x="512" d="M72 1051q67 95 95 177.5t28 194.5q0 9 -5 86l246 68l82 -80q-4 -139 -85.5 -285.5t-215.5 -283.5z" />
<glyph unicode="&#x201a;" horiz-adv-x="532" d="M-18 -166q66 91 94 174.5t28 198.5q0 24 -4 86l246 67l82 -79q-4 -139 -86 -286t-215 -284z" />
<glyph unicode="&#x201c;" horiz-adv-x="937" d="M96 1008q4 139 85.5 285.5t215.5 283.5l146 -123q-67 -96 -95 -177.5t-28 -195.5q0 -24 4 -86l-246 -67zM504 1008q4 137 86 284.5t215 284.5l145 -123q-67 -96 -95 -177.5t-28 -195.5q0 -24 4 -86l-245 -67z" />
<glyph unicode="&#x201d;" horiz-adv-x="921" d="M72 1051q67 95 95 177.5t28 194.5q0 9 -5 86l246 68l82 -80q-4 -139 -85.5 -285.5t-215.5 -283.5zM479 1051q67 95 95 177.5t28 194.5q0 24 -4 86l246 68l82 -80q-4 -139 -85.5 -285.5t-215.5 -283.5z" />
<glyph unicode="&#x201e;" horiz-adv-x="944" d="M-18 -166q66 91 94 174.5t28 198.5q0 24 -4 86l246 67l82 -79q-4 -139 -86 -286t-215 -284zM393 -166q66 92 94.5 175.5t28.5 197.5q0 24 -4 86l246 67l82 -79q-4 -139 -86 -286t-215 -284z" />
<glyph unicode="&#x2022;" horiz-adv-x="632" d="M92 694q0 85 59.5 144t145.5 59q85 0 143 -59t58 -144t-58 -143.5t-143 -58.5q-86 0 -145.5 58.5t-59.5 143.5z" />
<glyph unicode="&#x202f;" horiz-adv-x="394" />
<glyph unicode="&#x2039;" horiz-adv-x="733" d="M41 524l539 465l88 -86l-303 -379l274 -379l-88 -86z" />
<glyph unicode="&#x203a;" horiz-adv-x="731" d="M61 145l304 379l-275 379l88 86l510 -465l-538 -465z" />
<glyph unicode="&#x205f;" horiz-adv-x="492" />
<glyph unicode="&#x20ac;" horiz-adv-x="1482" d="M43 408l6 204h201v45v50q-29 -2 -96.5 -7t-100.5 -8l8 205h213q30 130 98 232.5t161.5 168t206 100t235.5 34.5q83 0 164 -10.5t117.5 -19t113.5 -28.5l-16 -448h-219l-23 213q-56 71 -170 71q-94 0 -183 -83.5t-124 -229.5h389l-8 -172h-119l-283 -6v-4q0 -49 7 -103 h391l-6 -172q-29 -2 -97 -2q-143 0 -235 -2q39 -79 106 -133t138.5 -76t148.5 -22q146 0 256 43l47 -203q-218 -86 -426 -86q-246 0 -422 120t-241 345q-20 -1 -108 -6t-130 -10z" />
<glyph unicode="&#x25fc;" horiz-adv-x="921" d="M0 0v922h922v-922h-922z" />
</font>
</defs>
</svg>
